<?xml version="1.0" encoding="utf-8"?>
<!-- Generator: Adobe Illustrator 22.0.1, SVG Export Plug-In . SVG Version: 6.00 Build 0)  -->
<svg version="1.1" id="Слой_1" xmlns="http://www.w3.org/2000/svg" xmlns:xlink="http://www.w3.org/1999/xlink" x="0px" y="0px"
	 viewBox="0 0 256 130" style="enable-background:new 0 0 256 130;" xml:space="preserve">
<g>
	<path d="M1,5c3-1,6-2.9,9-2.9C49.1,1.9,88.2,2,127.3,1.9c4.6,0,6.1,1.2,6,5.9C133,19,133.3,19,121.8,19c-37.1,0-74.2,0.1-111.3-0.1
		C7.3,18.9,4.2,17,1,16C1,12.3,1,8.7,1,5z"/>
	<path d="M257,16c-3,1-6,2.8-9,2.9c-11.1,0.3-22.2,0-33.4,0.2c-3.4,0-4.7-1.1-4.7-4.6C210.3-0.6,207.8,2.3,222,2
		c8.6-0.1,17.3-0.3,25.9,0.1c3,0.1,6,1.9,9,2.9C257,8.7,257,12.3,257,16z"/>
	<path d="M211,102.5c4.7,8.1,4.4,16.1-1.6,22.2c-5.3,5.4-13.6,6.7-20.2,3.1c-7.7-4.1-10-11.1-7.5-23.2c-35.1,0-70.2,0-105.8,0
		c1.9,5.9,3,12-0.9,17.2c-2.1,2.8-5,5.4-8.2,7c-6.6,3.2-14.7,0.8-19.4-4.9c-5.1-6.2-5.1-13.8,0.2-22.2c-23.6-17-30.2-42.2-33.5-69
		c-0.4-3.7,0.8-5.1,4.6-5.1c36.7,0.1,73.3,0.1,110,0c3.5,0,4.6,1.2,4.6,4.7c-0.2,11.8-0.1,23.7-0.1,35.5c0,3.2,0.2,6.5,4.3,6.5
		s4.4-3.2,4.4-6.4c0-2.8-1-6.3,4-6.1c3.2,0.1,4.7,1.1,4.3,4.4c0,0.2,0,0.3,0,0.5c0.1,3.3-0.7,7.5,4.1,7.6c5.2,0.1,4.6-4.3,4.5-7.7
		c-0.2-3.3,0.8-4.8,4.5-4.8c3.6,0,4.2,1.8,4,4.7c-0.1,0.8,0,1.7,0,2.5c0.1,3,0.9,5.5,4.4,5.4s4.1-2.7,4.2-5.6
		c0.1-2.2,0.1-5.1,1.4-6.3c2.8-2.5,6.8,0,7,3.9c0.1,1.5-0.4,3.3,0.3,4.4c0.9,1.5,2.6,3.4,4,3.4s3.2-1.9,4.1-3.4
		c0.7-1.1,0.3-2.9,0.2-4.4c-0.3-3.1,0.8-4.6,4.2-4.6c3.2,0,4.5,1.1,4.5,4.3c0,3.4-1.3,8.4,4.4,8.1c5.5-0.3,3.9-5.3,3.9-8.7
		c0.2-11,0.2-22,0-33c-0.1-3.7,1.3-5,4.9-4.9c8.2,0.2,16.3,0.1,24.5,0c2.9,0,4.8,0.6,4.5,4.2c-1.7,18.3-5.7,36-16,51.4
		C223.3,90,217.1,95.6,211,102.5z"/>
	<path d="M171.5,53.1c-8.3,0-16.7-0.1-25,0.1c-3.4,0.1-4.7-1-4.6-4.6c0.2-14,0.1-28,0-42c0-3.4,1.1-4.7,4.6-4.7
		C163.3,2,180.1,2,197,1.9c3.5,0,4.7,1.2,4.7,4.6c-0.1,14-0.1,28,0,42c0,3.4-1.1,4.7-4.6,4.6C188.5,52.9,180,53.1,171.5,53.1z"/>
</g>
</svg>
