<?xml version="1.0" encoding="utf-8"?>
<!-- Generator: Adobe Illustrator 22.0.1, SVG Export Plug-In . SVG Version: 6.00 Build 0)  -->
<svg version="1.1" id="Слой_1" xmlns="http://www.w3.org/2000/svg" xmlns:xlink="http://www.w3.org/1999/xlink" x="0px" y="0px"
	 viewBox="0 0 302 512" style="enable-background:new 0 0 302 512;" xml:space="preserve">
<path d="M52,1c9,2.6,15.2,9,21.6,15.3c72.6,72.7,145.3,145.4,218.1,218c5.5,5.5,9.7,11.5,10.5,19.3c1,9.8-2.6,17.8-9.5,24.7
	c-24.6,24.4-49,49-73.5,73.5c-49,49-98.1,97.9-147,147c-5.9,5.9-11.9,11.5-20.1,14.1c-3.7,0-7.3,0-11,0c-5.1-3-10.5-5.5-15.1-9.1
	c-5.1-4-9.3-9-13.9-13.6c-13.8-13.9-13.8-30.1,0-43.9c61.7-61.7,123.4-123.4,185.2-185.2c1.4-1.4,2.7-2.8,4.2-4.5
	C180,235.4,159,214.5,138,193.6C95.5,151.1,53,108.5,10.5,66C0.4,56-1.8,40.7,7,30.1C16.6,18.6,25.9,6.3,41,1C44.7,1,48.3,1,52,1z"
	/>
</svg>
