<svg xmlns="http://www.w3.org/2000/svg" style="display: none;">

    <symbol id="icon-hit-1" viewBox="0 0 9401 6985">
        <polygon points="0,6598 1321,6598 1321,6860 0,6860 "/>
        <path d="M1493 0c266,0 508,109 684,284 175,176 284,418 284,684l0 130 -261 0 0 -130c0,-195 -80,-371 -207,-499 -128,-128 -305,-207 -499,-207 -195,0 -372,79 -499,207 -128,128 -207,304 -207,499l0 5729 -262 0 0 -5729c0,-266 109,-508 284,-683 176,-176 418,-285 683,-285z"/>
        <path d="M1204 2648c2,-1 690,-494 1621,-569 460,-37 855,-11 1242,75 384,85 757,229 1176,428 179,84 354,175 530,266 635,330 1290,670 2089,703 1034,42 1538,28 1539,28l0 262c-1,0 -476,14 -1549,-30 -858,-35 -1539,-388 -2199,-730 -175,-91 -349,-182 -521,-263 -404,-191 -760,-329 -1122,-410 -360,-79 -730,-104 -1165,-69 -858,70 -1494,526 -1496,527l-145 -218z"/>
        <path d="M1244 3363c636,-337 1321,-506 2007,-506 687,0 1374,169 2012,506 492,260 1006,529 1537,732 524,199 1065,335 1620,335l922 0 -46 166c-443,1606 -1185,1590 -2484,1561 -164,-4 -339,-7 -557,-7l-3925 0 -28 -14c-4,-1 -1293,-616 -1127,-2667l6 -72 63 -34zm2007 -244c-621,0 -1241,147 -1820,442 -107,1654 796,2236 959,2327l3865 0c178,0 376,4 563,8 1121,25 1782,39 2177,-1204l-575 0c-590,0 -1162,-143 -1713,-353 -543,-207 -1066,-480 -1566,-745 -599,-316 -1245,-475 -1890,-475z"/>
        <path d="M2150 6045l4 307 197 -202 -32 0 -33 -22c0,0 -51,-24 -136,-83zm-253 624l-15 -1213 224 214c119,113 229,185 286,218l580 0 -1072 1097 -3 -316z"/>
        <path d="M8336 5915l-43 1061 -1041 -1065 290 -14c117,-6 228,-17 333,-34 101,-18 196,-42 284,-76l185 -70 -8 198zm-279 446l11 -272c-48,12 -98,23 -149,31l-84 13 222 228z"/>
    </symbol>

    <symbol id="icon-hit-2" viewBox="0 0 43 65">
        <path d="M0.1,57.9V6.4l0.6-0.3C28.5-8.2,42.5,7.2,42.6,7.2l0.3,0.3v49.8l-0.3,0.3c0,0-14.1,15.5-41.8,1.2
		l-0.6-0.3V57.9z M2.5,32.6v24.5c23.4,11.8,35.9,1.4,38.1-0.7V8.5c-2.1-2-14.7-12.4-38.1-0.7V32.6z"/>
        <path d="M1.8,45.4c6.6,2.9,13.2,4.3,19.8,4.4c6.6,0,13.1-1.4,19.7-4.4l1,2.2c-6.9,3.1-13.8,4.6-20.7,4.6
		S7.7,50.6,0.8,47.6L1.8,45.4z"/>
        <path d="M0.8,13.9c6.9-3,13.8-4.5,20.7-4.5c6.9,0,13.8,1.5,20.7,4.5l-1,2.2c-6.6-2.9-13.1-4.4-19.7-4.4
		c-6.6,0-13.2,1.5-19.8,4.4L0.8,13.9z"/>
        <polygon points="13.1,11.6 13.1,49.9 10.7,49.9 10.7,11.6 	"/>
        <polygon points="32,11.6 32,49.9 29.7,49.9 29.7,11.6 	"/>
        <polygon points="30.8,30.6 33.9,30.6 33.9,32.9 30.8,32.9 	"/>
        <polygon points="9.2,30.6 12.3,30.6 12.3,32.9 9.2,32.9 	"/>
        <path d="M22.9,14.5c0.9,0,1.7,0.4,2.3,0.9c0.6,0.6,0.9,1.4,0.9,2.3c0,0.9-0.4,1.7-0.9,2.3
		c-0.6,0.6-1.4,0.9-2.3,0.9c-0.9,0-1.7-0.4-2.3-0.9c-0.6-0.6-0.9-1.4-0.9-2.3c0-0.9,0.4-1.7,0.9-2.3S22,14.5,22.9,14.5z M23.5,17.1
		c-0.1-0.1-0.3-0.2-0.6-0.2c-0.2,0-0.4,0.1-0.6,0.2c-0.2,0.1-0.2,0.4-0.2,0.6c0,0.2,0.1,0.4,0.2,0.6c0.2,0.2,0.4,0.2,0.6,0.2
		c0.2,0,0.4-0.1,0.6-0.2c0.1-0.1,0.2-0.3,0.2-0.6C23.7,17.4,23.6,17.2,23.5,17.1z"/>
        <path d="M24.1,19.7v15l0,1.8c0,2.4-0.3,4.6-4,4.6c-1.4,0-2.5-0.3-3.3-1.5c-0.7-1-1-2.5-0.9-4.8v-10h2.4v10
		c0,1.8,0.1,2.9,0.5,3.4c0.2,0.4,0.7,0.5,1.3,0.5c1.5,0,1.7-1.1,1.7-2.3l-0.1-1.9v-15H24.1z"/>
    </symbol>

    <symbol id="icon-hit-3" viewBox="0 0 39 65">
        <path d="M0,59.1V7l0-0.2c0,0,1.2-3.6,6.7-3.8l2.4,0L11,3c2,0.1,2.4-0.4,2.8-0.8c0.8-0.9,1.7-1.8,5.6-1.8
		c1.1,0,2.2,0,3.2,0.2c1.2,0.2,2.3,0.6,3,1.3c1.1,1.1,1.7,1.6,2.1,1.8h6.3c1,0,3.1,0,4.1,1.7C39.1,7,39,7.4,39,7.4v51.1l-0.4,0.4
		c0,0-12.3,11.8-37.9,1.3L0,59.9V59.1z M2.3,7.4v51c21.2,8.4,32.2,0.9,34.3-0.9V7.4c0,0-0.1,0-0.5-0.7c-0.3-0.5-1.6-0.5-2.1-0.5
		c-2.2,0.1-4.7,0-6.9,0L26.9,6c0,0-1.1-0.5-2.9-2.4c-0.3-0.3-0.9-0.5-1.7-0.6c-0.9-0.1-1.9-0.2-2.9-0.2c-2.9,0-3.4,0.5-3.9,1.1
		C14.7,4.7,14,5.5,11,5.4l-1.8,0c-0.7,0-1.5,0-2.3,0C3.5,5.5,2.6,7,2.3,7.4z"/>
        <polygon points="7.5,25.5 7.5,39.2 5.2,39.2 5.2,25.5 	"/>
        <polygon points="33.4,25.5 33.4,39.2 31.1,39.2 31.1,25.5 	"/>
        <path d="M1.5,53.8c6,1.8,12,2.8,18,2.8c6,0,12-0.9,18-2.8l0.7,2.2c-6.2,2-12.5,2.9-18.7,2.9
		c-6.2,0-12.4-1-18.7-2.9L1.5,53.8z"/>
        <polygon points="12.1,4.2 12.1,57 9.8,57 9.8,4.2 	"/>
        <polygon points="28.7,4.2 28.7,57 26.4,57 26.4,4.2 	"/>
    </symbol>

    <symbol id="icon-hit-4" viewBox="0 0 59 61">
        <path d="M34.6,43.2c0.7,0,1.3-0.6,1.3-1.3v-2.6c0-0.7-0.6-1.3-1.3-1.3s-1.3,0.6-1.3,1.3v2.6
		C33.3,42.6,33.9,43.2,34.6,43.2z"/>
        <path d="M24.4,43.2c0.7,0,1.3-0.6,1.3-1.3v-2.6c0-0.7-0.6-1.3-1.3-1.3c-0.7,0-1.3,0.6-1.3,1.3v2.6
		C23.1,42.6,23.7,43.2,24.4,43.2z"/>
        <path d="M57.5,30.5h-1.3V6.4c0-3.5-2.8-6.4-6.4-6.4H9.2C5.7,0,2.8,2.8,2.8,6.4v24.1H1.5
		c-0.7,0-1.3,0.6-1.3,1.3c0,0.7,0.6,1.3,1.3,1.3h1.3v24.1c0,0.7,0.6,1.3,1.3,1.3h1.3v1.3c0,0.7,0.6,1.3,1.3,1.3s1.3-0.6,1.3-1.3
		v-1.3h45.7v1.3c0,0.7,0.6,1.3,1.3,1.3c0.7,0,1.3-0.6,1.3-1.3v-2.5V33h1.3c0.7,0,1.3-0.6,1.3-1.3C58.7,31.1,58.2,30.5,57.5,30.5z
		 M5.4,6.4c0-2.1,1.7-3.8,3.8-3.8h40.7c2.1,0,3.8,1.7,3.8,3.8v24.1H30.8V28H32c0.7,0,1.3-0.6,1.3-1.3s-0.6-1.3-1.3-1.3h-1.3v-3.8
		c0-2.1-1.7-3.8-3.8-3.8c-2.1,0-3.8,1.7-3.8,3.8c0,0.7,0.6,1.3,1.3,1.3c0.7,0,1.3-0.6,1.3-1.3c0-0.7,0.6-1.3,1.3-1.3
		s1.3,0.6,1.3,1.3v3.8H27c-0.7,0-1.3,0.6-1.3,1.3S26.3,28,27,28h1.3v2.5H5.4V6.4z M28.2,33v22.9H5.4V33H28.2z M53.6,55.9H30.8V33
		h22.9V55.9z"/>
        <path d="M9.2,12.7c0.3,0,0.7-0.1,0.9-0.4l5.1-5.1c0.5-0.5,0.5-1.3,0-1.8s-1.3-0.5-1.8,0l-5.1,5.1
		c-0.5,0.5-0.5,1.3,0,1.8C8.5,12.6,8.8,12.7,9.2,12.7z"/>
        <path d="M18.4,8L8.3,18.2c-0.5,0.5-0.5,1.3,0,1.8c0.3,0.3,0.6,0.4,0.9,0.4c0.3,0,0.7-0.1,0.9-0.4L20.2,9.8
		c0.5-0.5,0.5-1.3,0-1.8C19.7,7.5,18.9,7.5,18.4,8z"/>
        <path d="M48.9,20.7l-5.1,5.1c-0.5,0.5-0.5,1.3,0,1.8c0.2,0.2,0.6,0.4,0.9,0.4c0.3,0,0.6-0.1,0.9-0.4l5.1-5.1
		c0.5-0.5,0.5-1.3,0-1.8S49.4,20.2,48.9,20.7z"/>
        <path d="M39.7,25.4c0.3,0,0.7-0.1,0.9-0.4l10.2-10.2c0.5-0.5,0.5-1.3,0-1.8s-1.3-0.5-1.8,0L38.8,23.2
		c-0.5,0.5-0.5,1.3,0,1.8C39,25.3,39.3,25.4,39.7,25.4z"/>
    </symbol>

    <symbol id="icon-hit-5" viewBox="0 0 57 61">
        <path d="M50.8,44.3c0.2-0.3,0.5-0.5,0.8-0.5c0.4,0,0.7,0.2,0.8,0.5l3,5.4c0.4,0.6,0.5,1.4,0.5,2.1
		c0,0,0,0,0,0c0,2.4-2,4.3-4.3,4.3c-2.4,0-4.3-1.9-4.3-4.3c0-0.7,0.2-1.5,0.5-2.1L50.8,44.3z M51.7,54.2c1.3,0,2.4-1.1,2.4-2.5
		c0-0.4-0.1-0.8-0.3-1.2l-2.1-3.8l-2.1,3.8c-0.2,0.4-0.3,0.8-0.3,1.2c0,0,0,0,0,0C49.3,53.1,50.4,54.2,51.7,54.2L51.7,54.2z"/>
        <path d="M1,55.2h2.9V22.3c0-0.5,0.4-1,1-1h2.9v-4.8c0,0,0,0,0,0c0-3.9,2.5-7.3,6.2-8.5l24.3-7.9
		c0.3-0.1,0.7-0.1,1-0.1c1.8,0,3.3,1.5,3.3,3.3c0,1.4-0.9,2.6-2.2,3.1l-17.9,6c-1.5,0.5-2.6,1.7-2.9,3.2h0.8c0.5,0,1,0.4,1,1v4.8
		h2.9c0.5,0,1,0.4,1,1v4.8h25.1c3.7,0,6.8,3,6.8,6.8v5.8c0,0.5-0.4,1-1,1h-9.7c-0.5,0-1-0.4-1-1v-4.8H25.1v20.3H28c0.5,0,1,0.4,1,1
		V60c0,0.5-0.4,1-1,1H1c-0.5,0-1-0.4-1-1v-3.9C0,55.6,0.4,55.2,1,55.2L1,55.2z M21.7,10.5l17.9-6c0.6-0.2,0.9-0.7,0.9-1.3l0,0
		c0-0.7-0.6-1.3-1.3-1.3c-0.1,0-0.3,0-0.4,0.1L14.5,9.9c-2.5,0.8-4.4,3-4.8,5.7h7.7C17.8,13.2,19.5,11.3,21.7,10.5L21.7,10.5z
		 M19.3,17.5H9.7v3.9h9.7V17.5z M47.3,38.8h7.7v-3.9h-7.7V38.8z M23.2,34.9h-1.9V33H55c-0.5-2.2-2.4-3.9-4.7-3.9H19.3v-1.9h3.9v-3.9
		H5.8v31.9h17.4V34.9z M1.9,59.1h25.1v-1.9H1.9V59.1z"/>
        <path d="M8.7,25.2h4.8v1.9H9.7v2.9H7.7v-3.9C7.7,25.7,8.2,25.2,8.7,25.2L8.7,25.2z"/>
        <rect x="7.7" y="32" width="1.9" height="21.2"/>
    </symbol>

    <symbol id="icon-hit-6" viewBox="0 0 48 62">
        <rect x="33.1" y="8.6" transform="matrix(0.7071 -0.7071 0.7071 0.7071 1.9691 27.7031)" width="2.7" height="5.7"/>
        <rect x="35.8" y="16.7" transform="matrix(0.7071 -0.7071 0.7071 0.7071 -2.9731 31.9819)" width="2.7" height="5.7"/>
        <rect x="30.4" y="22.1" transform="matrix(0.7071 -0.7071 0.7071 0.7071 -8.3731 29.7397)" width="2.7" height="5.7"/>
        <rect x="27.7" y="14" transform="matrix(0.7071 -0.7071 0.7071 0.7071 -3.4309 25.4609)" width="2.7" height="5.7"/>
        <rect x="22.3" y="19.4" transform="matrix(0.7071 -0.7071 0.7071 0.7071 -8.8308 23.2187)" width="2.7" height="5.7"/>
        <path d="M48,59.3c-45.8,0-11.1,0-39.9,0v-16h4.1v4.1h2.7V36.5h-2.7v4H8.1v-28c0-2.4,2-4.4,4.4-4.4
	c1.2,0,2.3,0.5,3.1,1.3l0.1,0.1l-4.8,4.8v2.5l3.5,3.5h2.5L31.1,6V3.5L27.6,0h-2.5l-3.5,3.5C19.2,1.2,16.1,0,12.8,0
	C5.7,0,0,5.7,0,12.8V62h48V59.3z M26.2,2.7h0.2l1.9,1.9v0.2L15.7,17.6h-0.2l-1.9-1.9v-0.2L26.2,2.7z M2.7,12.8
	c0-5.6,4.5-10.1,10.1-10.1c2.6,0,5,1,6.9,2.7l-2.1,2.1l-0.1-0.1c-1.3-1.3-3.1-2.1-5-2.1c-3.9,0-7.1,3.2-7.1,7.1v46.8H2.7V12.8z"/>
    </symbol>

    <symbol id="icon-hit-7" viewBox="0 0 42 64">
        <path d="M11.9,63.3c0.2,0.2,0.4,0.3,0.7,0.3h16.8c0.3,0,0.5-0.1,0.8-0.4c0.2-0.2,0.2-0.5,0.1-0.8l-1.5-9.5l0.5-0.2
		c2.4-1.1,3.9-3.3,5-5.6l0.2-0.4h1.9c3.1,0,5.7-2.5,5.7-5.7V10.4c0.1-3.1-2.5-5.7-5.6-5.7h-7.8l-0.2-0.2C26.6,2.3,24,0.3,21,0.3
		c-3,0-5.6,1.9-7.4,4.2l-0.2,0.2H5.7C2.5,4.7,0,7.3,0,10.4v30.8c0,3.1,2.5,5.7,5.7,5.7h1.9l0.2,0.4c1.1,2.3,2.6,4.5,5,5.7l0.4,0.2
		l-1.5,9.5C11.6,62.8,11.8,63.1,11.9,63.3z M21,2.1c7.2,0,11.3,12.6,11.3,18.7c0,7.3-4.1,10.8-11.3,10.8c-7.2,0-11.3-3.5-11.3-10.8
		C9.8,14.8,13.8,2.1,21,2.1z M1.8,10.5c0-2.1,1.7-3.8,3.8-3.8h6.4l-0.6,1c-0.6,1-1.1,2.2-1.6,3.3l-0.2,0.4H1.8V10.5z M4.9,39.1
		c0.1,0.5,0.3,1.1,0.5,1.6c0.3,1.2,0.7,2.3,1.1,3.5l0.3,0.9H5.6c-2.1,0-3.8-1.7-3.8-3.8v-28H9l-0.2,0.8c-0.6,2.2-1,4.5-1,6.8
		c0,3.7,1,7.3,3.8,9.7l1.4,1.1H9.7c-2.6,0-4.8,2.2-4.8,4.8v2.3C4.9,38.9,4.9,39,4.9,39.1z M27.6,51.5c-0.5,0.1-0.7,0.6-0.6,1.1
		l1.3,9.2H13.7l1.4-9.2c0.1-0.5-0.3-0.9-0.7-1c-4.4-1.1-6-7.2-7.1-11.1l-0.2-0.8h27.9l-0.3,0.9C33.7,44.4,32.1,50.5,27.6,51.5z
		 M35.3,37.8H6.8v-1.2c0-1.7,1.4-3,3-3h22.5c1.7,0,3,1.3,3,3V37.8z M37.1,39.1c0-0.1,0-0.2,0-0.2c0-0.1,0-0.1,0-0.3v-2.1
		c0-2.7-2.2-4.9-4.9-4.9h-3.3l1.3-1.1c2.8-2.5,3.9-6.1,3.9-9.7c0-2.3-0.3-4.6-1-6.8l-0.2-0.8h7.2v27.5h0.1v0.6
		c0,2.1-1.7,3.8-3.8,3.8h-1.1l0.3-0.9c0.4-1.2,0.7-2.3,1.1-3.5C36.8,40.2,36.9,39.6,37.1,39.1z M40.3,11.4h-7.9L32.2,11
		c-0.5-1.2-1-2.3-1.6-3.4l-0.5-1h6.3c2.1,0,3.8,1.7,3.8,3.8V11.4z"/>
    </symbol>

    <symbol id="icon-hit-8" viewBox="0 0 65 65">
        <path d="M61.7,51.5c0.4-0.9,0.7-1.8,0.7-2.8c0-3.6-2.9-6.5-6.5-6.5h-0.4c-0.5,0-1.1,0.1-1.6,0.2
		c-2.3,0.6-4.7,0.9-7.1,0.9h-3.3c-2.4,0-4.8-0.3-7.1-0.9c-0.5-0.1-1-0.2-1.6-0.2h-0.4c-0.7,0-1.5,0.1-2.2,0.4V32.5h-0.1
		c-0.4-6-4.1-11.3-9.6-13.7V11h-3.2V6.7h3.2V4.5h6.5c0.6,0,1.1,0.5,1.1,1.1v2.2h2.2V5.6c0-1.8-1.4-3.2-3.2-3.2h-6.5V0.2H9.7v6.5h3.2
		V11H9.7v7.8c-5.5,2.4-9.2,7.7-9.6,13.7H0v29.1c0,1.8,1.4,3.2,3.2,3.2h25.8c0.9,0,1.9-0.4,2.5-1.2c1.2,0.8,2.6,1.2,4,1.2h19.4
		c3.7,0,6.9-2.8,7.4-6.5h0.3v-0.1c-0.2,0.1-0.5,0.1-0.7,0.1h-1.9c-0.5,2.5-2.7,4.3-5.2,4.3l-19.4-0.1c-1.4,0-2.7-0.8-3.6-1.8
		c-0.2-0.2-0.5-0.5-0.7-0.8c-0.1-0.1-0.1-0.2-0.2-0.3c-0.1-0.2-0.3-0.4-0.4-0.6c0-0.1-0.1-0.2-0.1-0.3c-0.1-0.2-0.1-0.4-0.2-0.6
		h-3.2c-0.5,0-1-0.2-1.4-0.6v0.6h2.2c0,0.1,0,0.1,0,0.2c0,0.3,0.1,0.5,0.2,0.8c0,0.1,0,0.1,0.1,0.2c0.1,0.3,0.2,0.6,0.3,0.9
		c0,0.1,0.1,0.1,0.1,0.2c0.1,0.2,0.2,0.5,0.4,0.7c0.1,0.1,0.1,0.2,0.2,0.2c0.2,0.3,0.4,0.5,0.6,0.8l0,0c-0.2,0.3-0.5,0.4-0.8,0.4
		l0,0H3.2c-0.6,0-1.1-0.5-1.1-1.1v-5.4h23.2V54H2.2V34.7h28v9.2c0,0-0.1,0-0.1,0.1c-0.1,0.1-0.2,0.1-0.2,0.2
		c-0.1,0.1-0.2,0.2-0.3,0.3c-0.1,0.1-0.1,0.2-0.2,0.2c-0.1,0.1-0.2,0.2-0.2,0.3c-0.1,0.1-0.1,0.2-0.2,0.3c-0.1,0.1-0.1,0.2-0.2,0.3
		c-0.1,0.1-0.1,0.2-0.1,0.3c-0.1,0.1-0.1,0.3-0.2,0.4c0,0.1-0.1,0.2-0.1,0.3c0,0.1-0.1,0.3-0.1,0.4c0,0.1,0,0.2-0.1,0.3
		c0,0.2-0.1,0.3-0.1,0.5c0,0.1,0,0.2,0,0.2c0,0.2,0,0.5,0,0.7c0,0.3,0,0.5,0.1,0.8c0,0.1,0,0.2,0,0.3c0,0.2,0.1,0.4,0.1,0.5
		c0,0.1,0.1,0.2,0.1,0.3c0,0.2,0.1,0.3,0.2,0.5c0,0.1,0.1,0.2,0.1,0.3l0.1,0.2h2.6c-0.7-0.8-1.1-1.8-1.1-2.9c0-1.3,0.6-2.6,1.7-3.4
		l0,0c0.7-0.6,1.7-0.9,2.6-0.9h0.4c0.4,0,0.7,0,1.1,0.1c2.5,0.6,5,0.9,7.6,0.9h3.3c2.6,0,5.1-0.3,7.6-0.9c0.3-0.1,0.7-0.1,1-0.1H56
		c2.4,0,4.3,1.9,4.3,4.3l0,0c0,1-0.4,2.1-1.1,2.8H61.7z M11.8,4.5V2.4h8.6v2.2H11.8z M15.1,6.7h2.2V11h-2.2V6.7z M11.8,17.4v-4.3
		h8.6v4.3H11.8z M16.1,19.6c7.3,0,13.4,5.6,13.9,12.9H2.2C2.8,25.2,8.8,19.6,16.1,19.6L16.1,19.6z M26,51.9h-0.2v0.2
		C25.9,52,26,51.9,26,51.9z"/>
        <rect x="8.6" y="36.8" width="15.1" height="2.2"/>
        <rect x="12.9" y="41.1" width="6.5" height="2.2"/>
        <rect x="10.8" y="45.4" width="10.8" height="2.2"/>
        <rect x="8.6" y="49.7" width="6.5" height="2.2"/>
        <rect x="17.2" y="49.7" width="6.5" height="2.2"/>
        <path d="M24.1,56.5v-3.1c0-0.8,0.3-1.6,0.9-2.2c0.6-0.6,1.3-0.9,2.2-0.9H62c0.8,0,1.6,0.3,2.2,0.9s0.9,1.3,0.9,2.2
		v3.1c0,0.8-0.3,1.6-0.9,2.1c-0.5,0.6-1.3,0.9-2.2,0.9H27.2c-0.8,0-1.6-0.3-2.2-0.9C24.5,58.1,24.1,57.3,24.1,56.5z M26.5,53.3v3.1
		c0,0.2,0.1,0.4,0.2,0.5c0.1,0.1,0.3,0.2,0.5,0.2H62c0.2,0,0.4-0.1,0.5-0.2c0.1-0.1,0.2-0.3,0.2-0.5v-3.1c0-0.2-0.1-0.4-0.2-0.5
		s-0.3-0.2-0.5-0.2H27.2c-0.2,0-0.4,0.1-0.5,0.2C26.6,53,26.5,53.2,26.5,53.3z"/>
        <path d="M38,18.8c1.6,0,3,0.6,4,1.7c1,1,1.7,2.5,1.7,4s-0.6,3-1.7,4c-1,1-2.5,1.7-4,1.7s-3-0.6-4-1.7
		c-1-1-1.7-2.5-1.7-4s0.6-3,1.7-4C35,19.4,36.4,18.8,38,18.8z M40.4,22.1c-0.6-0.6-1.5-1-2.4-1c-0.9,0-1.8,0.4-2.4,1s-1,1.5-1,2.4
		c0,0.9,0.4,1.8,1,2.4s1.5,1,2.4,1c0.9,0,1.8-0.4,2.4-1s1-1.5,1-2.4C41.4,23.6,41,22.7,40.4,22.1z"/>
        <path d="M55.7,21.2c1.3,0,2.5,0.5,3.3,1.4c0.9,0.9,1.4,2,1.4,3.3s-0.5,2.5-1.4,3.3c-0.9,0.8-2,1.4-3.3,1.4
		s-2.5-0.5-3.3-1.4c-0.8-0.8-1.4-2-1.4-3.3s0.5-2.5,1.4-3.3C53.3,21.7,54.4,21.2,55.7,21.2z M57.3,24.2c-0.4-0.4-1-0.7-1.6-0.7
		s-1.2,0.3-1.6,0.7c-0.4,0.4-0.7,1-0.7,1.7c0,0.6,0.3,1.2,0.7,1.6c0.4,0.4,1,0.7,1.6,0.7s1.2-0.3,1.6-0.7c0.4-0.4,0.7-1,0.7-1.6
		C58,25.2,57.8,24.6,57.3,24.2z"/>
        <path d="M47.6,28.3c2.1,0,4,0.8,5.3,2.2c1.4,1.4,2.2,3.2,2.2,5.3c0,2.1-0.8,4-2.2,5.3c-1.4,1.4-3.2,2.2-5.3,2.2
		c-2.1,0-4-0.8-5.3-2.2c-1.4-1.4-2.2-3.2-2.2-5.3c0-2.1,0.8-4,2.2-5.3C43.7,29.1,45.5,28.3,47.6,28.3z M51.3,32.1
		c-0.9-0.9-2.3-1.5-3.7-1.5c-1.4,0-2.7,0.6-3.7,1.5s-1.5,2.2-1.5,3.7s0.6,2.8,1.5,3.7c0.9,0.9,2.2,1.5,3.7,1.5
		c1.4,0,2.8-0.6,3.7-1.5c0.9-0.9,1.5-2.3,1.5-3.7S52.3,33.1,51.3,32.1z"/>
    </symbol>

    <symbol id="icon-hit-9" viewBox="0 0 71 65">
        <path d="M63.4,9H7.6v2h10.8h36.1h8.9V9z M63.4,13.2H7.6v2h55.9V13.2z M63.4,20.2h-5c-1.8-1.9-4.3-3.1-7.1-3.1H24.8
		c-2.7,0-5.3,1.1-7.1,3.1H7.6v2h23.5c0.5,0.7,0.9,1.4,1.2,2.3H7.6v2h7.4c0,0.3,0,0.5,0,0.8v6.3H7.6v2h25.2v2.3H7.6v2h7.3v18.6h17.9
		V65h28.5V39.8h2.1v-2h-2.1v-2.3h2.1v-2h-2.1v-6.3c0-0.3,0-0.5,0-0.8h2.2v-2h-2.5c-0.2-0.8-0.6-1.6-0.9-2.3h3.5V20.2z M16.9,27.2
		c0-0.3,0-0.5,0-0.8h15.9c0,0.3,0,0.5,0,0.8v6.3H16.9V27.2z M20.9,20.2c1.2-0.7,2.6-1.1,4-1.1c1.4,0,2.8,0.4,3.9,1.1H20.9z
		 M32.8,39.8v12.6H16.9V39.8H32.8z M16.9,56.4v-2h15.9v2H16.9z M59.3,63H34.8V27.2c0-3.3-1.6-6.3-4-8.1h20.5c4.4,0,8,3.6,8,8.1V63
		L59.3,63z"/>
        <path d="M4.1,0c1,0,2,0.4,2.7,1.1c0.7,0.7,1.1,1.6,1.1,2.7V59c0,1.1-0.4,2-1.1,2.7c-0.7,0.7-1.6,1.1-2.7,1.1
		c-1.1,0-2-0.4-2.7-1.1C0.7,61,0.3,60,0.3,59V3.8c0-1.1,0.4-2,1.1-2.7S3,0,4.1,0z M4.1,2.3c-0.4,0-0.8,0.2-1,0.4
		C2.8,3,2.6,3.4,2.6,3.8V59c0,0.4,0.2,0.8,0.4,1c0.3,0.3,0.6,0.4,1,0.4c0.4,0,0.8-0.2,1-0.4c0.3-0.3,0.4-0.6,0.4-1V3.8
		c0-0.4-0.2-0.8-0.4-1C4.8,2.5,4.5,2.3,4.1,2.3z"/>
        <path d="M66.9,0c1,0,2,0.4,2.7,1.1s1.1,1.6,1.1,2.7V59c0,1.1-0.4,2-1.1,2.7c-0.7,0.7-1.6,1.1-2.7,1.1
		c-1,0-2-0.4-2.7-1.1C63.5,61,63.1,60,63.1,59V3.8c0-1.1,0.4-2,1.1-2.7C64.9,0.4,65.9,0,66.9,0z M66.9,2.3c-0.4,0-0.8,0.2-1,0.4
		c-0.3,0.3-0.4,0.6-0.4,1V59c0,0.4,0.2,0.8,0.4,1c0.3,0.3,0.6,0.4,1,0.4c0.4,0,0.8-0.2,1-0.4c0.3-0.3,0.4-0.6,0.4-1V3.8
		c0-0.4-0.2-0.8-0.4-1C67.7,2.5,67.3,2.3,66.9,2.3z"/>
    </symbol>

    <symbol id="icon-hit-10" viewBox="0 0 63 63">
        <path d="M61.6,54.6L45.1,38.2c2.7-4,4.1-8.7,4.1-13.6C49.2,11,38.2,0,24.6,0S0,11,0,24.6s11,24.6,24.6,24.6
		c4.9,0,9.5-1.4,13.6-4.1l4.5,4.5l0,0l11.9,11.9c0.9,0.9,2.2,1.4,3.5,1.4c1.3,0,2.5-0.5,3.5-1.4c0.9-0.9,1.4-2.2,1.4-3.5
		C63,56.8,62.5,55.5,61.6,54.6z M37.6,42.5L37.6,42.5c-3.8,2.8-8.3,4.2-13,4.2c-12.2,0-22.2-9.9-22.2-22.1
		c0-12.2,9.9-22.2,22.2-22.2c12.2,0,22.1,9.9,22.1,22.2c0,4.7-1.5,9.2-4.2,13C41.2,39.5,39.5,41.2,37.6,42.5z M40.2,43.7
		c1.3-1,2.4-2.2,3.5-3.5l3.5,3.5c-1.1,1.2-2.2,2.4-3.5,3.5L40.2,43.7z M59.8,59.8c-0.5,0.5-1.1,0.7-1.7,0.7c-0.7,0-1.3-0.3-1.7-0.7
		L45.4,48.9c1.3-1.1,2.4-2.2,3.5-3.5l10.9,10.9c0.5,0.5,0.7,1.1,0.7,1.7C60.5,58.7,60.3,59.4,59.8,59.8z"/>
        <path d="M26,11l2.8,8.6l12.7,0l-10.3,7.4L35.1,39l-10.2-7.5L14.6,39l3.9-12.1L8.3,19.5l12.7,0l3.9-12.1L26,11z
		 M26.8,21.1l-1.9-5.9l-2.2,6.7h-7.1l5.7,4.1l-2.2,6.7l5.7-4.2l5.7,4.2L28.4,26l5.7-4.1h-7L26.8,21.1z"/>
    </symbol>

    <symbol id="icon-001-bathtub" viewBox="0 0 19.9 10.2">
        <path d="M10.3,1.3v-1c0-0.1-0.1-0.2-0.2-0.2H2.7H2H0.5C0.2,0.1,0,0.3,0,0.5v0.4c0,0.2,0.2,0.4,0.4,0.4h9.7
			C10.3,1.4,10.3,1.4,10.3,1.3z"/>
        <path d="M19.5,0.1h-3c-0.1,0-0.2,0.1-0.2,0.2l0,0v1c0,0.1,0.1,0.2,0.2,0.2h3c0.2,0,0.4-0.2,0.4-0.4V0.7
			C20,0.3,19.8,0.1,19.5,0.1z"/>
        <path d="M18.8,2.1h-2.3c-0.1,0-0.2,0.1-0.2,0.2v3.2c0,0.2-0.1,0.3-0.3,0.3s-0.3-0.1-0.3-0.3V5
			c0-0.1-0.1-0.2-0.2-0.2h-0.3C15.1,4.8,15,4.9,15,5v0.5c0,0.2-0.1,0.3-0.3,0.3s-0.3-0.1-0.3-0.3V5c0-0.1-0.1-0.2-0.2-0.2h-0.3
			c-0.1,0-0.2,0.1-0.2,0.2v0.5c0,0.2-0.1,0.3-0.3,0.3s-0.3-0.1-0.3-0.3V5c0-0.1-0.1-0.2-0.2-0.2h-0.3c-0.1,0-0.2,0.1-0.2,0.2v0.5
			c0,0.2-0.1,0.3-0.3,0.3s-0.3-0.1-0.3-0.3V5c0-0.1-0.1-0.2-0.2-0.2h-0.3c-0.1,0-0.2,0.1-0.2,0.2v0.5c0,0.2-0.1,0.3-0.3,0.3
			s-0.3-0.1-0.3-0.3V2.3c0-0.1-0.1-0.2-0.2-0.2h-9C1.1,2.1,1,2.2,1,2.3l0,0c0.1,2.4,1.2,4.8,2.7,5.6C3.2,8.4,3.2,9.3,3.8,9.8
			c0.5,0.5,1.4,0.5,1.9-0.1C6,9.2,6.1,8.6,5.8,8.1h8.4C14,8.4,14,8.8,14.1,9.2c0.2,0.7,1,1.1,1.7,0.8c0.7-0.2,1.1-1,0.8-1.7
			c-0.1-0.2-0.2-0.3-0.3-0.5C17.8,7,18.8,4.6,19,2.2C19,2.2,18.9,2.1,18.8,2.1z"/>
        <path d="M11.2,4.1h4.3c0.1,0,0.2-0.1,0.2-0.2V0.2c0-0.1-0.1-0.2-0.2-0.2l0,0h-4.3C11.1,0,11,0.1,11,0.2v3.7
			C11,4,11.1,4.1,11.2,4.1z"/>
    </symbol>

    <symbol id="icon-002-shower-1" viewBox="0 0 20 20">
        <path d="M6.86556 6.69444C6.85935 6.69729 6.85322 6.70034 6.84717 6.70358L6.18069 7.0368C6.01852 7.12376 5.95752 7.32577 6.04452 7.48795C6.12774 7.6431 6.31729 7.70675 6.47728 7.63326L7.14376 7.30004C7.31101 7.22323 7.38431 7.02536 7.3075 6.85814C7.23065 6.69093 7.03282 6.61763 6.86556 6.69444Z"  />
        <path d="M6.62733 5.52056C6.54536 5.35592 6.3455 5.2888 6.18078 5.37061L5.51431 5.70383C5.35213 5.79079 5.29114 5.9928 5.37814 6.15498C5.46136 6.31013 5.65091 6.37382 5.8109 6.30033L6.47737 5.96711C6.64201 5.88514 6.70914 5.68528 6.62733 5.52056Z"  />
        <path d="M4.70124 4.82089C4.78321 4.98553 4.98307 5.05266 5.14778 4.97085L5.81425 4.63763C5.98151 4.56081 6.0548 4.36295 5.97799 4.19573C5.90118 4.02852 5.70331 3.95518 5.5361 4.03199C5.52989 4.03484 5.52372 4.03789 5.51771 4.04113L4.85123 4.37435C4.68652 4.45632 4.61943 4.65618 4.70124 4.82089Z"  />
        <path d="M4.33131 3.67124C4.38348 3.67093 4.43483 3.65835 4.48126 3.63457L5.14774 3.30135C5.31499 3.22454 5.38829 3.02667 5.31148 2.85945C5.23466 2.69224 5.0368 2.6189 4.86958 2.69571C4.86337 2.69856 4.85724 2.70161 4.85119 2.70485L4.18472 3.03807C4.01906 3.11828 3.94983 3.3176 4.03004 3.48325C4.08592 3.59868 4.20307 3.67179 4.33131 3.67124Z"  />
        <path d="M4.86629 7.69423C4.86009 7.69708 4.85395 7.70013 4.8479 7.70337L4.18143 8.03659C4.01925 8.12355 3.95825 8.32556 4.04526 8.48774C4.12847 8.64289 4.31802 8.70654 4.47801 8.63305L5.14449 8.29983C5.31175 8.22302 5.38504 8.02515 5.30819 7.85793C5.23138 7.69072 5.03355 7.61742 4.86629 7.69423Z"  />
        <path d="M4.62783 6.52035C4.54587 6.35572 4.346 6.28859 4.18129 6.3704L3.51481 6.70362C3.35264 6.79059 3.29164 6.9926 3.3786 7.15478C3.46182 7.30996 3.65137 7.37362 3.81136 7.30012L4.47784 6.9669C4.64252 6.88493 4.70964 6.68507 4.62783 6.52035Z"  />
        <path d="M2.70179 5.82058C2.78376 5.98522 2.98362 6.05235 3.14833 5.97054L3.81481 5.63732C3.98206 5.5605 4.05536 5.36263 3.97855 5.19542C3.90173 5.02816 3.70387 4.95487 3.53665 5.03168C3.53044 5.03453 3.52431 5.03758 3.51826 5.04082L2.85178 5.37404C2.68707 5.456 2.61998 5.65586 2.70179 5.82058Z"  />
        <path d="M2.33204 4.67087C2.38422 4.67056 2.43557 4.65798 2.482 4.6342L3.14848 4.30098C3.31573 4.22417 3.38903 4.0263 3.31222 3.85909C3.2354 3.69187 3.03753 3.61854 2.87032 3.69535C2.86411 3.6982 2.85798 3.70124 2.85193 3.70449L2.18545 4.0377C2.0198 4.11791 1.95056 4.31723 2.03077 4.48284C2.08665 4.59831 2.2038 4.67142 2.33204 4.67087Z"  />
        <path d="M2.86691 8.69386C2.8607 8.69671 2.85457 8.69976 2.84851 8.703L2.18204 9.03622C2.01986 9.12318 1.95886 9.32519 2.04587 9.48737C2.12908 9.64252 2.31864 9.70617 2.47863 9.63267L3.1451 9.29946C3.31236 9.22264 3.38566 9.02477 3.3088 8.85756C3.23199 8.69035 3.03416 8.61705 2.86691 8.69386Z"  />
        <path d="M2.62857 7.51998C2.5466 7.35535 2.34678 7.28822 2.18202 7.37003L1.51555 7.70325C1.35337 7.79022 1.29237 7.99223 1.37934 8.1544C1.46255 8.30955 1.65211 8.37324 1.8121 8.29975L2.47857 7.96653C2.64325 7.88456 2.71038 7.6847 2.62857 7.51998Z"  />
        <path d="M1.96206 6.18711C1.88009 6.02247 1.68023 5.95534 1.51552 6.03715L0.849041 6.37037C0.686864 6.45734 0.625867 6.65934 0.712832 6.82152C0.796049 6.97667 0.985601 7.04036 1.14559 6.96687L1.81207 6.63365C1.97674 6.55168 2.04383 6.35182 1.96206 6.18711Z"  />
        <path d="M1.29561 4.85417C1.21364 4.68953 1.01382 4.62241 0.849062 4.70422L0.182585 5.03744C0.0204079 5.1244 -0.0405891 5.32641 0.0464156 5.48859C0.129632 5.64374 0.319184 5.70739 0.479174 5.6339L1.14565 5.30068C1.31029 5.21875 1.37742 5.01893 1.29561 4.85417Z"  />
        <path d="M15.9944 14.6678L16.3709 14.4746C16.5346 14.3904 16.599 14.1895 16.5148 14.0258C16.5146 14.0255 16.5144 14.0251 16.5142 14.0247L16.151 13.3349C16.1086 13.2533 16.008 13.2215 15.9263 13.2639C15.9257 13.2643 15.9251 13.2646 15.9244 13.2649L14.4616 14.0647C14.3824 14.1086 14.3528 14.2078 14.3949 14.288L14.7281 14.9544C14.8123 15.1181 15.0132 15.1825 15.1769 15.0983C15.1772 15.0981 15.1776 15.0979 15.178 15.0977L15.3279 15.0011C15.379 15.8154 15.6149 16.6074 16.0177 17.317C16.4363 18.0294 16.6583 18.8401 16.6608 19.6663C16.6608 19.8504 16.81 19.9995 16.9941 19.9995C17.1781 19.9995 17.3273 19.8503 17.3273 19.6663C17.3306 18.7367 17.088 17.8227 16.6242 17.0171C16.2102 16.3035 15.9929 15.4929 15.9944 14.6678Z"  />
        <path d="M12.9954 6.51702L12.3589 5.28407L9.91971 0.545476C9.76968 0.249473 9.48254 0.0472297 9.15327 0.00564082C8.94111 -0.0165009 8.72723 0.0264939 8.54013 0.128924L6.79734 1.03533L6.2042 1.33856C5.72162 1.59149 5.53046 2.18427 5.77433 2.67147L7.917 6.81689C8.16993 7.29947 8.76272 7.49063 9.24992 7.24676L10.1363 6.7869L10.6462 7.78659C10.6886 7.86825 10.7892 7.90003 10.8709 7.85758C10.8715 7.85723 10.8722 7.85692 10.8728 7.85657L12.9222 6.74023C13.0038 6.69868 13.0366 6.59891 12.9954 6.51702ZM8.96001 6.67029C8.79666 6.75511 8.59551 6.69142 8.51069 6.52811C8.51049 6.52776 8.5103 6.52737 8.51014 6.52701L6.36744 2.3816C6.28262 2.21825 6.34631 2.0171 6.50962 1.93232C6.50997 1.93212 6.51036 1.93193 6.51071 1.93177L6.8073 1.7785L9.25656 6.51374L8.96001 6.67029Z"  />
        <path d="M18.9938 0.00538063C18.9266 0.00538063 18.8595 0.0121364 18.7937 0.0255698C18.3191 0.13292 17.9851 0.558767 17.9939 1.04526V6.33697H17.1608C17.0688 6.33697 16.9942 6.41155 16.9942 6.5036V10.8356C16.9942 10.9276 17.0688 11.0022 17.1608 11.0022H17.9939V18.9598C17.9851 19.4463 18.3191 19.8721 18.7937 19.9795C19.3346 20.0899 19.8627 19.7409 19.9731 19.1999C19.9865 19.134 19.9933 19.067 19.9933 18.9998V1.00527C19.9934 0.453174 19.5459 0.00549778 18.9938 0.00538063Z"  />
        <path d="M15.9948 12.276C15.9947 12.2758 15.9946 12.2756 15.9944 12.2753L15.288 10.9057L15.5845 10.7525C15.7482 10.6683 15.8126 10.4674 15.7284 10.3037C15.7282 10.3033 15.728 10.303 15.7279 10.3026L16.2477 10.0327C16.3026 10.0043 16.3372 9.94783 16.3377 9.88605V8.05329C16.3379 7.96128 16.2634 7.8865 16.1714 7.88634C16.1459 7.88631 16.1207 7.89212 16.0978 7.90333L14.8115 8.53314C14.7273 8.36948 14.5264 8.30508 14.3627 8.38928C14.3623 8.38947 14.362 8.38967 14.3616 8.38982L14.065 8.5431L13.4785 7.41012C13.4361 7.32847 13.3355 7.29668 13.2538 7.33913C13.2532 7.33944 13.2525 7.33979 13.2519 7.34014L11.2025 8.45648C11.1233 8.50042 11.0937 8.59957 11.1359 8.67974L11.699 9.76608L11.4024 9.91936C11.2388 10.0036 11.1744 10.2045 11.2586 10.3681C11.2588 10.3685 11.259 10.3689 11.2591 10.3692L12.1789 12.1454C12.2193 12.2231 12.2888 12.2817 12.3721 12.3086C12.4559 12.3357 12.5469 12.3285 12.6254 12.2886L12.922 12.1354L13.6517 13.5483C13.6942 13.6299 13.7948 13.6617 13.8764 13.6192C13.8771 13.6189 13.8777 13.6186 13.8783 13.6182L15.9277 12.5019C16.0087 12.458 16.0387 12.3569 15.9948 12.276Z"/>
    </symbol>

    <symbol id="icon-003-sink" viewBox="0 0 20 20">
        <path d="M13.0809 18.7847L11.6499 11.473L8.2805 11.4803L6.91825 18.7954C6.86241 19.0953 6.99925 19.4079 7.29371 19.6344C7.58714 19.86 8.00896 20 8.45169 20C8.45329 20 8.45496 20 8.45657 20L11.5537 19.9825C11.9983 19.9815 12.4208 19.845 12.7133 19.6172C13.0056 19.3895 13.1396 19.0843 13.0809 18.7847Z"  />
        <path d="M19.2388 5.30135L0.755737 5.30037L0.760907 6.04756C0.766652 7.26924 1.47133 8.42022 2.74505 9.28084C4.01343 10.138 5.6953 10.614 7.48264 10.614C7.49005 10.614 7.49729 10.614 7.5047 10.614L12.5431 10.5985C16.2498 10.5904 19.2558 8.52858 19.2439 6.00803L19.2388 5.30135Z"  />
        <path d="M11.6092 1.75437H11.0287C11.007 1.75437 10.9856 1.75566 10.9642 1.75656V1.21371C11.2352 1.09715 11.4157 0.892031 11.4157 0.657891C11.4157 0.29457 10.9825 0 10.4482 0H9.54524C9.01095 0 8.57776 0.29457 8.57776 0.657891C8.57776 0.89207 8.75825 1.09715 9.02928 1.21371V1.76094C8.98694 1.75707 8.94414 1.75441 8.90026 1.75441H8.31978C7.78549 1.75441 7.35229 2.04898 7.35229 2.4123C7.35229 2.77562 7.78549 3.0702 8.31978 3.0702H8.90026C8.94409 3.0702 8.98694 3.06754 9.02928 3.06367V4.42363L10.9642 4.42371V3.06797C10.9857 3.06895 11.007 3.07016 11.0288 3.07016H11.6092C12.1435 3.07016 12.5767 2.77559 12.5767 2.41227C12.5767 2.04895 12.1435 1.75437 11.6092 1.75437Z"  />
    </symbol>

    <symbol id="icon-004-sink" viewBox="0 0 20 22">
        <g>
            <path d="M19.3455 7.6278H13.5214V5.51484C13.5214 5.17418 13.2452 4.89803 12.9045 4.89803C12.5639 4.89803 12.2877 5.17422 12.2877 5.51484V7.6278H11.1431V3.15962C11.1431 2.09766 12.007 1.23368 13.069 1.23368C14.131 1.23368 14.995 2.09766 14.995 3.15962V5.7773C14.995 6.11797 15.2712 6.39412 15.6118 6.39412C15.9524 6.39412 16.2286 6.11793 16.2286 5.7773V3.15962C16.2286 1.41739 14.8112 0 13.069 0C11.3268 0 9.90939 1.41739 9.90939 3.15962V7.6278H8.7612V5.51484C8.7612 5.17418 8.48501 4.89803 8.14438 4.89803C7.80372 4.89803 7.52757 5.17422 7.52757 5.51484V7.6278H1.70697C1.3663 7.6278 1.09015 7.90399 1.09015 8.24461C1.09015 8.58528 1.36634 8.86143 1.70697 8.86143H19.3455C19.6861 8.86143 19.9623 8.58524 19.9623 8.24461C19.9623 7.90399 19.6861 7.6278 19.3455 7.6278Z"  />
            <path d="M2.13855 10.1363V13.7233H18.9143V10.1363H2.13855ZM11.1401 11.3807C11.1381 11.4009 11.1352 11.421 11.1311 11.4408C11.1274 11.4601 11.1224 11.4798 11.1163 11.4991C11.1105 11.5185 11.1035 11.5374 11.0961 11.5559C11.0883 11.5744 11.0797 11.5929 11.0702 11.6106C11.0608 11.6283 11.0505 11.6459 11.0394 11.6624C11.0283 11.6792 11.0159 11.6957 11.0032 11.7113C10.9904 11.7269 10.9769 11.7422 10.9625 11.7561C10.9485 11.7705 10.9333 11.7841 10.9177 11.7968C10.902 11.8096 10.8856 11.8219 10.8687 11.833C10.8523 11.8441 10.8346 11.8544 10.8169 11.8639C10.7992 11.8733 10.7807 11.882 10.7622 11.8898C10.7437 11.8972 10.7248 11.9042 10.7055 11.9099C10.6862 11.9157 10.6668 11.921 10.6471 11.9247C10.6274 11.9288 10.6072 11.9317 10.5871 11.9338C10.5669 11.9358 10.5468 11.9371 10.5266 11.9371C10.5065 11.9371 10.4859 11.9358 10.4658 11.9338C10.446 11.9317 10.4259 11.9288 10.4061 11.9247C10.3864 11.921 10.3667 11.9157 10.3473 11.9099C10.3284 11.9042 10.3091 11.8972 10.2906 11.8898C10.2721 11.882 10.2536 11.8733 10.2359 11.8639C10.2182 11.8544 10.201 11.8441 10.1841 11.833C10.1673 11.8219 10.1508 11.8096 10.1356 11.7968C10.1196 11.7841 10.1048 11.7705 10.0904 11.7561C10.076 11.7422 10.0624 11.7269 10.0497 11.7113C10.0369 11.6957 10.025 11.6792 10.0139 11.6624C10.0028 11.6459 9.99209 11.6283 9.98263 11.6106C9.97317 11.5929 9.96454 11.5744 9.95714 11.5559C9.94932 11.5374 9.94233 11.5185 9.93658 11.4991C9.93082 11.4798 9.92589 11.4601 9.92177 11.4408C9.91766 11.421 9.91478 11.4009 9.91273 11.3807C9.91067 11.3606 9.90985 11.3404 9.90985 11.3203C9.90985 11.3001 9.91067 11.2796 9.91273 11.2594C9.91478 11.2397 9.91766 11.2195 9.92177 11.1994C9.92589 11.1801 9.93082 11.1603 9.93658 11.141C9.94233 11.1217 9.94932 11.1028 9.95714 11.0843C9.96454 11.0658 9.97317 11.0473 9.98263 11.0296C9.99209 11.0119 10.0028 10.9946 10.0139 10.9778C10.025 10.9609 10.0369 10.9445 10.0497 10.9288C10.0624 10.9132 10.076 10.8984 10.0904 10.884C10.1048 10.8696 10.1196 10.8561 10.1356 10.8433C10.1508 10.8306 10.1673 10.8186 10.1841 10.8071C10.201 10.796 10.2182 10.7857 10.2359 10.7763C10.2536 10.7668 10.2721 10.7582 10.2906 10.7508C10.3091 10.743 10.3284 10.736 10.3473 10.7302C10.3667 10.7245 10.3864 10.7195 10.4061 10.7154C10.4259 10.7113 10.446 10.7084 10.4658 10.7064C10.5061 10.7023 10.5468 10.7023 10.5871 10.7064C10.6072 10.7084 10.6274 10.7113 10.6471 10.7154C10.6668 10.7195 10.6862 10.7245 10.7055 10.7302C10.7248 10.736 10.7437 10.743 10.7622 10.7508C10.7807 10.7582 10.7992 10.7668 10.8169 10.7763C10.8346 10.7857 10.8523 10.796 10.8687 10.8071C10.8856 10.8186 10.902 10.8306 10.9177 10.8433C10.9333 10.8561 10.9485 10.8696 10.9625 10.884C10.9769 10.8984 10.9904 10.9132 11.0032 10.9288C11.0159 10.9445 11.0283 10.9609 11.0394 10.9778C11.0505 10.9946 11.0608 11.0119 11.0702 11.0296C11.0797 11.0473 11.0883 11.0658 11.0961 11.0843C11.1035 11.1028 11.1105 11.1217 11.1163 11.141C11.1224 11.1603 11.1274 11.1801 11.1311 11.1994C11.1352 11.2195 11.1381 11.2397 11.1401 11.2594C11.1422 11.2796 11.1434 11.3001 11.1434 11.3203C11.1434 11.3404 11.1422 11.3606 11.1401 11.3807Z"/>
            <path d="M2.13855 14.957V19.6834C2.13855 20.4384 2.75278 21.0526 3.50775 21.0526H17.5451C18.3001 21.0526 18.9143 20.4383 18.9143 19.6834V14.957H2.13855ZM11.1401 17.4257C11.1381 17.4459 11.1352 17.466 11.1311 17.4857C11.1274 17.5051 11.1224 17.5248 11.1163 17.5441C11.1105 17.5635 11.1035 17.5824 11.0961 17.6009C11.0883 17.6194 11.0797 17.6379 11.0702 17.6556C11.0608 17.6732 11.0505 17.6909 11.0394 17.7074C11.0283 17.7242 11.0159 17.7407 11.0032 17.7563C10.9904 17.7719 10.9769 17.7871 10.9625 17.8011C10.9485 17.8155 10.9333 17.8291 10.9177 17.8418C10.902 17.8546 10.8856 17.8669 10.8687 17.878C10.8523 17.8891 10.8346 17.8994 10.8169 17.9089C10.7992 17.9183 10.7807 17.9269 10.7622 17.9348C10.7437 17.9422 10.7248 17.9492 10.7055 17.9549C10.6862 17.9607 10.6668 17.966 10.6471 17.9697C10.6274 17.9738 10.6072 17.9767 10.5871 17.9788C10.5669 17.9808 10.5468 17.982 10.5266 17.982C10.5065 17.982 10.4859 17.9808 10.4658 17.9788C10.446 17.9767 10.4259 17.9738 10.4061 17.9697C10.3864 17.966 10.3667 17.9607 10.3473 17.9549C10.3284 17.9492 10.3091 17.9422 10.2906 17.9348C10.2721 17.9269 10.2536 17.9183 10.2359 17.9089C10.2182 17.8994 10.201 17.8891 10.1841 17.878C10.1673 17.8669 10.1508 17.8546 10.1356 17.8418C10.1196 17.8291 10.1048 17.8155 10.0904 17.8011C10.076 17.7871 10.0624 17.7719 10.0497 17.7563C10.0369 17.7407 10.025 17.7242 10.0139 17.7074C10.0028 17.6909 9.99209 17.6732 9.98263 17.6556C9.97317 17.6379 9.96454 17.6194 9.95714 17.6009C9.94932 17.5824 9.94233 17.5635 9.93658 17.5441C9.93082 17.5248 9.92589 17.5051 9.92177 17.4857C9.91766 17.466 9.91478 17.4459 9.91273 17.4257C9.91067 17.4056 9.90985 17.385 9.90985 17.3653C9.90985 17.3451 9.91067 17.3246 9.91273 17.3044C9.91478 17.2843 9.91766 17.2641 9.92177 17.2444C9.92589 17.2251 9.93082 17.2053 9.93658 17.186C9.94233 17.1667 9.94932 17.1478 9.95714 17.1293C9.96454 17.1107 9.97317 17.0922 9.98263 17.0746C9.99209 17.0569 10.0028 17.0392 10.0139 17.0228C10.025 17.0059 10.0369 16.9895 10.0497 16.9738C10.0624 16.9582 10.076 16.943 10.0904 16.929C10.1048 16.9146 10.1196 16.901 10.1356 16.8883C10.1508 16.8756 10.1673 16.8636 10.1841 16.8521C10.201 16.841 10.2182 16.8307 10.2359 16.8213C10.2536 16.8118 10.2721 16.8032 10.2906 16.7958C10.3091 16.788 10.3284 16.781 10.3473 16.7752C10.3667 16.7695 10.3864 16.7645 10.4061 16.7604C10.4259 16.7563 10.446 16.7534 10.4658 16.7514C10.5061 16.7473 10.5468 16.7473 10.5871 16.7514C10.6072 16.7534 10.6274 16.7563 10.6471 16.7604C10.6668 16.7645 10.6862 16.7695 10.7055 16.7752C10.7248 16.781 10.7437 16.788 10.7622 16.7958C10.7807 16.8032 10.7992 16.8118 10.8169 16.8213C10.8346 16.8307 10.8523 16.841 10.8687 16.8521C10.8856 16.8636 10.902 16.8756 10.9177 16.8883C10.9333 16.901 10.9485 16.9146 10.9625 16.929C10.9769 16.943 10.9904 16.9582 11.0032 16.9738C11.0159 16.9895 11.0283 17.0059 11.0394 17.0228C11.0505 17.0392 11.0608 17.0569 11.0702 17.0746C11.0797 17.0922 11.0883 17.1107 11.0961 17.1293C11.1035 17.1478 11.1105 17.1667 11.1163 17.186C11.1224 17.2053 11.1274 17.2251 11.1311 17.2444C11.1352 17.2641 11.1381 17.2843 11.1401 17.3044C11.1422 17.3246 11.1434 17.3451 11.1434 17.3653C11.1434 17.385 11.1422 17.4056 11.1401 17.4257Z"/>
        </g>

    </symbol>

    <symbol id="icon-005-toilet" viewBox="0 0 20 22">
        <path d="M10.2298 12.0344C10.1179 12.0344 10.0268 11.9438 10.0268 11.8325V4.02768C10.0268 3.2278 9.37548 2.57697 8.57495 2.57697H6.90821V1.17139C6.90821 0.52442 6.38379 0 5.73682 0H5.73152C5.08454 0 4.56012 0.52442 4.56012 1.17139V2.57697H3.91733C3.11664 2.57697 2.46533 3.2278 2.46533 4.02768V9.10147C2.46533 10.4494 3.03119 11.7497 4.01787 12.6691C4.75495 13.3563 5.17786 14.3278 5.17786 15.3346V18.5855H13.8116C13.9583 17.5796 14.3788 17.0189 15.2567 16.6096C16.9681 15.8116 18.0739 14.0776 18.0739 12.1921V12.0342H10.2298V12.0344Z"  />
        <path d="M14.3192 19.8191H4.6703C4.32979 19.8191 4.05353 20.0952 4.05353 20.4359C4.05353 20.7765 4.32979 21.0526 4.6703 21.0526H14.3192C14.6598 21.0526 14.9359 20.7765 14.9359 20.4359C14.9359 20.0952 14.6598 19.8191 14.3192 19.8191Z"  />
        <path d="M18.4737 8.76899H11.2668V10.8024H18.4737C19.0351 10.8024 19.4901 10.3472 19.4901 9.7857C19.4901 9.22418 19.0351 8.76899 18.4737 8.76899Z"  />
        <path d="M2.74033 14.031C2.06814 14.031 1.52139 14.5774 1.52139 15.249V17.3916C1.52139 18.0634 2.06814 18.6096 2.74033 18.6096H3.94433V15.1928C3.94433 14.784 3.8388 14.3841 3.64461 14.031H2.74033Z"  />

    </symbol>

    <symbol id="icon-006-hand-dryer" viewBox="0 0 20 20">
        <path d="M6.11636 10.2671C6.73373 10.0068 7.10162 9.5274 7.10162 8.98495C7.10162 8.4425 6.73373 7.96291 6.11636 7.7026C5.81821 7.5761 5.47488 7.71572 5.349 8.01449C5.22311 8.31249 5.36273 8.65643 5.66074 8.7817C5.86963 8.87051 5.92685 8.96664 5.93036 8.98373C5.92685 9.00326 5.86963 9.09939 5.66028 9.18804C5.04398 9.44897 4.67548 9.9284 4.67548 10.4702C4.67548 11.0128 5.04398 11.4923 5.66028 11.7532C5.95554 11.8782 6.3013 11.7427 6.4281 11.4419C6.55399 11.1438 6.41498 10.7998 6.11682 10.6741C5.90747 10.5853 5.85025 10.4887 5.84735 10.4715C5.85025 10.4525 5.90747 10.3558 6.11636 10.2671Z"  />
        <path d="M9.04605 10.2671C9.66342 10.0068 10.0313 9.5274 10.0313 8.98495C10.0313 8.4425 9.66342 7.96291 9.04605 7.7026C8.74789 7.5761 8.40457 7.71572 8.27869 8.01449C8.1528 8.31249 8.29242 8.65643 8.59042 8.7817C8.79932 8.87051 8.85654 8.96664 8.86005 8.98373C8.85654 9.00326 8.79932 9.09939 8.58997 9.18804C7.97366 9.44897 7.60516 9.9284 7.60516 10.4702C7.60516 11.0128 7.97366 11.4923 8.58997 11.7532C8.88522 11.8782 9.23099 11.7427 9.35779 11.4419C9.48367 11.1438 9.34467 10.7998 9.04651 10.6741C8.83716 10.5853 8.77994 10.4887 8.77704 10.4715C8.77994 10.4525 8.83716 10.3558 9.04605 10.2671Z"  />
        <path d="M0.585938 9.41406H1.17188C1.81915 9.41406 2.34375 8.88931 2.34375 8.24219V0H0.585938C0.262299 0 0 0.262299 0 0.585938V8.82812C0 9.15176 0.262299 9.41406 0.585938 9.41406Z"  />
        <path d="M19.4141 11.7578H18.2422C17.9184 11.7578 17.6562 12.02 17.6562 12.3438V18.2422C17.6562 18.566 17.9184 18.8281 18.2422 18.8281H19.4141C19.7379 18.8281 20 18.566 20 18.2422V12.3438C20 12.02 19.7379 11.7578 19.4141 11.7578Z"  />
        <path d="M16.4844 11.7578H12.6329C10.8533 12.0084 10.1468 12.7405 9.78516 12.9297C9.63654 12.9297 6.85608 12.9297 7.03125 12.9297C6.38397 12.9297 5.85938 13.4543 5.85938 14.1016C5.85938 14.7487 6.38397 15.2734 7.03125 15.2734H11.7188C12.0425 15.2734 12.3047 15.5356 12.3047 15.8594C12.3047 16.1832 12.0425 16.4453 11.7188 16.4453H5.59723C5.47028 16.4453 5.34729 16.4041 5.24597 16.328L2.57813 14.3359C2.07947 13.9757 1.40198 14.0128 0.937501 14.5703C0.550691 15.0859 0.644532 15.8241 1.17188 16.2109L5.40238 19.4141C5.90622 19.7891 6.52741 20 7.16019 20C7.33673 20 11.9466 20 11.7538 20C12.1991 20 12.6563 19.8946 13.0664 19.6953L16.4844 17.9817V11.7578Z"  />
        <path d="M11.7188 6.48438C11.7188 2.93045 8.82736 0 5.27344 0H3.51562V7.07031H11.1328C11.4566 7.07031 11.7188 6.80817 11.7188 6.48438Z"  />

    </symbol>

    <symbol id="icon-007-urinal" viewBox="0 0 20 24">
        <path d="M10 7.58272C8.85899 7.58272 5.69165 11.1822 5.69165 14.8208C5.69165 16.0399 5.69165 16.5441 10 16.5441C14.3084 16.5441 14.3084 16.0399 14.3084 14.8208C14.3084 11.1822 11.141 7.58272 10 7.58272ZM10 12.4081C9.52414 12.4081 9.13834 12.0994 9.13834 11.7187C9.13834 11.338 9.52414 11.0294 10 11.0294C10.4759 11.0294 10.8617 11.338 10.8617 11.7187C10.8617 12.0994 10.4759 12.4081 10 12.4081Z"  />
        <path d="M12.585 3.97698V0.689338C12.585 0.308318 12.1996 0 11.7234 0H8.27666C7.80039 0 7.41499 0.308318 7.41499 0.689338V1.37868H5.69164V0.689338C5.69164 0.308318 5.30625 0 4.82997 0C4.35369 0 3.9683 0.308318 3.9683 0.689338V3.44669C3.9683 3.82771 4.35369 4.13603 4.82997 4.13603C5.30625 4.13603 5.69164 3.82771 5.69164 3.44669V2.75735H7.41499V3.97698C3.30016 5.64591 0.521606 10.9973 0.521606 14.8208C0.521606 20.0144 5.58732 20.6801 10 20.6801C14.4127 20.6801 19.4784 20.0144 19.4784 14.8208C19.4784 10.9973 16.6999 5.64591 12.585 3.97698ZM10 17.9228C4.83836 17.9228 3.9683 16.9655 3.9683 14.8208C3.9683 10.9554 7.29384 6.20404 10 6.20404C12.7062 6.20404 16.0317 10.9554 16.0317 14.8208C16.0317 16.9655 15.1617 17.9228 10 17.9228Z"  />
        <path d="M7.41498 22.8401C7.41498 23.2211 7.80038 23.5294 8.27665 23.5294H11.7233C12.1996 23.5294 12.585 23.2211 12.585 22.8401V22.0588H7.41498V22.8401Z"  />

    </symbol>

    <symbol id="icon-008-mirror" viewBox="0 0 20 24">
        <path d="M19.4991 11.9048C19.4991 11.4441 19.379 10.994 19.1549 10.5976C19.3186 10.2483 19.4038 9.86717 19.4038 9.47335C19.4038 8.72076 19.0793 8.00614 18.5324 7.50751C18.5518 7.37744 18.5616 7.24575 18.5616 7.11278C18.5616 6.19834 18.0826 5.35238 17.3289 4.87101C17.2939 3.57074 16.3197 2.50044 15.0615 2.31552C14.6483 1.36203 13.6973 0.714802 12.6238 0.714802C12.3914 0.714802 12.16 0.745501 11.9364 0.805446C11.4427 0.293187 10.7629 0 10.0294 0C9.2959 0 8.61633 0.293187 8.12242 0.805264C7.89899 0.745501 7.66756 0.714802 7.43523 0.714802C6.36149 0.714802 5.41072 1.36203 4.99746 2.31552C3.73933 2.50044 2.76513 3.57056 2.73007 4.87101C1.9764 5.35238 1.49738 6.19834 1.49738 7.11278C1.49738 7.24575 1.50719 7.37744 1.52663 7.50751C0.979674 8.00614 0.655243 8.72076 0.655243 9.47335C0.655243 9.86717 0.740256 10.2483 0.904107 10.5976C0.679948 10.994 0.559875 11.4441 0.559875 11.9048C0.559875 12.3654 0.679948 12.8156 0.904107 13.2119C0.740256 13.5612 0.655243 13.9424 0.655243 14.3362C0.655243 15.0888 0.979674 15.8034 1.52663 16.302C1.50719 16.4321 1.49738 16.5638 1.49738 16.6967C1.49738 17.6112 1.9764 18.4571 2.73007 18.9385C2.76513 20.239 3.73933 21.3091 4.99746 21.494C5.41072 22.4475 6.36149 23.0947 7.43523 23.0947C7.66756 23.0947 7.89899 23.064 8.12242 23.0043C8.61633 23.5163 9.2959 23.8095 10.0294 23.8095C10.7629 23.8095 11.4427 23.5163 11.9366 23.0043C12.16 23.064 12.3914 23.0947 12.6238 23.0947C13.6975 23.0947 14.6483 22.4475 15.0615 21.494C16.3197 21.3091 17.2939 20.2388 17.3289 18.9385C18.0826 18.4571 18.5616 17.6112 18.5616 16.6967C18.5616 16.564 18.5518 16.4321 18.5325 16.302C19.0793 15.8034 19.4038 15.0888 19.4038 14.3362C19.4038 13.9425 19.3187 13.5612 19.1549 13.2119C19.379 12.8156 19.4991 12.3654 19.4991 11.9048ZM10.0294 20.9494C8.19018 20.9494 6.47665 19.9781 5.20436 18.2146C4.80255 17.6575 4.46031 17.041 4.18166 16.3803C4.09229 16.269 4.04197 16.1367 4.03071 16.0017C3.55914 14.7478 3.30882 13.3513 3.30882 11.9048C3.30882 9.53002 3.98202 7.28916 5.20436 5.59471C6.47665 3.83123 8.19018 2.85993 10.0294 2.85993C11.8686 2.85993 13.5822 3.83123 14.8545 5.59471C16.0768 7.28916 16.75 9.53002 16.75 11.9048C16.75 14.2795 16.0768 16.5204 14.8545 18.2146C13.5822 19.9783 11.8686 20.9494 10.0294 20.9494Z"  />
        <path d="M15.3467 11.9048C15.3467 9.82249 14.7678 7.87318 13.7164 6.41578C13.4287 6.01687 13.1153 5.66992 12.7823 5.37727L4.80798 13.3518C4.86593 13.7861 4.95022 14.2101 5.05939 14.6203L10.0076 9.67208C10.2815 9.39796 10.7259 9.39796 10.9998 9.67208C11.2739 9.94601 11.2739 10.3903 10.9998 10.6643L5.58237 16.0819C5.79835 16.5514 6.0523 16.9914 6.34258 17.3936C7.34385 18.7818 8.6532 19.5462 10.0294 19.5462C11.4058 19.5462 12.7149 18.7818 13.7164 17.3936C14.7678 15.9364 15.3467 13.987 15.3467 11.9048Z"  />
        <path d="M4.72174 11.4535L11.5782 4.5969C11.0812 4.37764 10.5604 4.26338 10.0294 4.26338C8.65324 4.26338 7.34389 5.02777 6.34262 6.41596C5.36751 7.76727 4.79912 9.54202 4.72174 11.4535Z"  />

    </symbol>

    <symbol id="icon-009-soap" viewBox="0 0 20 24">
        <path d="M10.3942 6.39418V5.10022C10.3942 4.88366 10.5698 4.70813 10.7863 4.70813H11.9627V3.5318H9.61002V3.92389C9.61002 4.14046 9.43444 4.31599 9.21792 4.31599H7.25736C7.0408 4.31599 6.86527 4.14041 6.86527 3.92389V1.57124C6.86385 1.37182 7.01231 1.20304 7.21031 1.17915L16.6209 0.00282328C16.8359 -0.0231845 17.0313 0.130059 17.0573 0.345015C17.0593 0.361557 17.0602 0.378237 17.0601 0.394917V3.13966C17.0601 3.35623 16.8845 3.53175 16.668 3.53175H14.3153V4.70808H15.4916C15.7082 4.70808 15.8837 4.88361 15.8837 5.10017V6.39413C18.3462 7.37439 19.8048 10.2446 19.8048 12.5502V23.1372C19.8048 23.3537 19.6293 23.5292 19.4127 23.5292H6.86522C6.64866 23.5292 6.47313 23.3537 6.47313 23.1372V12.5502C6.47313 10.2447 7.93178 7.37839 10.3942 6.39418ZM17.8286 11.2445L17.8247 11.2485C17.3895 9.93882 16.9425 9.12321 15.7112 8.29978C15.5382 8.1696 15.2924 8.20439 15.1622 8.37744C15.032 8.55048 15.0668 8.79632 15.2398 8.9265C15.2514 8.93523 15.2635 8.94327 15.276 8.95067C16.3229 9.6486 16.6954 10.327 17.0836 11.4915C17.1519 11.6972 17.374 11.8087 17.5797 11.7405C17.7853 11.6723 17.8968 11.4503 17.8286 11.2445ZM13.139 20.7062C15.7348 20.7062 17.8443 18.9809 17.8443 16.8635C17.8443 14.7461 15.7348 13.0208 13.139 13.0208C10.5432 13.0208 8.43369 14.7461 8.43369 16.8635C8.43369 18.9809 10.5432 20.7062 13.139 20.7062Z"  />
        <path d="M13.1389 13.8051C15.2995 13.8051 17.06 15.1775 17.06 16.8635C17.06 18.5496 15.2994 19.922 13.1389 19.922C10.9784 19.922 9.21786 18.5496 9.21786 16.8635C9.21786 15.1775 10.9784 13.8051 13.1389 13.8051Z"  />
        <path d="M5.26144 6.03347C5.89849 5.90821 6.49337 5.62355 6.99064 5.20614C7.14922 5.05868 7.39735 5.06769 7.54481 5.22626C7.62605 5.31362 7.66308 5.43322 7.64548 5.55118C7.32787 7.57446 6.53973 8.60963 5.29282 8.6253C4.41448 8.6253 3.72439 8.10772 3.72439 7.44897C3.7283 6.45695 4.53606 6.23345 5.26144 6.03347Z"  />

    </symbol>

    <symbol id="icon-010-frame" viewBox="0 0 20 20">
        <rect y="1.5" width="20" height="1"/>
        <rect x="6.8" width="1.4" height="3.4"/>
        <rect x="10.8" width="1.4" height="3.4"/>
        <rect x="14.9" width="1.4" height="3.4"/>
        <path d="M4.7,17.3V9.1H0.3v2.7c0,4.4,2,6.4,2.7,6.8C3.6,18.9,4.4,17.8,4.7,17.3z"/>
        <path d="M3.2,19c-0.1,0-0.2,0-0.3-0.1c-0.8-0.3-2.9-2.4-2.9-7V8.8h5.1v8.6v0.1C4.9,17.7,4.1,19,3.2,19z M0.7,9.5v2.4
	c0,4.3,2,6.2,2.5,6.5c0.2,0.1,0.7-0.4,1.2-1.1V9.5H0.7z"/>
        <rect x="6.1" y="3.4" width="12.2" height="15.6"/>
    </symbol>

    <symbol id="icon-011-tap" viewBox="0 0 20 20">
        <path d="M18.3333 6.66669H18.27L7 8.92669V8.16669C7 8.07466 6.92539 8.00001 6.83332 8.00001H0.16668C0.0746094 8.00001 0 8.07462 0 8.16669V17.8334C0 17.9254 0.0746094 18 0.16668 18H6.83336C6.92539 18 7.00004 17.9254 7.00004 17.8334V14.2234L16 10.53V11.3334C16 11.5175 16.1493 11.6667 16.3334 11.6667H19C19.1841 11.6667 19.3333 11.5175 19.3333 11.3334V9.16337L19.7933 8.97337C19.9178 8.92223 19.9993 8.80126 20 8.66669C20 7.80669 19.8267 6.66669 18.3333 6.66669ZM18.6667 11H16.6667V10.2567L18.6667 9.43669V11Z"  />
        <path d="M6.83332 18.6667H0.16668C0.0746484 18.6667 0 18.7413 0 18.8334V19.6667C0 19.8508 0.149219 20 0.33332 20H6.66664C6.85074 20 6.99996 19.8508 6.99996 19.6667V18.8334C7 18.7413 6.92539 18.6667 6.83332 18.6667Z"  />
        <path d="M0.16668 7.33235H6.83336C6.92539 7.33235 7.00004 7.25774 7.00004 7.16567V5.66567C7.00004 4.18899 11.06 1.99899 16.6667 1.99899C17.0534 1.99899 17.3334 1.57899 17.3334 0.998993C17.3334 0.418993 17.0534 -0.00100708 16.6667 -0.00100708C8 -0.000968018 0 0.565712 0 4.66571V7.16571C0 7.25774 0.0746094 7.33235 0.16668 7.33235Z"  />
        <path d="M17.9767 12.5433C17.909 12.3721 17.7153 12.2882 17.5441 12.3559C17.4584 12.3897 17.3905 12.4576 17.3567 12.5433C17.2433 12.8233 17.0667 13.19 16.8767 13.5767C16.1567 15.0433 15.2633 16.87 15.9233 17.93C16.23 18.4167 16.8167 18.6667 17.6667 18.6667C18.5167 18.6667 19.1033 18.4167 19.41 17.93C20.0767 16.87 19.1767 15.0433 18.4567 13.5767C18.2667 13.1867 18.0867 12.8233 17.9767 12.5433ZM19 17C19 17.3682 18.7015 17.6667 18.3333 17.6667C18.1492 17.6667 18 17.5175 18 17.3334C18 17.1493 18.1492 17.0001 18.3333 17.0001C18.3333 16.816 18.4825 16.6667 18.6666 16.6667C18.8507 16.6667 19 16.8159 19 17Z"  />

    </symbol>

    <symbol id="icon-012-shower-1" viewBox="0 0 20 20">
        <path d="M13.9724 6.02779C13.7442 5.79959 13.3724 5.7992 13.1438 6.02779C12.9152 6.25638 12.9156 6.62822 13.1438 6.85642C13.372 7.08462 13.7438 7.08501 13.9724 6.85642C14.201 6.62783 14.2006 6.25599 13.9724 6.02779Z"  />
        <path d="M18.1156 1.88467C15.603 -0.627947 11.5136 -0.628377 9.00058 1.88467C6.48757 4.39772 6.48796 8.48709 9.00058 10.9997C11.5132 13.5123 15.6026 13.5128 18.1156 10.9997C20.6286 8.48666 20.6282 4.39733 18.1156 1.88467ZM17.0738 5.85627C17.3973 5.85623 17.6596 6.1185 17.6596 6.44213C17.6596 6.7658 17.3973 7.02811 17.0737 7.02811C16.75 7.02807 16.4877 6.76576 16.4878 6.44225C16.4878 6.11858 16.7501 5.85627 17.0738 5.85627ZM16.4583 3.54197C16.6871 3.77076 16.6872 4.14174 16.4583 4.37061C16.2295 4.5994 15.8585 4.5994 15.6297 4.37061C15.4009 4.14182 15.4009 3.77076 15.6297 3.54197C15.8585 3.31311 16.2295 3.31315 16.4583 3.54197ZM10.6578 4.37061C10.4291 4.14182 10.4291 3.77076 10.6578 3.54197C10.8867 3.31311 11.2577 3.31319 11.4865 3.54197C11.7153 3.77076 11.7153 4.14174 11.4865 4.37061C11.2577 4.5994 10.8866 4.5994 10.6578 4.37061ZM10.0424 7.02807C9.71886 7.02811 9.45659 6.76584 9.45655 6.44221C9.45651 6.11858 9.71886 5.85623 10.0425 5.85627C10.3661 5.85631 10.6284 6.11862 10.6283 6.44213C10.6284 6.7658 10.366 7.02815 10.0424 7.02807ZM13.558 3.51248C13.2345 3.51252 12.9722 3.25026 12.9722 2.92662C12.9722 2.60295 13.2345 2.34065 13.5582 2.34065C13.8818 2.34069 14.1441 2.60299 14.144 2.92651C14.144 3.25018 13.8817 3.51248 13.558 3.51248ZM10.6578 9.34244C10.4291 9.11365 10.4291 8.7426 10.6578 8.51381C10.8867 8.28494 11.2577 8.28502 11.4865 8.51381C11.7153 8.7426 11.7153 9.11358 11.4865 9.34244C11.2577 9.57127 10.8866 9.57127 10.6578 9.34244ZM12.3151 7.68518C11.6297 6.99979 11.6297 5.88467 12.3151 5.19924C13.0005 4.51381 14.1156 4.51385 14.801 5.19924C15.4864 5.88463 15.4864 6.99975 14.801 7.68518C14.1156 8.37057 13.0005 8.37057 12.3151 7.68518ZM13.5581 10.5437C13.2344 10.5437 12.9721 10.2814 12.9722 9.95787C12.9722 9.63424 13.2345 9.3719 13.5582 9.37194C13.8817 9.3719 14.144 9.63416 14.144 9.9578C14.1441 10.2814 13.8817 10.5438 13.5581 10.5437ZM15.6297 9.34244C15.4009 9.11365 15.4009 8.7426 15.6297 8.51381C15.8585 8.28494 16.2295 8.28502 16.4583 8.51381C16.6871 8.7426 16.6872 9.11358 16.4583 9.34244C16.2295 9.57127 15.8585 9.57127 15.6297 9.34244Z"  />
        <path d="M6.51572 9.34125L4.44287 11.4141L8.58607 15.5573L10.6589 13.4845C9.75377 13.1133 8.90561 12.5623 8.17174 11.8284C7.43787 11.0946 6.88689 10.2464 6.51572 9.34125Z"  />
        <path d="M3.19998 12.657C2.19962 13.6574 2.07552 15.2069 2.82759 16.344L0.17189 18.9997C-0.0571338 19.2287 -0.0571338 19.5993 0.17189 19.8283C0.400913 20.0573 0.771538 20.0573 1.00052 19.8283L3.65623 17.1726C4.7933 17.9247 6.34283 17.8006 7.34318 16.8002L7.75751 16.3859L3.61431 12.2427L3.19998 12.657Z"  />

    </symbol>

    <symbol id="icon-013-frame" viewBox="0 0 20 20">
        <path d="M0,0v20h20V0H0z M1.9,0.7C2.5,0.7,3,1.2,3,1.9S2.5,3,1.9,3S0.7,2.5,0.7,1.9S1.2,0.7,1.9,0.7z M1.9,19.3
	c-0.6,0-1.1-0.5-1.1-1.1S1.2,17,1.9,17S3,17.5,3,18.1S2.5,19.3,1.9,19.3z M10,18.5c-4.7,0-8.5-3.8-8.5-8.5c0-4.7,3.8-8.5,8.5-8.5
	c4.7,0,8.5,3.8,8.5,8.5C18.5,14.7,14.7,18.5,10,18.5z M18.1,19.3c-0.6,0-1.1-0.5-1.1-1.1s0.5-1.1,1.1-1.1s1.1,0.5,1.1,1.1
	S18.8,19.3,18.1,19.3z M18.1,3C17.5,3,17,2.5,17,1.9s0.5-1.1,1.1-1.1s1.1,0.5,1.1,1.1S18.8,3,18.1,3z"/>
        <g>
            <path d="M10,2.2c-4.3,0-7.8,3.5-7.8,7.8c0,4.3,3.5,7.8,7.8,7.8c4.3,0,7.8-3.5,7.8-7.8C17.8,5.7,14.3,2.2,10,2.2z
		 M5.6,4.4h8.9c0.6,0,1.1,0.5,1.1,1.1s-0.5,1.1-1.1,1.1H5.6c-0.6,0-1.1-0.5-1.1-1.1S4.9,4.4,5.6,4.4z M4.8,7.4h10.4
		c0.6,0,1.1,0.5,1.1,1.1s-0.5,1.1-1.1,1.1H4.8c-0.6,0-1.1-0.5-1.1-1.1S4.2,7.4,4.8,7.4z M14.4,15.6H5.6c-0.6,0-1.1-0.5-1.1-1.1
		c0-0.6,0.5-1.1,1.1-1.1h8.9c0.6,0,1.1,0.5,1.1,1.1C15.6,15.1,15.1,15.6,14.4,15.6z M15.2,12.6H4.8c-0.6,0-1.1-0.5-1.1-1.1
		c0-0.6,0.5-1.1,1.1-1.1h10.4c0.6,0,1.1,0.5,1.1,1.1C16.3,12.1,15.8,12.6,15.2,12.6z"/>
            <path d="M14.4,14.1H5.6c-0.2,0-0.4,0.2-0.4,0.4s0.2,0.4,0.4,0.4h8.9c0.2,0,0.4-0.2,0.4-0.4S14.6,14.1,14.4,14.1z"/>
            <path d="M4.8,8.9h10.4c0.2,0,0.4-0.2,0.4-0.4s-0.2-0.4-0.4-0.4H4.8c-0.2,0-0.4,0.2-0.4,0.4S4.6,8.9,4.8,8.9z"/>
            <path d="M5.6,5.9h8.9c0.2,0,0.4-0.2,0.4-0.4s-0.2-0.4-0.4-0.4H5.6c-0.2,0-0.4,0.2-0.4,0.4S5.4,5.9,5.6,5.9z"/>
            <path d="M15.2,11.1H4.8c-0.2,0-0.4,0.2-0.4,0.4s0.2,0.4,0.4,0.4h10.4c0.2,0,0.4-0.2,0.4-0.4S15.4,11.1,15.2,11.1z"
            />
        </g>
    </symbol>

    <symbol id="icon-014-frame" viewBox="0 0 20 20">
        <path d="M19.549 1.34074C19.3034 1.12417 18.9867 1.00564 18.6593 1.00775C18.3378 1.00982 18.0278 1.12811 17.7867 1.34078H16.5411C16.2595 0.544318 15.5075 0.0109867 14.6627 0.00860596H5.33738C4.49139 0.00958168 3.7377 0.543186 3.45568 1.34078H2.21343C1.6616 0.85413 0.819782 0.906975 0.33313 1.45877C-0.153522 2.01056 -0.100716 2.85241 0.451115 3.33907C0.954627 3.78314 1.70992 3.78314 2.21343 3.33907H3.33914V17.9932C3.33914 19.0968 4.2338 19.9915 5.33742 19.9915H11.3323C12.4359 19.9915 13.3306 19.0968 13.3306 17.9932V17.3271H14.6627C15.7664 17.3271 16.661 16.4324 16.661 15.3288V3.33907H17.7867C18.3386 3.82572 19.1804 3.77287 19.667 3.22104C20.1536 2.66921 20.1008 1.82736 19.549 1.34074ZM3.3391 2.67296H2.62639C2.65594 2.56434 2.67163 2.45245 2.67303 2.33993C2.67163 2.2274 2.65594 2.11547 2.62639 2.00689H3.3391V2.67296ZM14.6627 0.674675C15.1382 0.675182 15.5773 0.929027 15.8151 1.34078H13.517C13.7536 0.931095 14.1897 0.677563 14.6627 0.674675ZM15.9949 15.3288C15.9949 16.0645 15.3985 16.661 14.6627 16.661H13.3306V3.33907H15.9949V15.3288H15.9949ZM17.3737 2.67296H13.3306V2.00689H17.3738C17.3442 2.11551 17.3285 2.2274 17.3271 2.33993C17.3285 2.45248 17.3442 2.56438 17.3737 2.67296Z"  />
    </symbol>

    <symbol id="icon-search" viewBox="0 0 36 36">
        <path d="M36,33.2L25.4,22.5c1.8-2.4,2.8-5.3,2.8-8.4C28.2,6.3,21.9,0,14.1,0C6.3,0,0,6.3,0,14.1
	c0,7.8,6.3,14.1,14.1,14.1c3.2,0,6.1-1.1,8.4-2.8L33.2,36L36,33.2z M1.3,14.1c0-7,5.7-12.7,12.7-12.7c7,0,12.8,5.7,12.8,12.7
	c0,7-5.7,12.8-12.8,12.8C7.1,26.9,1.3,21.1,1.3,14.1z"/>
    </symbol>

    <symbol id="icon-phone" viewBox="0 0 59 59">
        <path d="M48.4,40c1.2,0.8,1.5,2.3,0.8,3.5l-2,3.3c-0.6,1.1-1.7,1.9-3,2.3c-1,0.3-2.1,0.4-3.2,0.4
		c-7.5,0-15.2-6.3-20.2-11.4C15.3,32.7,7.5,23.3,9.9,14.8c0.3-1.3,1.2-2.3,2.3-3l3.3-2c1.2-0.7,2.8-0.4,3.5,0.8l5.3,8
		c0.8,1.1,0.5,2.7-0.6,3.5l-3,2.3c-0.3,0.2-0.4,0.6-0.2,0.9l0.2,0.4c1.5,2.7,3.2,4.7,5.4,6.9c2.2,2.2,4.2,3.9,6.9,5.4l0.4,0.2
		c0.3,0.2,0.7,0.1,0.9-0.2l2.3-3c0.8-1.1,2.4-1.3,3.5-0.6L48.4,40z M32.1,24.5c-0.5,0-1-0.4-1-1c0-0.5,0.4-1,1-1
		c2.7,0,4.9,2.2,4.9,4.9c0,0.5-0.4,1-1,1c-0.5,0-1-0.4-1-1C35.1,25.9,33.8,24.5,32.1,24.5z M32.1,20.6c-0.5,0-1-0.4-1-1
		c0-0.5,0.4-1,1-1c4.9,0,8.9,4,8.9,8.9c0,0.5-0.4,1-1,1c-0.5,0-1-0.4-1-1C39.1,23.7,36,20.6,32.1,20.6z M32.1,16.6c-0.5,0-1-0.4-1-1
		c0-0.5,0.4-1,1-1c7.1,0,12.8,5.7,12.8,12.8c0,0.5-0.4,1-1,1c-0.5,0-1-0.4-1-1C43,21.5,38.1,16.6,32.1,16.6z M47.5,42.5
		c0.2-0.3,0.1-0.7-0.2-1l-8-5.3c-0.3-0.2-0.7-0.1-1,0.1l-2.3,3c-0.8,1-2.2,1.3-3.3,0.7l-0.4-0.2c-2.9-1.6-5-3.4-7.4-5.7
		c-2.4-2.4-4.1-4.4-5.7-7.4l-0.2-0.4c-0.6-1.1-0.4-2.6,0.7-3.3l3-2.3c0.3-0.2,0.4-0.6,0.1-1l-5.3-8c-0.2-0.3-0.6-0.4-1-0.2l-3.4,2
		c-0.7,0.4-1.2,1.1-1.4,1.8C9.6,23,17.3,32,22.1,36.9S36,49.4,43.7,47.3c0.8-0.2,1.4-0.7,1.8-1.4L47.5,42.5z"/>
        <path d="M29.5,0C37.6,0,45,3.3,50.4,8.6S59,21.4,59,29.5S55.7,45,50.4,50.4S37.6,59,29.5,59S14,55.7,8.6,50.4
		S0,37.6,0,29.5S3.3,14,8.6,8.6S21.4,0,29.5,0z M48.7,10.3C43.8,5.4,37,2.4,29.5,2.4s-14.3,3-19.2,7.9S2.4,22,2.4,29.5
		c0,7.5,3,14.3,7.9,19.2s11.7,7.9,19.2,7.9s14.3-3,19.2-7.9c4.9-4.9,7.9-11.7,7.9-19.2S53.6,15.2,48.7,10.3z"/>
    </symbol>

    <symbol id="icon-clock" viewBox="0 0 59 59">
        <path d="M30.8,29.1l8,9.1c0.4,0.5,0.3,1.2-0.1,1.5c-0.2,0.2-0.5,0.3-0.7,0.3c-0.4,0-0.7-0.1-0.9-0.4l-8.3-9.4
		c-0.2-0.2-0.3-0.4-0.3-0.7V13.9c0-0.6,0.5-1.1,1.2-1.1c0.6,0,1.2,0.5,1.2,1.1V29.1z"/>
        <path d="M29.5,0C37.6,0,45,3.3,50.4,8.6S59,21.4,59,29.5S55.7,45,50.4,50.4S37.6,59,29.5,59S14,55.7,8.6,50.4
		S0,37.6,0,29.5S3.3,14,8.6,8.6S21.4,0,29.5,0z M48.7,10.3c-4.9-4.9-11.7-8-19.2-8s-14.3,3-19.2,8c-4.9,4.9-8,11.7-8,19.2
		s3,14.3,8,19.2s11.7,7.9,19.2,7.9s14.3-3,19.2-7.9s7.9-11.7,7.9-19.2S53.6,15.2,48.7,10.3z"/>
        <path d="M28.3,57.2v-5.8c0-0.6,0.5-1.2,1.2-1.2c0.6,0,1.2,0.5,1.2,1.2v5.8H28.3z"/>
        <path d="M28.3,1.7v5.8c0,0.6,0.5,1.2,1.2,1.2c0.6,0,1.2-0.5,1.2-1.2V1.7H28.3z"/>
        <path d="M57.2,30.7h-5.8c-0.7,0-1.2-0.5-1.2-1.2c0-0.7,0.5-1.2,1.2-1.2h5.8V30.7z"/>
        <path d="M1.8,30.7h5.8c0.6,0,1.2-0.5,1.2-1.2c0-0.7-0.5-1.2-1.2-1.2H1.8V30.7z"/>
    </symbol>

    <symbol id="icon-user" viewBox="0 0 58 58">
        <path d="M58,29C58,13,45,0,29,0S0,13,0,29c0,8.4,3.6,16,9.4,21.4l0,0l0.9,0.8c0.1,0,0.1,0.1,0.2,0.1
		c0.5,0.4,1,0.8,1.5,1.2c0.2,0.1,0.3,0.2,0.5,0.4c0.6,0.4,1.1,0.8,1.7,1.1c0.1,0.1,0.3,0.1,0.4,0.2c0.6,0.4,1.3,0.7,2,1
		c0.1,0,0.1,0,0.1,0.1c2.2,1,4.6,1.8,7,2.2c0.1,0,0.1,0,0.2,0c0.8,0.1,1.5,0.2,2.3,0.3c0.1,0,0.2,0,0.3,0c0.8,0.1,1.6,0.1,2.4,0.1
		c0.8,0,1.6-0.1,2.3-0.1c0.1,0,0.2,0,0.3,0c0.8-0.1,1.5-0.2,2.3-0.3c0.1,0,0.1,0,0.2,0c2.4-0.4,4.8-1.2,6.9-2.2
		c0.1,0,0.1-0.1,0.2-0.1c0.6-0.3,1.3-0.6,1.9-1c0.2-0.1,0.3-0.2,0.5-0.3c0.6-0.3,1.1-0.7,1.7-1.1c0.2-0.1,0.4-0.3,0.6-0.4
		c0.5-0.3,0.9-0.7,1.4-1c0.1-0.1,0.2-0.1,0.3-0.2l1-0.8l0,0C54.3,45.1,58,37.5,58,29z M2.1,29C2.1,14.2,14.2,2.1,29,2.1
		S55.9,14.2,55.9,29c0,8-3.5,15.2-9,20.1c-0.3-0.2-0.6-0.4-0.9-0.6L37,44.1c-0.8-0.4-1.3-1.2-1.3-2.1v-3.1c0.2-0.3,0.4-0.6,0.7-0.9
		c1.2-1.6,2.1-3.4,2.7-5.4c1.3-0.6,2.2-2,2.2-3.5v-3.7c0-0.9-0.3-1.8-0.9-2.5V18c0.1-0.6,0.3-3.6-2-6.2c-1.9-2.2-5.1-3.3-9.3-3.3
		s-7.4,1.1-9.4,3.3c-2.2,2.5-2,5.6-2,6.2v4.9c-0.6,0.7-0.9,1.6-0.9,2.5v3.7c0,1.2,0.5,2.2,1.4,3c0.8,3.3,2.6,5.9,3.3,6.7v3.1
		c0,0.9-0.5,1.7-1.2,2.1l-8.3,4.6c-0.3,0.1-0.5,0.3-0.8,0.5C5.6,44.1,2.1,36.9,2.1,29z M44.8,50.8c-0.4,0.3-0.7,0.5-1.1,0.8
		c-0.2,0.1-0.4,0.2-0.5,0.3c-0.5,0.3-1,0.6-1.5,0.9c-0.1,0.1-0.2,0.1-0.4,0.2c-1.2,0.6-2.4,1.1-3.7,1.6c0,0-0.1,0-0.1,0
		c-0.7,0.2-1.3,0.4-2,0.6l0,0c-0.7,0.2-1.4,0.3-2.1,0.4c0,0,0,0-0.1,0c-0.6,0.1-1.3,0.2-2,0.2c-0.1,0-0.2,0-0.4,0
		c-0.7,0.1-1.3,0.1-2,0.1s-1.3,0-2-0.1c-0.1,0-0.2,0-0.3,0c-0.7-0.1-1.3-0.1-2-0.2c0,0-0.1,0-0.1,0c-1.4-0.2-2.8-0.6-4.1-1
		c0,0-0.1,0-0.1-0.1c-0.7-0.2-1.3-0.5-2-0.8h0c-0.6-0.3-1.2-0.6-1.8-0.9c-0.1,0-0.1-0.1-0.2-0.1c-0.5-0.3-1.1-0.6-1.6-0.9
		c-0.1-0.1-0.3-0.2-0.5-0.3c-0.5-0.3-1-0.6-1.4-1c0,0-0.1-0.1-0.1-0.1c0,0,0.1-0.1,0.1-0.1l8.3-4.5c1.4-0.8,2.3-2.3,2.3-3.9v-3.8
		l-0.2-0.3c0,0-2.3-2.8-3.2-6.6L20,30.8l-0.4-0.2c-0.5-0.3-0.8-0.9-0.8-1.5v-3.7c0-0.5,0.2-0.9,0.6-1.3l0.4-0.3v-5.9v-0.1
		c0,0-0.3-2.6,1.5-4.6c1.5-1.8,4.1-2.6,7.8-2.6c3.6,0,6.2,0.9,7.7,2.6c1.8,2,1.5,4.6,1.5,4.6v6l0.4,0.3c0.4,0.4,0.6,0.8,0.6,1.3v3.7
		c0,0.8-0.5,1.4-1.2,1.7l-0.5,0.2l-0.2,0.5c-0.6,1.9-1.5,3.7-2.6,5.3c-0.3,0.4-0.5,0.7-0.8,1l-0.3,0.3V42c0,1.7,0.9,3.2,2.5,4
		l8.9,4.5c0.1,0,0.1,0.1,0.2,0.1C45,50.6,44.9,50.7,44.8,50.8z"/>
    </symbol>

    <symbol id="icon-basket" viewBox="0 0 59 59">
        <path d="M26,47.7c0,2.4-2,4.4-4.5,4.4c-2.4,0-4.4-2-4.4-4.5c0-2.4,2-4.4,4.4-4.4C24,43.3,26,45.2,26,47.7z
         M15.6,19H45c0.4,0,0.8,0.2,1.1,0.6c0.3,0.4,0.3,0.8,0.2,1.2l-3.8,11C41.8,33.7,40,35,38,35H18.2l0.4,2.7c0.2,1,1,1.8,2,1.8h20.1
        c0.7,0,1.3,0.6,1.3,1.3c0,0.7-0.6,1.3-1.3,1.3H20.7c-2.3,0-4.3-1.7-4.7-4l-3.3-20.5c-0.2-1-1-1.8-2.1-1.8H6.6
        c-0.7,0-1.3-0.6-1.3-1.3c0-0.7,0.6-1.3,1.3-1.3h4.1c2.3,0,4.3,1.7,4.7,4L15.6,19z M35.6,52.2c-2.5,0-4.4-2-4.5-4.4
        c0-2.5,2-4.5,4.5-4.5c2.5,0,4.4,2,4.4,4.5C40.1,50.2,38.1,52.2,35.6,52.2z M19.8,47.7c0,1,0.8,1.8,1.8,1.8c1,0,1.8-0.8,1.8-1.8
        c0-1-0.8-1.8-1.8-1.8C20.6,45.9,19.8,46.7,19.8,47.7z M43.1,21.7H16.1l1.7,10.7H38c0.9,0,1.7-0.6,2-1.4L43.1,21.7z M35.6,45.9
        c-1,0-1.8,0.8-1.8,1.8c0,1,0.8,1.8,1.8,1.8s1.8-0.8,1.8-1.8C37.4,46.7,36.6,45.9,35.6,45.9z"/>

        <path d="M25.3,47.7c0-2.1-1.7-3.8-3.8-3.8c-2.1,0-3.8,1.7-3.8,3.8c0,2.1,1.7,3.8,3.8,3.8
		C23.7,51.5,25.3,49.8,25.3,47.7z M6.6,15.2h4.1c1.4,0,2.5,1,2.7,2.3L16.6,38c0.3,2,2,3.5,4,3.5h20.1c0.4,0,0.7-0.3,0.7-0.7
		c0-0.4-0.3-0.7-0.7-0.7H20.7c-1.3,0-2.5-1-2.7-2.3l-0.6-3.5H38c1.7,0,3.3-1.1,3.9-2.8l3.8-11c0.1-0.2,0-0.4-0.1-0.6
		c-0.1-0.2-0.3-0.3-0.5-0.3H15.1l-0.4-2.4c-0.3-2-2-3.5-4-3.5H6.6c-0.4,0-0.7,0.3-0.7,0.7C5.9,14.9,6.2,15.2,6.6,15.2L6.6,15.2z
		 M44.1,21l-3.5,10.1C40.2,32.3,39.1,33,38,33H17.2l-1.9-12H44.1z M35.6,51.5c2.1,0,3.8-1.7,3.8-3.8c0-2.1-1.7-3.8-3.8-3.8
		c-2.1,0-3.8,1.7-3.8,3.8C31.8,49.8,33.5,51.5,35.6,51.5z M35.6,45.2c1.3,0,2.4,1.1,2.4,2.4c0,1.4-1.1,2.5-2.4,2.5s-2.4-1.1-2.4-2.4
		C33.2,46.3,34.3,45.2,35.6,45.2z M19.1,47.7c0-1.4,1.1-2.5,2.4-2.5c1.4,0,2.5,1.1,2.5,2.4c0,1.4-1.1,2.5-2.5,2.5
		C20.2,50.2,19.1,49.1,19.1,47.7z"/>
        <path d="M29.5,0C37.6,0,45,3.3,50.4,8.6S59,21.4,59,29.5S55.7,45,50.4,50.4S37.6,59,29.5,59S14,55.7,8.6,50.4
		S0,37.6,0,29.5S3.3,14,8.6,8.6S21.4,0,29.5,0z M48.7,10.3C43.8,5.4,37,2.4,29.5,2.4s-14.3,3-19.2,7.9S2.4,22,2.4,29.5
		s3,14.3,7.9,19.2s11.7,7.9,19.2,7.9s14.3-3,19.2-7.9s7.9-11.7,7.9-19.2S53.6,15.2,48.7,10.3z"/>
    </symbol>

    <symbol id="icon-email" viewBox="0 0 31 24">
        <path d="M27.3,0.2H3.7C1.6,0.2,0,1.8,0,3.8v16.5c0,1.9,1.6,3.5,3.7,3.5h23.6c2,0,3.7-1.6,3.7-3.5V3.8
			C31,1.8,29.4,0.2,27.3,0.2z M27.3,20.6H3.7c-0.3,0-0.6-0.2-0.6-0.4V5.9l10.7,9c0.2,0.2,0.5,0.3,0.8,0.3h1.8c0.3,0,0.5-0.1,0.8-0.3
			l10.7-9v14.3C27.9,20.5,27.6,20.6,27.3,20.6z M15.5,12.2L5.1,3.4h20.8L15.5,12.2z"/>
    </symbol>

    <symbol id="icon-shop" viewBox="0 0 30 27">
        <path d="M28.3,0.2H1.7v3.3h26.7V0.2z M30,16.8v-3.3l-1.7-8.3H1.7L0,13.5v3.3h1.7v10h16.7v-10H25v10h3.3v-10H30zM15,23.5H5v-6.7h10V23.5z"/>
    </symbol>

    <symbol id="icon-phone-2" viewBox="0 0 28 28">
        <path d="M21.3,18.5c-0.9-0.9-2-0.9-2.9,0c-0.7,0.7-1.4,1.4-2.1,2.1c-0.2,0.2-0.3,0.2-0.5,0.1
					c-0.5-0.2-0.9-0.4-1.4-0.7c-2-1.3-3.7-2.9-5.2-4.7c-0.7-0.9-1.4-1.9-1.9-3c-0.1-0.2-0.1-0.4,0.1-0.5c0.7-0.7,1.4-1.4,2-2
					c1-1,1-2.1,0-3.1C8.9,6.1,8.4,5.6,7.8,5C7.2,4.5,6.7,3.9,6.1,3.4c-0.9-0.9-2-0.9-2.9,0c-0.7,0.7-1.4,1.4-2.1,2
					c-0.7,0.7-1,1.4-1,2.3c-0.1,1.5,0.2,2.8,0.7,4.2c1,2.7,2.6,5.2,4.5,7.5c2.6,3,5.6,5.5,9.2,7.2c1.6,0.8,3.3,1.4,5.1,1.5
					c1.2,0.1,2.3-0.3,3.2-1.2c0.6-0.7,1.3-1.3,1.9-1.9c0.9-0.9,1-2.1,0-3C23.5,20.7,22.4,19.6,21.3,18.5z"/>
        <path d="M20.2,13.9l2.1-0.4c-0.3-2-1.3-3.8-2.7-5.2c-1.5-1.5-3.4-2.4-5.5-2.7l-0.3,2.2c1.6,0.2,3.1,0.9,4.3,2.1
					C19.2,11,19.9,12.3,20.2,13.9z"/>
        <path d="M23.6,4.5C21,2,17.9,0.5,14.5,0l-0.3,2.2c3,0.4,5.7,1.8,7.9,3.9c2,2,3.4,4.6,3.8,7.4l2.2-0.3
					C27.4,9.9,25.9,6.9,23.6,4.5z"/>
    </symbol>

    <symbol id="icon-delivery" viewBox="0 0 39 26">
        <path d="M39,13.4C39,13.4,39,13.4,39,13.4c0-0.5-0.4-0.9-0.9-0.9h-0.2l-3.6-7.1C34.1,5.1,33.8,5,33.4,5h-6.2
			l0.2-1.9c0.1-0.7-0.2-1.5-0.7-2c-0.5-0.5-1.2-0.8-1.9-0.8H5.6c-0.5,0-0.9,0.4-1,0.9L4.5,2.7h11c0.7,0,1.3,0.6,1.3,1.3
			c0,0.7-0.6,1.3-1.3,1.3h-3.7l0,0H0.9C0.4,5.2,0,5.6,0,6.2c0,0.5,0.4,0.9,0.9,0.9h14.3c0.7,0.1,1.2,0.7,1.1,1.4
			c0,0.7-0.7,1.4-1.4,1.4H5c-0.5,0-0.9,0.4-0.9,0.9c0,0.5,0.4,0.9,0.9,0.9h9.7c0.7,0.1,1.2,0.7,1.2,1.4c0,0.8-0.7,1.4-1.4,1.4H3.3
			l0,0H2.4c-0.5,0-0.9,0.4-1,0.9c0,0.5,0.4,0.9,0.9,0.9h0.8l-0.3,3.3c-0.1,0.7,0.1,1.5,0.6,2c0.5,0.5,1.2,0.8,1.9,0.8h0.7
			c0.3,1.9,2,3.4,4,3.4c2,0,3.7-1.4,4.2-3.4h8.7c0.7,0,1.4-0.3,1.9-0.7c0.5,0.4,1.1,0.7,1.8,0.7h0.1c0.3,1.9,2,3.4,4,3.4
			c2,0,3.7-1.4,4.2-3.4h0.6c1.5,0,2.8-1.2,3-2.7L39,13.4C39,13.5,39,13.5,39,13.4L39,13.4L39,13.4z M10.1,23.9
			c-1.3,0-2.3-1.1-2.2-2.3c0-1.3,1.1-2.3,2.4-2.3s2.3,1.1,2.2,2.3C12.5,22.8,11.4,23.9,10.1,23.9z M30.8,23.9
			c-1.3,0-2.3-1.1-2.2-2.3c0-1.3,1.1-2.3,2.4-2.3s2.3,1.1,2.2,2.3C33.1,22.8,32.1,23.9,30.8,23.9z M36.6,19.6c0,0.5-0.5,1-1.1,1
			h-0.6c-0.4-1.8-2-3.1-3.9-3.1s-3.6,1.3-4.1,3.1h-0.2c-0.2,0-0.4-0.1-0.6-0.2c-0.2-0.2-0.2-0.4-0.2-0.6l1.2-12.9h2.7l-0.4,4.7
			c-0.1,0.7,0.2,1.5,0.6,2c0.5,0.6,1.2,0.8,1.9,0.8h5.2L36.6,19.6z"/>
    </symbol>

    <symbol id="icon-pay" viewBox="0 0 25 25">
        <path d="M16.7,1.9c0.1,0,0.2-0.1,0.2-0.1s0.2,0,0.3,0.1l2.4,3.2h2.1L18.5,1c-0.6-0.8-1.9-1.1-2.8-0.4l-1.1,0.8
						l1,1.4L16.7,1.9z"/>
        <path d="M11,1.9c0.1,0,0.1-0.1,0.2-0.1c0,0,0.2,0,0.3,0.1l2.4,3.2h2.1L12.8,1c-0.7-0.8-1.9-1.1-2.8-0.4L3.6,5.2
						h2.8L11,1.9z"/>
        <path d="M13.4,15.9c0-2.1,1.7-3.7,3.7-3.7h6.3V8.4c0-0.8-0.7-1.5-1.5-1.5H1.5C0.7,6.9,0,7.6,0,8.4v14.9
						c0,0.9,0.7,1.5,1.5,1.5h20.3c0.8,0,1.5-0.7,1.5-1.5v-3.7h-6.3C15.1,19.5,13.4,17.9,13.4,15.9z"/>
        <path d="M24.2,13.4h-7.1c-1.3,0-2.4,1.1-2.4,2.5c0,1.3,1.1,2.4,2.4,2.4h7.1c0.4,0,0.8-0.4,0.8-0.8v-3.3
						C25,13.8,24.6,13.4,24.2,13.4z"/>
    </symbol>

    <symbol id="icon-point" viewBox="0 0 24 29">
        <path d="M12,0C5.6,0,0.4,5.2,0.4,11.6c0,0.7,0.1,1.5,0.2,2.1c0,0,0,0.2,0.1,0.4c0.2,0.8,0.4,1.6,0.8,2.3
					c1.2,2.9,4,7.5,10.1,12.3c0.1,0.1,0.3,0.2,0.5,0.2c0.2,0,0.3-0.1,0.5-0.2c6-4.9,8.8-9.4,10.1-12.3c0.3-0.7,0.6-1.5,0.8-2.3
					c0-0.2,0-0.3,0.1-0.4c0.1-0.7,0.2-1.5,0.2-2.1C23.6,5.2,18.4,0,12,0z M21.8,13.5L21.8,13.5c0,0,0,0.1-0.1,0.3l0,0
					c-0.1,0.7-0.4,1.3-0.7,2c0,0,0,0,0,0c-1.1,2.7-3.6,6.8-9,11.3C6.6,22.6,4.1,18.5,3,15.9c0,0,0,0,0,0c-0.3-0.6-0.5-1.3-0.7-2l0,0
					c0-0.2,0-0.3,0-0.3h0C2.1,12.9,2,12.2,2,11.6c0-5.5,4.5-10,10-10c5.5,0,10,4.5,10,10C22,12.2,21.9,12.9,21.8,13.5z"/>
        <path d="M12,4.4c-4.1,0-7.4,3.3-7.4,7.3c0,4.1,3.3,7.4,7.4,7.4c4,0,7.3-3.3,7.3-7.4C19.4,7.7,16.1,4.4,12,4.4z
					 M12,17.5c-3.2,0-5.8-2.6-5.8-5.8C6.3,8.6,8.8,6,12,6c3.1,0,5.7,2.6,5.7,5.7C17.7,14.9,15.2,17.5,12,17.5z"/>
    </symbol>

    <symbol id="icon-" viewBox="0 0 0 0">

    </symbol>

</svg>