<?xml version="1.0" encoding="UTF-8"?>
<!DOCTYPE svg PUBLIC "-//W3C//DTD SVG 1.0//EN" "http://www.w3.org/TR/2001/REC-SVG-20010904/DTD/svg10.dtd">
<!-- Creator: CorelDRAW X8 -->
<svg xmlns="http://www.w3.org/2000/svg" xml:space="preserve" width="65px" height="65px" version="1.0" shape-rendering="geometricPrecision" text-rendering="geometricPrecision" image-rendering="optimizeQuality" fill-rule="evenodd" clip-rule="evenodd"
viewBox="0 0 4561 4530"
 xmlns:xlink="http://www.w3.org/1999/xlink">
 <g id="Слой_x0020_1">
  <metadata id="CorelCorpID_0Corel-Layer"/>
  <path fill="#8F493D" d="M4332 3596c31,-61 47,-129 47,-198 0,-251 -203,-453 -453,-453l-29 0c-38,0 -77,5 -114,14 -162,41 -328,61 -495,61l-234 0c-168,0 -336,-21 -499,-62 -36,-9 -73,-13 -110,-13l-29 0c-51,0 -103,9 -151,27l0 -707 -4 0c-28,-421 -289,-792 -676,-962l0 -548 -226 0 0 -302 226 0 0 -151 454 0c41,0 75,34 75,76l0 151 151 0 0 -151c0,-126 -101,-227 -226,-227l-454 0 0 -151 -905 0 0 453 226 0 0 302 -226 0 0 548c-387,170 -648,541 -676,962l-4 0 0 2039c0,125 101,226 226,226l1813 0c66,0 130,-30 172,-81 84,53 181,81 281,81l1359 0c262,0 485,-193 522,-453l24 0 0 -10c-15,6 -32,10 -50,10l-131 0c-35,173 -187,303 -365,302l-1359 -4c-95,0 -186,-59 -255,-123 -17,-16 -33,-34 -48,-53 -4,-6 -7,-12 -11,-18 -10,-14 -18,-29 -26,-44 -3,-7 -6,-13 -9,-19 -5,-14 -10,-27 -14,-41l-222 0c-37,0 -71,-16 -95,-41l0 41 157 0c0,4 1,8 2,11 3,18 7,36 12,53 1,5 2,10 4,15 6,21 15,43 24,63 2,5 4,9 7,14 8,16 17,32 26,47 4,6 7,11 11,17 12,19 26,37 41,54l0 0c-14,18 -35,28 -57,28l0 0 -1813 0c-41,0 -75,-34 -75,-75l0 -378 1625 0 0 -152 -1625 0 0 -1358 1963 0 0 646c-2,1 -4,3 -5,5 -6,5 -11,10 -16,15 -7,7 -13,14 -20,21 -4,6 -9,11 -13,17 -6,7 -12,15 -17,23 -4,6 -8,12 -12,18 -5,8 -10,16 -14,24 -4,6 -7,13 -10,19 -4,9 -7,18 -11,26 -3,7 -6,13 -8,20 -3,9 -6,19 -9,28 -1,7 -3,13 -5,19 -2,11 -4,22 -5,33 -1,6 -2,11 -3,17 -2,16 -3,33 -3,50 0,19 1,38 4,57 1,6 2,12 3,18 2,12 4,25 7,37 2,7 4,13 7,20 3,11 7,22 11,33 3,7 6,14 9,20l6 14 182 0c-50,-54 -78,-125 -78,-200 0,-94 45,-183 121,-239l0 0c52,-39 116,-61 181,-61l29 0c26,0 52,3 78,10 173,43 352,65 531,65l234 0c181,0 361,-22 536,-66 24,-6 48,-9 73,-9l29 0c167,0 302,135 302,302 0,0 0,0 0,0 0,73 -27,144 -76,198l180 0zm-3502 -3294l0 -151 605 0 0 151 -605 0zm227 151l151 0 0 302 -151 0 0 -302zm-227 755l0 -302 605 0 0 302 -605 0zm303 151c512,1 938,395 978,906l-1957 0c40,-511 466,-905 979,-906l0 0zm694 2264l-15 0 0 14c5,-5 10,-9 15,-14z"/>
  <rect fill="#8F493D" x="604" y="2567" width="1057" height="151"/>
  <rect fill="#8F493D" x="906" y="2869" width="453" height="151"/>
  <rect fill="#8F493D" x="755" y="3171" width="755" height="151"/>
  <rect fill="#8F493D" x="604" y="3473" width="453" height="151"/>
  <rect fill="#8F493D" x="1208" y="3473" width="453" height="151"/>
  <path fill="#8F493D" fill-rule="nonzero" d="M1693 3946l0 -218c0,-59 24,-113 63,-151 39,-39 93,-63 151,-63l2440 0c59,0 112,24 151,63 39,39 63,92 63,151l0 218c0,58 -24,112 -63,150 -38,39 -92,63 -151,63l-2440 0c-59,0 -112,-24 -151,-62 -39,-39 -63,-93 -63,-151zm165 -218l0 218c0,13 6,25 14,34 9,9 22,15 35,15l2440 0c14,0 26,-6 35,-15 9,-8 15,-21 15,-34l0 -218c0,-14 -6,-26 -15,-35 -9,-9 -21,-14 -35,-14l-2440 0c-14,0 -26,5 -35,14 -8,9 -14,21 -14,35z"/>
  <path fill="#8F493D" fill-rule="nonzero" d="M2668 1302c111,0 212,45 284,118 73,72 118,173 118,284 0,111 -45,212 -118,284 -72,73 -173,118 -284,118 -111,0 -212,-45 -284,-118 -73,-72 -118,-173 -118,-284 0,-111 45,-212 118,-284 72,-73 173,-118 284,-118zm168 234c-43,-43 -102,-70 -168,-70 -65,0 -125,27 -168,70 -43,43 -69,102 -69,168 0,66 26,125 69,168 43,43 103,70 168,70 66,0 125,-27 168,-70 43,-43 70,-102 70,-168 0,-66 -27,-125 -70,-168z"/>
  <path fill="#8F493D" fill-rule="nonzero" d="M3909 1470c90,0 172,37 231,96 60,60 96,142 96,232 0,90 -36,172 -95,231 -60,59 -142,96 -232,96 -90,0 -172,-37 -231,-96 -59,-59 -96,-141 -96,-231 0,-90 37,-172 96,-231 59,-60 141,-97 231,-97zm115 212c-29,-29 -70,-47 -115,-47 -45,0 -86,18 -115,47 -29,30 -48,70 -48,116 0,45 19,86 48,115 29,29 70,47 115,47 45,0 86,-18 115,-47 30,-29 48,-70 48,-115 0,-46 -18,-86 -48,-116z"/>
  <path fill="#8F493D" fill-rule="nonzero" d="M3342 1967c147,0 279,59 375,155 96,95 155,228 155,374 0,147 -59,279 -155,375 -96,96 -228,155 -375,155 -146,0 -278,-59 -374,-155 -96,-96 -155,-228 -155,-375 0,-146 59,-279 155,-374 96,-96 228,-155 374,-155zm259 271c-66,-66 -158,-107 -259,-107 -101,0 -192,41 -258,107 -66,66 -107,157 -107,258 0,101 41,193 107,259 66,66 157,107 258,107 101,0 193,-41 259,-107 66,-66 107,-158 107,-259 0,-101 -41,-192 -107,-258z"/>
 </g>
</svg>
