<?xml version="1.0" encoding="UTF-8"?>
<!DOCTYPE svg PUBLIC "-//W3C//DTD SVG 1.0//EN" "http://www.w3.org/TR/2001/REC-SVG-20010904/DTD/svg10.dtd">
<!-- Creator: CorelDRAW X8 -->
<svg xmlns="http://www.w3.org/2000/svg" xml:space="preserve" width="48px" height="62px" version="1.0" shape-rendering="geometricPrecision" text-rendering="geometricPrecision" image-rendering="optimizeQuality" fill-rule="evenodd" clip-rule="evenodd"
viewBox="0 0 2658 3433"
 xmlns:xlink="http://www.w3.org/1999/xlink">
 <g id="Слой_x0020_1">
  <metadata id="CorelCorpID_0Corel-Layer"/>
  <rect fill="#8F493D" transform="matrix(0.0288651 -0.0288651 0.0288651 0.0288651 1743.42 576.877)" width="3667" height="7780"/>
  <rect fill="#8F493D" transform="matrix(0.0288651 -0.0288651 0.0288651 0.0288651 1893.11 1025.96)" width="3667" height="7780"/>
  <rect fill="#8F493D" transform="matrix(0.0288651 -0.0288651 0.0288651 0.0288651 1593.72 1325.35)" width="3667" height="7780"/>
  <rect fill="#8F493D" transform="matrix(0.0288651 -0.0288651 0.0288651 0.0288651 1444.03 876.268)" width="3667" height="7780"/>
  <rect fill="#8F493D" transform="matrix(0.0288651 -0.0288651 0.0288651 0.0288651 1144.64 1175.65)" width="3667" height="7780"/>
  <path fill="#8F493D" d="M2658 3283c-2537,0 -613,0 -2209,0l0 -888 225 0 0 225 149 0 0 -599 -149 0 0 224 -225 0 0 -1553c0,-134 109,-243 243,-243 65,0 126,25 171,71l4 4 -268 268 0 137 193 194 137 0 793 -793 0 -136 -194 -194 -137 0 -194 194c-132,-125 -304,-194 -487,-194 -392,0 -710,318 -710,710l0 2723 2658 0 0 -150zm-1205 -3133l13 0 106 105 0 13 -705 705 -13 0 -106 -106 0 -13 705 -704zm-1303 560c0,-309 251,-560 560,-560 143,0 277,53 381,150l-118 118 -4 -4c-74,-74 -172,-115 -277,-115 -217,0 -393,176 -393,393l0 2591 -149 0 0 -2573z"/>
 </g>
</svg>
