<?xml version="1.0" encoding="UTF-8"?>
<!DOCTYPE svg PUBLIC "-//W3C//DTD SVG 1.0//EN" "http://www.w3.org/TR/2001/REC-SVG-20010904/DTD/svg10.dtd">
<!-- Creator: CorelDRAW X8 -->
<svg xmlns="http://www.w3.org/2000/svg" xml:space="preserve" width="57px" height="61px" version="1.0" shape-rendering="geometricPrecision" text-rendering="geometricPrecision" image-rendering="optimizeQuality" fill-rule="evenodd" clip-rule="evenodd"
viewBox="0 0 3895 4166"
 xmlns:xlink="http://www.w3.org/1999/xlink">
 <g id="Слой_x0020_1">
  <metadata id="CorelCorpID_0Corel-Layer"/>
  <path fill="#8F493D" d="M3474 3024c13,-20 35,-32 58,-32 24,0 45,12 58,32l202 368c25,44 37,93 37,144 0,1 0,2 0,3 -2,162 -134,293 -297,293 -164,0 -297,-133 -297,-297 0,-50 13,-100 37,-143l202 -368zm58 680c92,-2 165,-77 165,-168 0,-29 -7,-56 -20,-81l-145 -263 -145 263c-13,25 -20,53 -20,81 0,1 0,2 0,3 0,91 74,165 165,165l0 0z"/>
  <path fill="#8F493D" d="M66 3770l198 0 0 -2245c0,-37 30,-66 66,-66l198 0 0 -330c0,-1 0,-1 0,-2 0,-264 171,-498 423,-579l1661 -538c22,-7 45,-10 68,-10 123,0 223,100 223,224 0,95 -61,180 -151,211l-1226 409c-100,33 -175,116 -197,219l57 0c37,0 66,29 66,66l0 330 198 0c37,0 67,29 67,66l0 330 1716 0c255,0 462,207 462,462l0 396c0,37 -29,66 -66,66l-660 0c-36,0 -66,-29 -66,-66l0 -330 -1386 0 0 1387 198 0c36,0 66,29 66,66l0 264c0,36 -30,66 -66,66l-1849 0c-36,0 -66,-30 -66,-66l0 -264c0,-37 30,-66 66,-66l0 0zm1418 -3051l1226 -409c38,-12 63,-47 63,-87 0,0 0,0 0,0 0,-51 -41,-92 -92,-92 -9,0 -19,2 -28,5l-1662 537c-174,56 -301,208 -326,390l528 0c25,-160 137,-293 291,-344l0 0zm-164 476l-660 0 0 264 660 0 0 -264zm1915 1452l528 0 0 -264 -528 0 0 264zm-1651 -264l-132 0 0 -132 2305 0c-32,-153 -167,-264 -324,-264l-2113 0 0 -132 264 0 0 -264 -1188 0 0 2179 1188 0 0 -1387zm-1452 1651l1717 0 0 -132 -1717 0 0 132z"/>
  <path fill="#8F493D" d="M594 1723l330 0 0 132 -264 0 0 198 -132 0 0 -264c0,-36 30,-66 66,-66l0 0z"/>
  <rect fill="#8F493D" x="528" y="2185" width="132" height="1452"/>
 </g>
</svg>
