<?xml version="1.0" encoding="UTF-8"?>
<!DOCTYPE svg PUBLIC "-//W3C//DTD SVG 1.0//EN" "http://www.w3.org/TR/2001/REC-SVG-20010904/DTD/svg10.dtd">
<!-- Creator: CorelDRAW X8 -->
<svg xmlns="http://www.w3.org/2000/svg" xml:space="preserve" width="42px" height="64px" version="1.0" shape-rendering="geometricPrecision" text-rendering="geometricPrecision" image-rendering="optimizeQuality" fill-rule="evenodd" clip-rule="evenodd"
viewBox="0 0 1976 2981"
 xmlns:xlink="http://www.w3.org/1999/xlink">
 <g id="Слой_x0020_1">
  <metadata id="CorelCorpID_0Corel-Layer"/>
  <path fill="#8F493D" d="M560 2965c9,9 20,16 33,16l789 0c15,0 25,-4 37,-18 8,-9 8,-24 6,-36l-69 -446 22 -10c114,-52 185,-153 234,-265l8 -19 90 0c147,0 266,-119 266,-266l0 -1445c7,-148 -116,-268 -262,-268l-365 0 -9 -11c-87,-106 -209,-197 -350,-197 -142,0 -264,91 -350,197l-9 11 -365 0c-147,0 -266,119 -266,266l0 1447c0,147 119,266 266,266l89 0 8 18c51,109 123,214 235,266l21 10 -69 447c-2,13 3,25 10,37zm430 -2880c341,0 531,594 531,878 0,343 -195,508 -531,508 -337,0 -531,-165 -531,-508 0,-283 191,-878 531,-878zm-905 393c0,-100 81,-181 181,-181l301 0 -29 47c-30,49 -53,103 -74,157l-8 19 -371 0 0 -42zm146 1347c7,25 15,51 22,77 16,55 31,109 50,164l13 40 -54 0c-100,0 -181,-81 -181,-181l0 -1316 341 0 -11 39c-30,103 -45,211 -45,319 0,173 45,342 181,458l64 54 -156 0c-124,0 -224,104 -224,227l0 108c0,3 0,6 0,11zm1069 585c-22,4 -34,27 -30,50l63 435 -687 0 67 -433c5,-22 -12,-43 -32,-49 -209,-53 -281,-340 -333,-522l-11 -39 1314 0 -12 40c-55,180 -129,468 -339,518zm363 -647l-1343 0 0 -57c0,-79 64,-142 142,-142l1059 0c79,0 142,63 142,142l0 57zm82 62c0,-4 0,-8 0,-11 0,-3 0,-6 0,-12l0 -100c0,-127 -104,-231 -232,-231l-154 0 61 -54c134,-117 182,-285 182,-458 0,-107 -15,-216 -45,-319l-11 -39 341 0 0 1294 7 0 0 30c0,100 -81,181 -180,181l-54 0 13 -40c18,-55 34,-109 50,-164 7,-26 14,-52 22,-77zm149 -1305l-371 0 -7 -19c-22,-55 -48,-107 -76,-159l-24 -45 298 0c99,0 180,81 180,181l0 42z"/>
 </g>
</svg>
