<?xml version="1.0" encoding="UTF-8"?>
<!DOCTYPE svg PUBLIC "-//W3C//DTD SVG 1.0//EN" "http://www.w3.org/TR/2001/REC-SVG-20010904/DTD/svg10.dtd">
<!-- Creator: CorelDRAW X8 -->
<svg xmlns="http://www.w3.org/2000/svg" xml:space="preserve" width="85px" height="63px" version="1.0" shape-rendering="geometricPrecision" text-rendering="geometricPrecision" image-rendering="optimizeQuality" fill-rule="evenodd" clip-rule="evenodd"
viewBox="0 0 9401 6985"
 xmlns:xlink="http://www.w3.org/1999/xlink">
 <g id="Слой_x0020_1">
  <metadata id="CorelCorpID_0Corel-Layer"/>
  <g id="_1122059302128">
   <polygon fill="#8F493D" fill-rule="nonzero" points="0,6598 1321,6598 1321,6860 0,6860 "/>
   <path fill="#8F493D" fill-rule="nonzero" d="M1493 0c266,0 508,109 684,284 175,176 284,418 284,684l0 130 -261 0 0 -130c0,-195 -80,-371 -207,-499 -128,-128 -305,-207 -499,-207 -195,0 -372,79 -499,207 -128,128 -207,304 -207,499l0 5729 -262 0 0 -5729c0,-266 109,-508 284,-683 176,-176 418,-285 683,-285z"/>
   <path fill="#8F493D" fill-rule="nonzero" d="M1204 2648c2,-1 690,-494 1621,-569 460,-37 855,-11 1242,75 384,85 757,229 1176,428 179,84 354,175 530,266 635,330 1290,670 2089,703 1034,42 1538,28 1539,28l0 262c-1,0 -476,14 -1549,-30 -858,-35 -1539,-388 -2199,-730 -175,-91 -349,-182 -521,-263 -404,-191 -760,-329 -1122,-410 -360,-79 -730,-104 -1165,-69 -858,70 -1494,526 -1496,527l-145 -218z"/>
   <path fill="#8F493D" fill-rule="nonzero" d="M1244 3363c636,-337 1321,-506 2007,-506 687,0 1374,169 2012,506 492,260 1006,529 1537,732 524,199 1065,335 1620,335l922 0 -46 166c-443,1606 -1185,1590 -2484,1561 -164,-4 -339,-7 -557,-7l-3925 0 -28 -14c-4,-1 -1293,-616 -1127,-2667l6 -72 63 -34zm2007 -244c-621,0 -1241,147 -1820,442 -107,1654 796,2236 959,2327l3865 0c178,0 376,4 563,8 1121,25 1782,39 2177,-1204l-575 0c-590,0 -1162,-143 -1713,-353 -543,-207 -1066,-480 -1566,-745 -599,-316 -1245,-475 -1890,-475z"/>
   <path fill="#8F493D" fill-rule="nonzero" d="M2150 6045l4 307 197 -202 -32 0 -33 -22c0,0 -51,-24 -136,-83zm-253 624l-15 -1213 224 214c119,113 229,185 286,218l580 0 -1072 1097 -3 -316z"/>
   <path fill="#8F493D" fill-rule="nonzero" d="M8336 5915l-43 1061 -1041 -1065 290 -14c117,-6 228,-17 333,-34 101,-18 196,-42 284,-76l185 -70 -8 198zm-279 446l11 -272c-48,12 -98,23 -149,31l-84 13 222 228z"/>
  </g>
 </g>
</svg>
