<?xml version="1.0" encoding="utf-8"?>
<!-- Generator: Adobe Illustrator 15.0.0, SVG Export Plug-In . SVG Version: 6.00 Build 0)  -->
<!DOCTYPE svg PUBLIC "-//W3C//DTD SVG 1.1 Basic//EN" "http://www.w3.org/Graphics/SVG/1.1/DTD/svg11-basic.dtd">
<svg version="1.1" baseProfile="basic" id="Layer_1"
	 xmlns="http://www.w3.org/2000/svg" xmlns:xlink="http://www.w3.org/1999/xlink" x="0px" y="0px" width="292px" height="261px"
	 viewBox="0 0 292 261" xml:space="preserve">
<path style="fill:#FFFFFF;" d="M288.896,117.082L229.021,12.994C224.9,5.833,214.755-0.01,206.478,0.009L86.17,0.318
	C77.894,0.34,67.718,6.232,63.558,13.421L3.136,117.825c-4.156,7.183-4.184,18.922-0.065,26.085L62.95,248.004
	c4.122,7.164,14.269,13.009,22.546,12.986l120.299-0.311c8.277-0.022,18.455-5.918,22.613-13.103l60.419-104.405
	C292.985,135.986,293.014,124.244,288.896,117.082z M45.404,158.348c1.47,2.541,0.597,5.789-1.949,7.256s-5.801,0.596-7.271-1.943
	l-17.49-30.227c-0.634-1.094-0.808-2.316-0.625-3.476c-0.183-1.159-0.009-2.381,0.625-3.476l17.49-30.226
	c1.47-2.54,4.725-3.411,7.271-1.944c2.546,1.466,3.418,4.715,1.949,7.255l-16.428,28.39L45.404,158.348z M273.529,133.434
	l-17.49,30.227c-1.47,2.539-4.725,3.41-7.271,1.943s-3.419-4.715-1.948-7.256l16.428-28.39l-16.428-28.39
	c-1.471-2.541-0.598-5.789,1.948-7.255c2.546-1.467,5.801-0.596,7.271,1.944l17.49,30.226c0.634,1.095,0.809,2.317,0.625,3.476
	C274.338,131.117,274.163,132.34,273.529,133.434z"/>
</svg>
