<?xml version="1.0" encoding="utf-8"?>
<!-- Generator: Adobe Illustrator 22.0.1, SVG Export Plug-In . SVG Version: 6.00 Build 0)  -->
<svg version="1.1" id="Слой_1" xmlns="http://www.w3.org/2000/svg" xmlns:xlink="http://www.w3.org/1999/xlink" x="0px" y="0px"
	 viewBox="0 0 19.9 10.2" enable-background="new 0 0 19.9 10.2" xml:space="preserve">
<g>
	<g>
		<path fill="#161616" d="M10.3,1.3v-1c0-0.1-0.1-0.2-0.2-0.2H2.7H2H0.5C0.2,0.1,0,0.3,0,0.5v0.4c0,0.2,0.2,0.4,0.4,0.4h9.7
			C10.3,1.4,10.3,1.4,10.3,1.3z"/>
		<path fill="#161616" d="M19.5,0.1h-3c-0.1,0-0.2,0.1-0.2,0.2l0,0v1c0,0.1,0.1,0.2,0.2,0.2h3c0.2,0,0.4-0.2,0.4-0.4V0.7
			C20,0.3,19.8,0.1,19.5,0.1z"/>
		<path fill="#161616" d="M18.8,2.1h-2.3c-0.1,0-0.2,0.1-0.2,0.2v3.2c0,0.2-0.1,0.3-0.3,0.3s-0.3-0.1-0.3-0.3V5
			c0-0.1-0.1-0.2-0.2-0.2h-0.3C15.1,4.8,15,4.9,15,5v0.5c0,0.2-0.1,0.3-0.3,0.3s-0.3-0.1-0.3-0.3V5c0-0.1-0.1-0.2-0.2-0.2h-0.3
			c-0.1,0-0.2,0.1-0.2,0.2v0.5c0,0.2-0.1,0.3-0.3,0.3s-0.3-0.1-0.3-0.3V5c0-0.1-0.1-0.2-0.2-0.2h-0.3c-0.1,0-0.2,0.1-0.2,0.2v0.5
			c0,0.2-0.1,0.3-0.3,0.3s-0.3-0.1-0.3-0.3V5c0-0.1-0.1-0.2-0.2-0.2h-0.3c-0.1,0-0.2,0.1-0.2,0.2v0.5c0,0.2-0.1,0.3-0.3,0.3
			s-0.3-0.1-0.3-0.3V2.3c0-0.1-0.1-0.2-0.2-0.2h-9C1.1,2.1,1,2.2,1,2.3l0,0c0.1,2.4,1.2,4.8,2.7,5.6C3.2,8.4,3.2,9.3,3.8,9.8
			c0.5,0.5,1.4,0.5,1.9-0.1C6,9.2,6.1,8.6,5.8,8.1h8.4C14,8.4,14,8.8,14.1,9.2c0.2,0.7,1,1.1,1.7,0.8c0.7-0.2,1.1-1,0.8-1.7
			c-0.1-0.2-0.2-0.3-0.3-0.5C17.8,7,18.8,4.6,19,2.2C19,2.2,18.9,2.1,18.8,2.1z"/>
		<path fill="#161616" d="M11.2,4.1h4.3c0.1,0,0.2-0.1,0.2-0.2V0.2c0-0.1-0.1-0.2-0.2-0.2l0,0h-4.3C11.1,0,11,0.1,11,0.2v3.7
			C11,4,11.1,4.1,11.2,4.1z"/>
	</g>
</g>
</svg>
