<svg width="20" height="20" viewBox="0 0 20 20" fill="none" xmlns="http://www.w3.org/2000/svg">
<g clip-path="url(#clip0)">
<path d="M6.86556 6.69444C6.85935 6.69729 6.85322 6.70034 6.84717 6.70358L6.18069 7.0368C6.01852 7.12376 5.95752 7.32577 6.04452 7.48795C6.12774 7.6431 6.31729 7.70675 6.47728 7.63326L7.14376 7.30004C7.31101 7.22323 7.38431 7.02536 7.3075 6.85814C7.23065 6.69093 7.03282 6.61763 6.86556 6.69444Z" fill="white"/>
<path d="M6.62733 5.52056C6.54536 5.35592 6.3455 5.2888 6.18078 5.37061L5.51431 5.70383C5.35213 5.79079 5.29114 5.9928 5.37814 6.15498C5.46136 6.31013 5.65091 6.37382 5.8109 6.30033L6.47737 5.96711C6.64201 5.88514 6.70914 5.68528 6.62733 5.52056Z" fill="white"/>
<path d="M4.70124 4.82089C4.78321 4.98553 4.98307 5.05266 5.14778 4.97085L5.81425 4.63763C5.98151 4.56081 6.0548 4.36295 5.97799 4.19573C5.90118 4.02852 5.70331 3.95518 5.5361 4.03199C5.52989 4.03484 5.52372 4.03789 5.51771 4.04113L4.85123 4.37435C4.68652 4.45632 4.61943 4.65618 4.70124 4.82089Z" fill="white"/>
<path d="M4.33131 3.67124C4.38348 3.67093 4.43483 3.65835 4.48126 3.63457L5.14774 3.30135C5.31499 3.22454 5.38829 3.02667 5.31148 2.85945C5.23466 2.69224 5.0368 2.6189 4.86958 2.69571C4.86337 2.69856 4.85724 2.70161 4.85119 2.70485L4.18472 3.03807C4.01906 3.11828 3.94983 3.3176 4.03004 3.48325C4.08592 3.59868 4.20307 3.67179 4.33131 3.67124Z" fill="white"/>
<path d="M4.86629 7.69423C4.86009 7.69708 4.85395 7.70013 4.8479 7.70337L4.18143 8.03659C4.01925 8.12355 3.95825 8.32556 4.04526 8.48774C4.12847 8.64289 4.31802 8.70654 4.47801 8.63305L5.14449 8.29983C5.31175 8.22302 5.38504 8.02515 5.30819 7.85793C5.23138 7.69072 5.03355 7.61742 4.86629 7.69423Z" fill="white"/>
<path d="M4.62783 6.52035C4.54587 6.35572 4.346 6.28859 4.18129 6.3704L3.51481 6.70362C3.35264 6.79059 3.29164 6.9926 3.3786 7.15478C3.46182 7.30996 3.65137 7.37362 3.81136 7.30012L4.47784 6.9669C4.64252 6.88493 4.70964 6.68507 4.62783 6.52035Z" fill="white"/>
<path d="M2.70179 5.82058C2.78376 5.98522 2.98362 6.05235 3.14833 5.97054L3.81481 5.63732C3.98206 5.5605 4.05536 5.36263 3.97855 5.19542C3.90173 5.02816 3.70387 4.95487 3.53665 5.03168C3.53044 5.03453 3.52431 5.03758 3.51826 5.04082L2.85178 5.37404C2.68707 5.456 2.61998 5.65586 2.70179 5.82058Z" fill="white"/>
<path d="M2.33204 4.67087C2.38422 4.67056 2.43557 4.65798 2.482 4.6342L3.14848 4.30098C3.31573 4.22417 3.38903 4.0263 3.31222 3.85909C3.2354 3.69187 3.03753 3.61854 2.87032 3.69535C2.86411 3.6982 2.85798 3.70124 2.85193 3.70449L2.18545 4.0377C2.0198 4.11791 1.95056 4.31723 2.03077 4.48284C2.08665 4.59831 2.2038 4.67142 2.33204 4.67087Z" fill="white"/>
<path d="M2.86691 8.69386C2.8607 8.69671 2.85457 8.69976 2.84851 8.703L2.18204 9.03622C2.01986 9.12318 1.95886 9.32519 2.04587 9.48737C2.12908 9.64252 2.31864 9.70617 2.47863 9.63267L3.1451 9.29946C3.31236 9.22264 3.38566 9.02477 3.3088 8.85756C3.23199 8.69035 3.03416 8.61705 2.86691 8.69386Z" fill="white"/>
<path d="M2.62857 7.51998C2.5466 7.35535 2.34678 7.28822 2.18202 7.37003L1.51555 7.70325C1.35337 7.79022 1.29237 7.99223 1.37934 8.1544C1.46255 8.30955 1.65211 8.37324 1.8121 8.29975L2.47857 7.96653C2.64325 7.88456 2.71038 7.6847 2.62857 7.51998Z" fill="white"/>
<path d="M1.96206 6.18711C1.88009 6.02247 1.68023 5.95534 1.51552 6.03715L0.849041 6.37037C0.686864 6.45734 0.625867 6.65934 0.712832 6.82152C0.796049 6.97667 0.985601 7.04036 1.14559 6.96687L1.81207 6.63365C1.97674 6.55168 2.04383 6.35182 1.96206 6.18711Z" fill="white"/>
<path d="M1.29561 4.85417C1.21364 4.68953 1.01382 4.62241 0.849062 4.70422L0.182585 5.03744C0.0204079 5.1244 -0.0405891 5.32641 0.0464156 5.48859C0.129632 5.64374 0.319184 5.70739 0.479174 5.6339L1.14565 5.30068C1.31029 5.21875 1.37742 5.01893 1.29561 4.85417Z" fill="white"/>
<path d="M15.9944 14.6678L16.3709 14.4746C16.5346 14.3904 16.599 14.1895 16.5148 14.0258C16.5146 14.0255 16.5144 14.0251 16.5142 14.0247L16.151 13.3349C16.1086 13.2533 16.008 13.2215 15.9263 13.2639C15.9257 13.2643 15.9251 13.2646 15.9244 13.2649L14.4616 14.0647C14.3824 14.1086 14.3528 14.2078 14.3949 14.288L14.7281 14.9544C14.8123 15.1181 15.0132 15.1825 15.1769 15.0983C15.1772 15.0981 15.1776 15.0979 15.178 15.0977L15.3279 15.0011C15.379 15.8154 15.6149 16.6074 16.0177 17.317C16.4363 18.0294 16.6583 18.8401 16.6608 19.6663C16.6608 19.8504 16.81 19.9995 16.9941 19.9995C17.1781 19.9995 17.3273 19.8503 17.3273 19.6663C17.3306 18.7367 17.088 17.8227 16.6242 17.0171C16.2102 16.3035 15.9929 15.4929 15.9944 14.6678Z" fill="white"/>
<path d="M12.9954 6.51702L12.3589 5.28407L9.91971 0.545476C9.76968 0.249473 9.48254 0.0472297 9.15327 0.00564082C8.94111 -0.0165009 8.72723 0.0264939 8.54013 0.128924L6.79734 1.03533L6.2042 1.33856C5.72162 1.59149 5.53046 2.18427 5.77433 2.67147L7.917 6.81689C8.16993 7.29947 8.76272 7.49063 9.24992 7.24676L10.1363 6.7869L10.6462 7.78659C10.6886 7.86825 10.7892 7.90003 10.8709 7.85758C10.8715 7.85723 10.8722 7.85692 10.8728 7.85657L12.9222 6.74023C13.0038 6.69868 13.0366 6.59891 12.9954 6.51702ZM8.96001 6.67029C8.79666 6.75511 8.59551 6.69142 8.51069 6.52811C8.51049 6.52776 8.5103 6.52737 8.51014 6.52701L6.36744 2.3816C6.28262 2.21825 6.34631 2.0171 6.50962 1.93232C6.50997 1.93212 6.51036 1.93193 6.51071 1.93177L6.8073 1.7785L9.25656 6.51374L8.96001 6.67029Z" fill="white"/>
<path d="M18.9938 0.00538063C18.9266 0.00538063 18.8595 0.0121364 18.7937 0.0255698C18.3191 0.13292 17.9851 0.558767 17.9939 1.04526V6.33697H17.1608C17.0688 6.33697 16.9942 6.41155 16.9942 6.5036V10.8356C16.9942 10.9276 17.0688 11.0022 17.1608 11.0022H17.9939V18.9598C17.9851 19.4463 18.3191 19.8721 18.7937 19.9795C19.3346 20.0899 19.8627 19.7409 19.9731 19.1999C19.9865 19.134 19.9933 19.067 19.9933 18.9998V1.00527C19.9934 0.453174 19.5459 0.00549778 18.9938 0.00538063Z" fill="white"/>
<path d="M15.9948 12.276C15.9947 12.2758 15.9946 12.2756 15.9944 12.2753L15.288 10.9057L15.5845 10.7525C15.7482 10.6683 15.8126 10.4674 15.7284 10.3037C15.7282 10.3033 15.728 10.303 15.7279 10.3026L16.2477 10.0327C16.3026 10.0043 16.3372 9.94783 16.3377 9.88605V8.05329C16.3379 7.96128 16.2634 7.8865 16.1714 7.88634C16.1459 7.88631 16.1207 7.89212 16.0978 7.90333L14.8115 8.53314C14.7273 8.36948 14.5264 8.30508 14.3627 8.38928C14.3623 8.38947 14.362 8.38967 14.3616 8.38982L14.065 8.5431L13.4785 7.41012C13.4361 7.32847 13.3355 7.29668 13.2538 7.33913C13.2532 7.33944 13.2525 7.33979 13.2519 7.34014L11.2025 8.45648C11.1233 8.50042 11.0937 8.59957 11.1359 8.67974L11.699 9.76608L11.4024 9.91936C11.2388 10.0036 11.1744 10.2045 11.2586 10.3681C11.2588 10.3685 11.259 10.3689 11.2591 10.3692L12.1789 12.1454C12.2193 12.2231 12.2888 12.2817 12.3721 12.3086C12.4559 12.3357 12.5469 12.3285 12.6254 12.2886L12.922 12.1354L13.6517 13.5483C13.6942 13.6299 13.7948 13.6617 13.8764 13.6192C13.8771 13.6189 13.8777 13.6186 13.8783 13.6182L15.9277 12.5019C16.0087 12.458 16.0387 12.3569 15.9948 12.276Z" fill="white"/>
</g>
<defs>
<clipPath id="clip0">
<rect width="20" height="20" fill="white"/>
</clipPath>
</defs>
</svg>
