<svg width="20" height="20" viewBox="0 0 20 20" fill="none" xmlns="http://www.w3.org/2000/svg">
<path d="M13.0809 18.7847L11.6499 11.473L8.2805 11.4803L6.91825 18.7954C6.86241 19.0953 6.99925 19.4079 7.29371 19.6344C7.58714 19.86 8.00896 20 8.45169 20C8.45329 20 8.45496 20 8.45657 20L11.5537 19.9825C11.9983 19.9815 12.4208 19.845 12.7133 19.6172C13.0056 19.3895 13.1396 19.0843 13.0809 18.7847Z" fill="white"/>
<path d="M19.2388 5.30135L0.755737 5.30037L0.760907 6.04756C0.766652 7.26924 1.47133 8.42022 2.74505 9.28084C4.01343 10.138 5.6953 10.614 7.48264 10.614C7.49005 10.614 7.49729 10.614 7.5047 10.614L12.5431 10.5985C16.2498 10.5904 19.2558 8.52858 19.2439 6.00803L19.2388 5.30135Z" fill="white"/>
<path d="M11.6092 1.75437H11.0287C11.007 1.75437 10.9856 1.75566 10.9642 1.75656V1.21371C11.2352 1.09715 11.4157 0.892031 11.4157 0.657891C11.4157 0.29457 10.9825 0 10.4482 0H9.54524C9.01095 0 8.57776 0.29457 8.57776 0.657891C8.57776 0.89207 8.75825 1.09715 9.02928 1.21371V1.76094C8.98694 1.75707 8.94414 1.75441 8.90026 1.75441H8.31978C7.78549 1.75441 7.35229 2.04898 7.35229 2.4123C7.35229 2.77562 7.78549 3.0702 8.31978 3.0702H8.90026C8.94409 3.0702 8.98694 3.06754 9.02928 3.06367V4.42363L10.9642 4.42371V3.06797C10.9857 3.06895 11.007 3.07016 11.0288 3.07016H11.6092C12.1435 3.07016 12.5767 2.77559 12.5767 2.41227C12.5767 2.04895 12.1435 1.75437 11.6092 1.75437Z" fill="white"/>
</svg>
