<svg width="20" height="22" viewBox="0 0 20 22" fill="none" xmlns="http://www.w3.org/2000/svg">
<g clip-path="url(#clip0)">
<path d="M19.3455 7.6278H13.5214V5.51484C13.5214 5.17418 13.2452 4.89803 12.9045 4.89803C12.5639 4.89803 12.2877 5.17422 12.2877 5.51484V7.6278H11.1431V3.15962C11.1431 2.09766 12.007 1.23368 13.069 1.23368C14.131 1.23368 14.995 2.09766 14.995 3.15962V5.7773C14.995 6.11797 15.2712 6.39412 15.6118 6.39412C15.9524 6.39412 16.2286 6.11793 16.2286 5.7773V3.15962C16.2286 1.41739 14.8112 0 13.069 0C11.3268 0 9.90939 1.41739 9.90939 3.15962V7.6278H8.7612V5.51484C8.7612 5.17418 8.48501 4.89803 8.14438 4.89803C7.80372 4.89803 7.52757 5.17422 7.52757 5.51484V7.6278H1.70697C1.3663 7.6278 1.09015 7.90399 1.09015 8.24461C1.09015 8.58528 1.36634 8.86143 1.70697 8.86143H19.3455C19.6861 8.86143 19.9623 8.58524 19.9623 8.24461C19.9623 7.90399 19.6861 7.6278 19.3455 7.6278Z" fill="white"/>
<path d="M2.13855 10.1363V13.7233H18.9143V10.1363H2.13855ZM11.1401 11.3807C11.1381 11.4009 11.1352 11.421 11.1311 11.4408C11.1274 11.4601 11.1224 11.4798 11.1163 11.4991C11.1105 11.5185 11.1035 11.5374 11.0961 11.5559C11.0883 11.5744 11.0797 11.5929 11.0702 11.6106C11.0608 11.6283 11.0505 11.6459 11.0394 11.6624C11.0283 11.6792 11.0159 11.6957 11.0032 11.7113C10.9904 11.7269 10.9769 11.7422 10.9625 11.7561C10.9485 11.7705 10.9333 11.7841 10.9177 11.7968C10.902 11.8096 10.8856 11.8219 10.8687 11.833C10.8523 11.8441 10.8346 11.8544 10.8169 11.8639C10.7992 11.8733 10.7807 11.882 10.7622 11.8898C10.7437 11.8972 10.7248 11.9042 10.7055 11.9099C10.6862 11.9157 10.6668 11.921 10.6471 11.9247C10.6274 11.9288 10.6072 11.9317 10.5871 11.9338C10.5669 11.9358 10.5468 11.9371 10.5266 11.9371C10.5065 11.9371 10.4859 11.9358 10.4658 11.9338C10.446 11.9317 10.4259 11.9288 10.4061 11.9247C10.3864 11.921 10.3667 11.9157 10.3473 11.9099C10.3284 11.9042 10.3091 11.8972 10.2906 11.8898C10.2721 11.882 10.2536 11.8733 10.2359 11.8639C10.2182 11.8544 10.201 11.8441 10.1841 11.833C10.1673 11.8219 10.1508 11.8096 10.1356 11.7968C10.1196 11.7841 10.1048 11.7705 10.0904 11.7561C10.076 11.7422 10.0624 11.7269 10.0497 11.7113C10.0369 11.6957 10.025 11.6792 10.0139 11.6624C10.0028 11.6459 9.99209 11.6283 9.98263 11.6106C9.97317 11.5929 9.96454 11.5744 9.95714 11.5559C9.94932 11.5374 9.94233 11.5185 9.93658 11.4991C9.93082 11.4798 9.92589 11.4601 9.92177 11.4408C9.91766 11.421 9.91478 11.4009 9.91273 11.3807C9.91067 11.3606 9.90985 11.3404 9.90985 11.3203C9.90985 11.3001 9.91067 11.2796 9.91273 11.2594C9.91478 11.2397 9.91766 11.2195 9.92177 11.1994C9.92589 11.1801 9.93082 11.1603 9.93658 11.141C9.94233 11.1217 9.94932 11.1028 9.95714 11.0843C9.96454 11.0658 9.97317 11.0473 9.98263 11.0296C9.99209 11.0119 10.0028 10.9946 10.0139 10.9778C10.025 10.9609 10.0369 10.9445 10.0497 10.9288C10.0624 10.9132 10.076 10.8984 10.0904 10.884C10.1048 10.8696 10.1196 10.8561 10.1356 10.8433C10.1508 10.8306 10.1673 10.8186 10.1841 10.8071C10.201 10.796 10.2182 10.7857 10.2359 10.7763C10.2536 10.7668 10.2721 10.7582 10.2906 10.7508C10.3091 10.743 10.3284 10.736 10.3473 10.7302C10.3667 10.7245 10.3864 10.7195 10.4061 10.7154C10.4259 10.7113 10.446 10.7084 10.4658 10.7064C10.5061 10.7023 10.5468 10.7023 10.5871 10.7064C10.6072 10.7084 10.6274 10.7113 10.6471 10.7154C10.6668 10.7195 10.6862 10.7245 10.7055 10.7302C10.7248 10.736 10.7437 10.743 10.7622 10.7508C10.7807 10.7582 10.7992 10.7668 10.8169 10.7763C10.8346 10.7857 10.8523 10.796 10.8687 10.8071C10.8856 10.8186 10.902 10.8306 10.9177 10.8433C10.9333 10.8561 10.9485 10.8696 10.9625 10.884C10.9769 10.8984 10.9904 10.9132 11.0032 10.9288C11.0159 10.9445 11.0283 10.9609 11.0394 10.9778C11.0505 10.9946 11.0608 11.0119 11.0702 11.0296C11.0797 11.0473 11.0883 11.0658 11.0961 11.0843C11.1035 11.1028 11.1105 11.1217 11.1163 11.141C11.1224 11.1603 11.1274 11.1801 11.1311 11.1994C11.1352 11.2195 11.1381 11.2397 11.1401 11.2594C11.1422 11.2796 11.1434 11.3001 11.1434 11.3203C11.1434 11.3404 11.1422 11.3606 11.1401 11.3807Z" fill="white"/>
<path d="M2.13855 14.957V19.6834C2.13855 20.4384 2.75278 21.0526 3.50775 21.0526H17.5451C18.3001 21.0526 18.9143 20.4383 18.9143 19.6834V14.957H2.13855ZM11.1401 17.4257C11.1381 17.4459 11.1352 17.466 11.1311 17.4857C11.1274 17.5051 11.1224 17.5248 11.1163 17.5441C11.1105 17.5635 11.1035 17.5824 11.0961 17.6009C11.0883 17.6194 11.0797 17.6379 11.0702 17.6556C11.0608 17.6732 11.0505 17.6909 11.0394 17.7074C11.0283 17.7242 11.0159 17.7407 11.0032 17.7563C10.9904 17.7719 10.9769 17.7871 10.9625 17.8011C10.9485 17.8155 10.9333 17.8291 10.9177 17.8418C10.902 17.8546 10.8856 17.8669 10.8687 17.878C10.8523 17.8891 10.8346 17.8994 10.8169 17.9089C10.7992 17.9183 10.7807 17.9269 10.7622 17.9348C10.7437 17.9422 10.7248 17.9492 10.7055 17.9549C10.6862 17.9607 10.6668 17.966 10.6471 17.9697C10.6274 17.9738 10.6072 17.9767 10.5871 17.9788C10.5669 17.9808 10.5468 17.982 10.5266 17.982C10.5065 17.982 10.4859 17.9808 10.4658 17.9788C10.446 17.9767 10.4259 17.9738 10.4061 17.9697C10.3864 17.966 10.3667 17.9607 10.3473 17.9549C10.3284 17.9492 10.3091 17.9422 10.2906 17.9348C10.2721 17.9269 10.2536 17.9183 10.2359 17.9089C10.2182 17.8994 10.201 17.8891 10.1841 17.878C10.1673 17.8669 10.1508 17.8546 10.1356 17.8418C10.1196 17.8291 10.1048 17.8155 10.0904 17.8011C10.076 17.7871 10.0624 17.7719 10.0497 17.7563C10.0369 17.7407 10.025 17.7242 10.0139 17.7074C10.0028 17.6909 9.99209 17.6732 9.98263 17.6556C9.97317 17.6379 9.96454 17.6194 9.95714 17.6009C9.94932 17.5824 9.94233 17.5635 9.93658 17.5441C9.93082 17.5248 9.92589 17.5051 9.92177 17.4857C9.91766 17.466 9.91478 17.4459 9.91273 17.4257C9.91067 17.4056 9.90985 17.385 9.90985 17.3653C9.90985 17.3451 9.91067 17.3246 9.91273 17.3044C9.91478 17.2843 9.91766 17.2641 9.92177 17.2444C9.92589 17.2251 9.93082 17.2053 9.93658 17.186C9.94233 17.1667 9.94932 17.1478 9.95714 17.1293C9.96454 17.1107 9.97317 17.0922 9.98263 17.0746C9.99209 17.0569 10.0028 17.0392 10.0139 17.0228C10.025 17.0059 10.0369 16.9895 10.0497 16.9738C10.0624 16.9582 10.076 16.943 10.0904 16.929C10.1048 16.9146 10.1196 16.901 10.1356 16.8883C10.1508 16.8756 10.1673 16.8636 10.1841 16.8521C10.201 16.841 10.2182 16.8307 10.2359 16.8213C10.2536 16.8118 10.2721 16.8032 10.2906 16.7958C10.3091 16.788 10.3284 16.781 10.3473 16.7752C10.3667 16.7695 10.3864 16.7645 10.4061 16.7604C10.4259 16.7563 10.446 16.7534 10.4658 16.7514C10.5061 16.7473 10.5468 16.7473 10.5871 16.7514C10.6072 16.7534 10.6274 16.7563 10.6471 16.7604C10.6668 16.7645 10.6862 16.7695 10.7055 16.7752C10.7248 16.781 10.7437 16.788 10.7622 16.7958C10.7807 16.8032 10.7992 16.8118 10.8169 16.8213C10.8346 16.8307 10.8523 16.841 10.8687 16.8521C10.8856 16.8636 10.902 16.8756 10.9177 16.8883C10.9333 16.901 10.9485 16.9146 10.9625 16.929C10.9769 16.943 10.9904 16.9582 11.0032 16.9738C11.0159 16.9895 11.0283 17.0059 11.0394 17.0228C11.0505 17.0392 11.0608 17.0569 11.0702 17.0746C11.0797 17.0922 11.0883 17.1107 11.0961 17.1293C11.1035 17.1478 11.1105 17.1667 11.1163 17.186C11.1224 17.2053 11.1274 17.2251 11.1311 17.2444C11.1352 17.2641 11.1381 17.2843 11.1401 17.3044C11.1422 17.3246 11.1434 17.3451 11.1434 17.3653C11.1434 17.385 11.1422 17.4056 11.1401 17.4257Z" fill="white"/>
</g>
<defs>
<clipPath id="clip0">
<rect width="20" height="21.0526" fill="white"/>
</clipPath>
</defs>
</svg>
