<svg width="20" height="22" viewBox="0 0 20 22" fill="none" xmlns="http://www.w3.org/2000/svg">
<g clip-path="url(#clip0)">
<path d="M10.2298 12.0344C10.1179 12.0344 10.0268 11.9438 10.0268 11.8325V4.02768C10.0268 3.2278 9.37548 2.57697 8.57495 2.57697H6.90821V1.17139C6.90821 0.52442 6.38379 0 5.73682 0H5.73152C5.08454 0 4.56012 0.52442 4.56012 1.17139V2.57697H3.91733C3.11664 2.57697 2.46533 3.2278 2.46533 4.02768V9.10147C2.46533 10.4494 3.03119 11.7497 4.01787 12.6691C4.75495 13.3563 5.17786 14.3278 5.17786 15.3346V18.5855H13.8116C13.9583 17.5796 14.3788 17.0189 15.2567 16.6096C16.9681 15.8116 18.0739 14.0776 18.0739 12.1921V12.0342H10.2298V12.0344Z" fill="white"/>
<path d="M14.3192 19.8191H4.6703C4.32979 19.8191 4.05353 20.0952 4.05353 20.4359C4.05353 20.7765 4.32979 21.0526 4.6703 21.0526H14.3192C14.6598 21.0526 14.9359 20.7765 14.9359 20.4359C14.9359 20.0952 14.6598 19.8191 14.3192 19.8191Z" fill="white"/>
<path d="M18.4737 8.76899H11.2668V10.8024H18.4737C19.0351 10.8024 19.4901 10.3472 19.4901 9.7857C19.4901 9.22418 19.0351 8.76899 18.4737 8.76899Z" fill="white"/>
<path d="M2.74033 14.031C2.06814 14.031 1.52139 14.5774 1.52139 15.249V17.3916C1.52139 18.0634 2.06814 18.6096 2.74033 18.6096H3.94433V15.1928C3.94433 14.784 3.8388 14.3841 3.64461 14.031H2.74033Z" fill="white"/>
</g>
<defs>
<clipPath id="clip0">
<rect width="20" height="21.0526" fill="white"/>
</clipPath>
</defs>
</svg>
