<svg width="20" height="20" viewBox="0 0 20 20" fill="none" xmlns="http://www.w3.org/2000/svg">
<path d="M6.11636 10.2671C6.73373 10.0068 7.10162 9.5274 7.10162 8.98495C7.10162 8.4425 6.73373 7.96291 6.11636 7.7026C5.81821 7.5761 5.47488 7.71572 5.349 8.01449C5.22311 8.31249 5.36273 8.65643 5.66074 8.7817C5.86963 8.87051 5.92685 8.96664 5.93036 8.98373C5.92685 9.00326 5.86963 9.09939 5.66028 9.18804C5.04398 9.44897 4.67548 9.9284 4.67548 10.4702C4.67548 11.0128 5.04398 11.4923 5.66028 11.7532C5.95554 11.8782 6.3013 11.7427 6.4281 11.4419C6.55399 11.1438 6.41498 10.7998 6.11682 10.6741C5.90747 10.5853 5.85025 10.4887 5.84735 10.4715C5.85025 10.4525 5.90747 10.3558 6.11636 10.2671Z" fill="white"/>
<path d="M9.04605 10.2671C9.66342 10.0068 10.0313 9.5274 10.0313 8.98495C10.0313 8.4425 9.66342 7.96291 9.04605 7.7026C8.74789 7.5761 8.40457 7.71572 8.27869 8.01449C8.1528 8.31249 8.29242 8.65643 8.59042 8.7817C8.79932 8.87051 8.85654 8.96664 8.86005 8.98373C8.85654 9.00326 8.79932 9.09939 8.58997 9.18804C7.97366 9.44897 7.60516 9.9284 7.60516 10.4702C7.60516 11.0128 7.97366 11.4923 8.58997 11.7532C8.88522 11.8782 9.23099 11.7427 9.35779 11.4419C9.48367 11.1438 9.34467 10.7998 9.04651 10.6741C8.83716 10.5853 8.77994 10.4887 8.77704 10.4715C8.77994 10.4525 8.83716 10.3558 9.04605 10.2671Z" fill="white"/>
<path d="M0.585938 9.41406H1.17188C1.81915 9.41406 2.34375 8.88931 2.34375 8.24219V0H0.585938C0.262299 0 0 0.262299 0 0.585938V8.82812C0 9.15176 0.262299 9.41406 0.585938 9.41406Z" fill="white"/>
<path d="M19.4141 11.7578H18.2422C17.9184 11.7578 17.6562 12.02 17.6562 12.3438V18.2422C17.6562 18.566 17.9184 18.8281 18.2422 18.8281H19.4141C19.7379 18.8281 20 18.566 20 18.2422V12.3438C20 12.02 19.7379 11.7578 19.4141 11.7578Z" fill="white"/>
<path d="M16.4844 11.7578H12.6329C10.8533 12.0084 10.1468 12.7405 9.78516 12.9297C9.63654 12.9297 6.85608 12.9297 7.03125 12.9297C6.38397 12.9297 5.85938 13.4543 5.85938 14.1016C5.85938 14.7487 6.38397 15.2734 7.03125 15.2734H11.7188C12.0425 15.2734 12.3047 15.5356 12.3047 15.8594C12.3047 16.1832 12.0425 16.4453 11.7188 16.4453H5.59723C5.47028 16.4453 5.34729 16.4041 5.24597 16.328L2.57813 14.3359C2.07947 13.9757 1.40198 14.0128 0.937501 14.5703C0.550691 15.0859 0.644532 15.8241 1.17188 16.2109L5.40238 19.4141C5.90622 19.7891 6.52741 20 7.16019 20C7.33673 20 11.9466 20 11.7538 20C12.1991 20 12.6563 19.8946 13.0664 19.6953L16.4844 17.9817V11.7578Z" fill="white"/>
<path d="M11.7188 6.48438C11.7188 2.93045 8.82736 0 5.27344 0H3.51562V7.07031H11.1328C11.4566 7.07031 11.7188 6.80817 11.7188 6.48438Z" fill="white"/>
</svg>
