<svg width="20" height="24" viewBox="0 0 20 24" fill="none" xmlns="http://www.w3.org/2000/svg">
<g clip-path="url(#clip0)">
<path d="M10 7.58272C8.85899 7.58272 5.69165 11.1822 5.69165 14.8208C5.69165 16.0399 5.69165 16.5441 10 16.5441C14.3084 16.5441 14.3084 16.0399 14.3084 14.8208C14.3084 11.1822 11.141 7.58272 10 7.58272ZM10 12.4081C9.52414 12.4081 9.13834 12.0994 9.13834 11.7187C9.13834 11.338 9.52414 11.0294 10 11.0294C10.4759 11.0294 10.8617 11.338 10.8617 11.7187C10.8617 12.0994 10.4759 12.4081 10 12.4081Z" fill="white"/>
<path d="M12.585 3.97698V0.689338C12.585 0.308318 12.1996 0 11.7234 0H8.27666C7.80039 0 7.41499 0.308318 7.41499 0.689338V1.37868H5.69164V0.689338C5.69164 0.308318 5.30625 0 4.82997 0C4.35369 0 3.9683 0.308318 3.9683 0.689338V3.44669C3.9683 3.82771 4.35369 4.13603 4.82997 4.13603C5.30625 4.13603 5.69164 3.82771 5.69164 3.44669V2.75735H7.41499V3.97698C3.30016 5.64591 0.521606 10.9973 0.521606 14.8208C0.521606 20.0144 5.58732 20.6801 10 20.6801C14.4127 20.6801 19.4784 20.0144 19.4784 14.8208C19.4784 10.9973 16.6999 5.64591 12.585 3.97698ZM10 17.9228C4.83836 17.9228 3.9683 16.9655 3.9683 14.8208C3.9683 10.9554 7.29384 6.20404 10 6.20404C12.7062 6.20404 16.0317 10.9554 16.0317 14.8208C16.0317 16.9655 15.1617 17.9228 10 17.9228Z" fill="white"/>
<path d="M7.41498 22.8401C7.41498 23.2211 7.80038 23.5294 8.27665 23.5294H11.7233C12.1996 23.5294 12.585 23.2211 12.585 22.8401V22.0588H7.41498V22.8401Z" fill="white"/>
</g>
<defs>
<clipPath id="clip0">
<rect width="20" height="23.5294" fill="white"/>
</clipPath>
</defs>
</svg>
