<svg width="20" height="24" viewBox="0 0 20 24" fill="none" xmlns="http://www.w3.org/2000/svg">
<g clip-path="url(#clip0)">
<path d="M19.4991 11.9048C19.4991 11.4441 19.379 10.994 19.1549 10.5976C19.3186 10.2483 19.4038 9.86717 19.4038 9.47335C19.4038 8.72076 19.0793 8.00614 18.5324 7.50751C18.5518 7.37744 18.5616 7.24575 18.5616 7.11278C18.5616 6.19834 18.0826 5.35238 17.3289 4.87101C17.2939 3.57074 16.3197 2.50044 15.0615 2.31552C14.6483 1.36203 13.6973 0.714802 12.6238 0.714802C12.3914 0.714802 12.16 0.745501 11.9364 0.805446C11.4427 0.293187 10.7629 0 10.0294 0C9.2959 0 8.61633 0.293187 8.12242 0.805264C7.89899 0.745501 7.66756 0.714802 7.43523 0.714802C6.36149 0.714802 5.41072 1.36203 4.99746 2.31552C3.73933 2.50044 2.76513 3.57056 2.73007 4.87101C1.9764 5.35238 1.49738 6.19834 1.49738 7.11278C1.49738 7.24575 1.50719 7.37744 1.52663 7.50751C0.979674 8.00614 0.655243 8.72076 0.655243 9.47335C0.655243 9.86717 0.740256 10.2483 0.904107 10.5976C0.679948 10.994 0.559875 11.4441 0.559875 11.9048C0.559875 12.3654 0.679948 12.8156 0.904107 13.2119C0.740256 13.5612 0.655243 13.9424 0.655243 14.3362C0.655243 15.0888 0.979674 15.8034 1.52663 16.302C1.50719 16.4321 1.49738 16.5638 1.49738 16.6967C1.49738 17.6112 1.9764 18.4571 2.73007 18.9385C2.76513 20.239 3.73933 21.3091 4.99746 21.494C5.41072 22.4475 6.36149 23.0947 7.43523 23.0947C7.66756 23.0947 7.89899 23.064 8.12242 23.0043C8.61633 23.5163 9.2959 23.8095 10.0294 23.8095C10.7629 23.8095 11.4427 23.5163 11.9366 23.0043C12.16 23.064 12.3914 23.0947 12.6238 23.0947C13.6975 23.0947 14.6483 22.4475 15.0615 21.494C16.3197 21.3091 17.2939 20.2388 17.3289 18.9385C18.0826 18.4571 18.5616 17.6112 18.5616 16.6967C18.5616 16.564 18.5518 16.4321 18.5325 16.302C19.0793 15.8034 19.4038 15.0888 19.4038 14.3362C19.4038 13.9425 19.3187 13.5612 19.1549 13.2119C19.379 12.8156 19.4991 12.3654 19.4991 11.9048ZM10.0294 20.9494C8.19018 20.9494 6.47665 19.9781 5.20436 18.2146C4.80255 17.6575 4.46031 17.041 4.18166 16.3803C4.09229 16.269 4.04197 16.1367 4.03071 16.0017C3.55914 14.7478 3.30882 13.3513 3.30882 11.9048C3.30882 9.53002 3.98202 7.28916 5.20436 5.59471C6.47665 3.83123 8.19018 2.85993 10.0294 2.85993C11.8686 2.85993 13.5822 3.83123 14.8545 5.59471C16.0768 7.28916 16.75 9.53002 16.75 11.9048C16.75 14.2795 16.0768 16.5204 14.8545 18.2146C13.5822 19.9783 11.8686 20.9494 10.0294 20.9494Z" fill="white"/>
<path d="M15.3467 11.9048C15.3467 9.82249 14.7678 7.87318 13.7164 6.41578C13.4287 6.01687 13.1153 5.66992 12.7823 5.37727L4.80798 13.3518C4.86593 13.7861 4.95022 14.2101 5.05939 14.6203L10.0076 9.67208C10.2815 9.39796 10.7259 9.39796 10.9998 9.67208C11.2739 9.94601 11.2739 10.3903 10.9998 10.6643L5.58237 16.0819C5.79835 16.5514 6.0523 16.9914 6.34258 17.3936C7.34385 18.7818 8.6532 19.5462 10.0294 19.5462C11.4058 19.5462 12.7149 18.7818 13.7164 17.3936C14.7678 15.9364 15.3467 13.987 15.3467 11.9048Z" fill="white"/>
<path d="M4.72174 11.4535L11.5782 4.5969C11.0812 4.37764 10.5604 4.26338 10.0294 4.26338C8.65324 4.26338 7.34389 5.02777 6.34262 6.41596C5.36751 7.76727 4.79912 9.54202 4.72174 11.4535Z" fill="white"/>
</g>
<defs>
<clipPath id="clip0">
<rect width="20" height="23.8095" fill="white"/>
</clipPath>
</defs>
</svg>
