<svg width="20" height="24" viewBox="0 0 20 24" fill="none" xmlns="http://www.w3.org/2000/svg">
<g clip-path="url(#clip0)">
<path d="M10.3942 6.39418V5.10022C10.3942 4.88366 10.5698 4.70813 10.7863 4.70813H11.9627V3.5318H9.61002V3.92389C9.61002 4.14046 9.43444 4.31599 9.21792 4.31599H7.25736C7.0408 4.31599 6.86527 4.14041 6.86527 3.92389V1.57124C6.86385 1.37182 7.01231 1.20304 7.21031 1.17915L16.6209 0.00282328C16.8359 -0.0231845 17.0313 0.130059 17.0573 0.345015C17.0593 0.361557 17.0602 0.378237 17.0601 0.394917V3.13966C17.0601 3.35623 16.8845 3.53175 16.668 3.53175H14.3153V4.70808H15.4916C15.7082 4.70808 15.8837 4.88361 15.8837 5.10017V6.39413C18.3462 7.37439 19.8048 10.2446 19.8048 12.5502V23.1372C19.8048 23.3537 19.6293 23.5292 19.4127 23.5292H6.86522C6.64866 23.5292 6.47313 23.3537 6.47313 23.1372V12.5502C6.47313 10.2447 7.93178 7.37839 10.3942 6.39418ZM17.8286 11.2445L17.8247 11.2485C17.3895 9.93882 16.9425 9.12321 15.7112 8.29978C15.5382 8.1696 15.2924 8.20439 15.1622 8.37744C15.032 8.55048 15.0668 8.79632 15.2398 8.9265C15.2514 8.93523 15.2635 8.94327 15.276 8.95067C16.3229 9.6486 16.6954 10.327 17.0836 11.4915C17.1519 11.6972 17.374 11.8087 17.5797 11.7405C17.7853 11.6723 17.8968 11.4503 17.8286 11.2445ZM13.139 20.7062C15.7348 20.7062 17.8443 18.9809 17.8443 16.8635C17.8443 14.7461 15.7348 13.0208 13.139 13.0208C10.5432 13.0208 8.43369 14.7461 8.43369 16.8635C8.43369 18.9809 10.5432 20.7062 13.139 20.7062Z" fill="white"/>
<path d="M13.1389 13.8051C15.2995 13.8051 17.06 15.1775 17.06 16.8635C17.06 18.5496 15.2994 19.922 13.1389 19.922C10.9784 19.922 9.21786 18.5496 9.21786 16.8635C9.21786 15.1775 10.9784 13.8051 13.1389 13.8051Z" fill="white"/>
<path d="M5.26144 6.03347C5.89849 5.90821 6.49337 5.62355 6.99064 5.20614C7.14922 5.05868 7.39735 5.06769 7.54481 5.22626C7.62605 5.31362 7.66308 5.43322 7.64548 5.55118C7.32787 7.57446 6.53973 8.60963 5.29282 8.6253C4.41448 8.6253 3.72439 8.10772 3.72439 7.44897C3.7283 6.45695 4.53606 6.23345 5.26144 6.03347Z" fill="white"/>
</g>
<defs>
<clipPath id="clip0">
<rect width="20" height="23.5294" fill="white" transform="matrix(-1 0 0 1 20 0)"/>
</clipPath>
</defs>
</svg>
