<?xml version="1.0" encoding="utf-8"?>
<!-- Generator: Adobe Illustrator 22.0.1, SVG Export Plug-In . SVG Version: 6.00 Build 0)  -->
<svg version="1.1" id="Слой_1" xmlns="http://www.w3.org/2000/svg" xmlns:xlink="http://www.w3.org/1999/xlink" x="0px" y="0px"
	 viewBox="0 0 20 20" enable-background="new 0 0 20 20" xml:space="preserve">
<rect y="1.5" fill="#FFFFFF" width="20" height="1"/>
<rect x="6.8" fill="#FFFFFF" width="1.4" height="3.4"/>
<rect x="10.8" fill="#FFFFFF" width="1.4" height="3.4"/>
<rect x="14.9" fill="#FFFFFF" width="1.4" height="3.4"/>
<path fill="#FFFEFE" d="M4.7,17.3V9.1H0.3v2.7c0,4.4,2,6.4,2.7,6.8C3.6,18.9,4.4,17.8,4.7,17.3z"/>
<path fill="#FFFFFF" d="M3.2,19c-0.1,0-0.2,0-0.3-0.1c-0.8-0.3-2.9-2.4-2.9-7V8.8h5.1v8.6v0.1C4.9,17.7,4.1,19,3.2,19z M0.7,9.5v2.4
	c0,4.3,2,6.2,2.5,6.5c0.2,0.1,0.7-0.4,1.2-1.1V9.5H0.7z"/>
<rect x="6.1" y="3.4" fill="#FFFFFF" width="12.2" height="15.6"/>
</svg>
