<svg width="20" height="20" viewBox="0 0 20 20" fill="none" xmlns="http://www.w3.org/2000/svg">
<g clip-path="url(#clip0)">
<path d="M18.3333 6.66669H18.27L7 8.92669V8.16669C7 8.07466 6.92539 8.00001 6.83332 8.00001H0.16668C0.0746094 8.00001 0 8.07462 0 8.16669V17.8334C0 17.9254 0.0746094 18 0.16668 18H6.83336C6.92539 18 7.00004 17.9254 7.00004 17.8334V14.2234L16 10.53V11.3334C16 11.5175 16.1493 11.6667 16.3334 11.6667H19C19.1841 11.6667 19.3333 11.5175 19.3333 11.3334V9.16337L19.7933 8.97337C19.9178 8.92223 19.9993 8.80126 20 8.66669C20 7.80669 19.8267 6.66669 18.3333 6.66669ZM18.6667 11H16.6667V10.2567L18.6667 9.43669V11Z" fill="white"/>
<path d="M6.83332 18.6667H0.16668C0.0746484 18.6667 0 18.7413 0 18.8334V19.6667C0 19.8508 0.149219 20 0.33332 20H6.66664C6.85074 20 6.99996 19.8508 6.99996 19.6667V18.8334C7 18.7413 6.92539 18.6667 6.83332 18.6667Z" fill="white"/>
<path d="M0.16668 7.33235H6.83336C6.92539 7.33235 7.00004 7.25774 7.00004 7.16567V5.66567C7.00004 4.18899 11.06 1.99899 16.6667 1.99899C17.0534 1.99899 17.3334 1.57899 17.3334 0.998993C17.3334 0.418993 17.0534 -0.00100708 16.6667 -0.00100708C8 -0.000968018 0 0.565712 0 4.66571V7.16571C0 7.25774 0.0746094 7.33235 0.16668 7.33235Z" fill="white"/>
<path d="M17.9767 12.5433C17.909 12.3721 17.7153 12.2882 17.5441 12.3559C17.4584 12.3897 17.3905 12.4576 17.3567 12.5433C17.2433 12.8233 17.0667 13.19 16.8767 13.5767C16.1567 15.0433 15.2633 16.87 15.9233 17.93C16.23 18.4167 16.8167 18.6667 17.6667 18.6667C18.5167 18.6667 19.1033 18.4167 19.41 17.93C20.0767 16.87 19.1767 15.0433 18.4567 13.5767C18.2667 13.1867 18.0867 12.8233 17.9767 12.5433ZM19 17C19 17.3682 18.7015 17.6667 18.3333 17.6667C18.1492 17.6667 18 17.5175 18 17.3334C18 17.1493 18.1492 17.0001 18.3333 17.0001C18.3333 16.816 18.4825 16.6667 18.6666 16.6667C18.8507 16.6667 19 16.8159 19 17Z" fill="white"/>
</g>
<defs>
<clipPath id="clip0">
<rect width="20" height="20" fill="white"/>
</clipPath>
</defs>
</svg>
