<svg width="20" height="20" viewBox="0 0 20 20" fill="none" xmlns="http://www.w3.org/2000/svg">
<g clip-path="url(#clip0)">
<path d="M13.9724 6.02779C13.7442 5.79959 13.3724 5.7992 13.1438 6.02779C12.9152 6.25638 12.9156 6.62822 13.1438 6.85642C13.372 7.08462 13.7438 7.08501 13.9724 6.85642C14.201 6.62783 14.2006 6.25599 13.9724 6.02779Z" fill="white"/>
<path d="M18.1156 1.88467C15.603 -0.627947 11.5136 -0.628377 9.00058 1.88467C6.48757 4.39772 6.48796 8.48709 9.00058 10.9997C11.5132 13.5123 15.6026 13.5128 18.1156 10.9997C20.6286 8.48666 20.6282 4.39733 18.1156 1.88467ZM17.0738 5.85627C17.3973 5.85623 17.6596 6.1185 17.6596 6.44213C17.6596 6.7658 17.3973 7.02811 17.0737 7.02811C16.75 7.02807 16.4877 6.76576 16.4878 6.44225C16.4878 6.11858 16.7501 5.85627 17.0738 5.85627ZM16.4583 3.54197C16.6871 3.77076 16.6872 4.14174 16.4583 4.37061C16.2295 4.5994 15.8585 4.5994 15.6297 4.37061C15.4009 4.14182 15.4009 3.77076 15.6297 3.54197C15.8585 3.31311 16.2295 3.31315 16.4583 3.54197ZM10.6578 4.37061C10.4291 4.14182 10.4291 3.77076 10.6578 3.54197C10.8867 3.31311 11.2577 3.31319 11.4865 3.54197C11.7153 3.77076 11.7153 4.14174 11.4865 4.37061C11.2577 4.5994 10.8866 4.5994 10.6578 4.37061ZM10.0424 7.02807C9.71886 7.02811 9.45659 6.76584 9.45655 6.44221C9.45651 6.11858 9.71886 5.85623 10.0425 5.85627C10.3661 5.85631 10.6284 6.11862 10.6283 6.44213C10.6284 6.7658 10.366 7.02815 10.0424 7.02807ZM13.558 3.51248C13.2345 3.51252 12.9722 3.25026 12.9722 2.92662C12.9722 2.60295 13.2345 2.34065 13.5582 2.34065C13.8818 2.34069 14.1441 2.60299 14.144 2.92651C14.144 3.25018 13.8817 3.51248 13.558 3.51248ZM10.6578 9.34244C10.4291 9.11365 10.4291 8.7426 10.6578 8.51381C10.8867 8.28494 11.2577 8.28502 11.4865 8.51381C11.7153 8.7426 11.7153 9.11358 11.4865 9.34244C11.2577 9.57127 10.8866 9.57127 10.6578 9.34244ZM12.3151 7.68518C11.6297 6.99979 11.6297 5.88467 12.3151 5.19924C13.0005 4.51381 14.1156 4.51385 14.801 5.19924C15.4864 5.88463 15.4864 6.99975 14.801 7.68518C14.1156 8.37057 13.0005 8.37057 12.3151 7.68518ZM13.5581 10.5437C13.2344 10.5437 12.9721 10.2814 12.9722 9.95787C12.9722 9.63424 13.2345 9.3719 13.5582 9.37194C13.8817 9.3719 14.144 9.63416 14.144 9.9578C14.1441 10.2814 13.8817 10.5438 13.5581 10.5437ZM15.6297 9.34244C15.4009 9.11365 15.4009 8.7426 15.6297 8.51381C15.8585 8.28494 16.2295 8.28502 16.4583 8.51381C16.6871 8.7426 16.6872 9.11358 16.4583 9.34244C16.2295 9.57127 15.8585 9.57127 15.6297 9.34244Z" fill="white"/>
<path d="M6.51572 9.34125L4.44287 11.4141L8.58607 15.5573L10.6589 13.4845C9.75377 13.1133 8.90561 12.5623 8.17174 11.8284C7.43787 11.0946 6.88689 10.2464 6.51572 9.34125Z" fill="white"/>
<path d="M3.19998 12.657C2.19962 13.6574 2.07552 15.2069 2.82759 16.344L0.17189 18.9997C-0.0571338 19.2287 -0.0571338 19.5993 0.17189 19.8283C0.400913 20.0573 0.771538 20.0573 1.00052 19.8283L3.65623 17.1726C4.7933 17.9247 6.34283 17.8006 7.34318 16.8002L7.75751 16.3859L3.61431 12.2427L3.19998 12.657Z" fill="white"/>
</g>
<defs>
<clipPath id="clip0">
<rect width="20" height="20" fill="white"/>
</clipPath>
</defs>
</svg>
