<?xml version="1.0" encoding="utf-8"?>
<!-- Generator: Adobe Illustrator 22.0.1, SVG Export Plug-In . SVG Version: 6.00 Build 0)  -->
<svg version="1.1" id="Слой_1" xmlns="http://www.w3.org/2000/svg" xmlns:xlink="http://www.w3.org/1999/xlink" x="0px" y="0px"
	 viewBox="0 0 20 20" enable-background="new 0 0 20 20" xml:space="preserve">
<path fill="#FFFFFF" d="M0,0v20h20V0H0z M1.9,0.7C2.5,0.7,3,1.2,3,1.9S2.5,3,1.9,3S0.7,2.5,0.7,1.9S1.2,0.7,1.9,0.7z M1.9,19.3
	c-0.6,0-1.1-0.5-1.1-1.1S1.2,17,1.9,17S3,17.5,3,18.1S2.5,19.3,1.9,19.3z M10,18.5c-4.7,0-8.5-3.8-8.5-8.5c0-4.7,3.8-8.5,8.5-8.5
	c4.7,0,8.5,3.8,8.5,8.5C18.5,14.7,14.7,18.5,10,18.5z M18.1,19.3c-0.6,0-1.1-0.5-1.1-1.1s0.5-1.1,1.1-1.1s1.1,0.5,1.1,1.1
	S18.8,19.3,18.1,19.3z M18.1,3C17.5,3,17,2.5,17,1.9s0.5-1.1,1.1-1.1s1.1,0.5,1.1,1.1S18.8,3,18.1,3z"/>
<g>
	<path fill="#FFFFFF" d="M10,2.2c-4.3,0-7.8,3.5-7.8,7.8c0,4.3,3.5,7.8,7.8,7.8c4.3,0,7.8-3.5,7.8-7.8C17.8,5.7,14.3,2.2,10,2.2z
		 M5.6,4.4h8.9c0.6,0,1.1,0.5,1.1,1.1s-0.5,1.1-1.1,1.1H5.6c-0.6,0-1.1-0.5-1.1-1.1S4.9,4.4,5.6,4.4z M4.8,7.4h10.4
		c0.6,0,1.1,0.5,1.1,1.1s-0.5,1.1-1.1,1.1H4.8c-0.6,0-1.1-0.5-1.1-1.1S4.2,7.4,4.8,7.4z M14.4,15.6H5.6c-0.6,0-1.1-0.5-1.1-1.1
		c0-0.6,0.5-1.1,1.1-1.1h8.9c0.6,0,1.1,0.5,1.1,1.1C15.6,15.1,15.1,15.6,14.4,15.6z M15.2,12.6H4.8c-0.6,0-1.1-0.5-1.1-1.1
		c0-0.6,0.5-1.1,1.1-1.1h10.4c0.6,0,1.1,0.5,1.1,1.1C16.3,12.1,15.8,12.6,15.2,12.6z"/>
	<path fill="#FFFFFF" d="M14.4,14.1H5.6c-0.2,0-0.4,0.2-0.4,0.4s0.2,0.4,0.4,0.4h8.9c0.2,0,0.4-0.2,0.4-0.4S14.6,14.1,14.4,14.1z"/>
	<path fill="#FFFFFF" d="M4.8,8.9h10.4c0.2,0,0.4-0.2,0.4-0.4s-0.2-0.4-0.4-0.4H4.8c-0.2,0-0.4,0.2-0.4,0.4S4.6,8.9,4.8,8.9z"/>
	<path fill="#FFFFFF" d="M5.6,5.9h8.9c0.2,0,0.4-0.2,0.4-0.4s-0.2-0.4-0.4-0.4H5.6c-0.2,0-0.4,0.2-0.4,0.4S5.4,5.9,5.6,5.9z"/>
	<path fill="#FFFFFF" d="M15.2,11.1H4.8c-0.2,0-0.4,0.2-0.4,0.4s0.2,0.4,0.4,0.4h10.4c0.2,0,0.4-0.2,0.4-0.4S15.4,11.1,15.2,11.1z"
		/>
</g>
</svg>
