<svg width="20" height="20" viewBox="0 0 20 20" fill="none" xmlns="http://www.w3.org/2000/svg">
<path d="M19.549 1.34074C19.3034 1.12417 18.9867 1.00564 18.6593 1.00775C18.3378 1.00982 18.0278 1.12811 17.7867 1.34078H16.5411C16.2595 0.544318 15.5075 0.0109867 14.6627 0.00860596H5.33738C4.49139 0.00958168 3.7377 0.543186 3.45568 1.34078H2.21343C1.6616 0.85413 0.819782 0.906975 0.33313 1.45877C-0.153522 2.01056 -0.100716 2.85241 0.451115 3.33907C0.954627 3.78314 1.70992 3.78314 2.21343 3.33907H3.33914V17.9932C3.33914 19.0968 4.2338 19.9915 5.33742 19.9915H11.3323C12.4359 19.9915 13.3306 19.0968 13.3306 17.9932V17.3271H14.6627C15.7664 17.3271 16.661 16.4324 16.661 15.3288V3.33907H17.7867C18.3386 3.82572 19.1804 3.77287 19.667 3.22104C20.1536 2.66921 20.1008 1.82736 19.549 1.34074ZM3.3391 2.67296H2.62639C2.65594 2.56434 2.67163 2.45245 2.67303 2.33993C2.67163 2.2274 2.65594 2.11547 2.62639 2.00689H3.3391V2.67296ZM14.6627 0.674675C15.1382 0.675182 15.5773 0.929027 15.8151 1.34078H13.517C13.7536 0.931095 14.1897 0.677563 14.6627 0.674675ZM15.9949 15.3288C15.9949 16.0645 15.3985 16.661 14.6627 16.661H13.3306V3.33907H15.9949V15.3288H15.9949ZM17.3737 2.67296H13.3306V2.00689H17.3738C17.3442 2.11551 17.3285 2.2274 17.3271 2.33993C17.3285 2.45248 17.3442 2.56438 17.3737 2.67296Z" fill="white"/>
</svg>
