<?xml version="1.0" encoding="utf-8"?>
<!-- Generator: Adobe Illustrator 22.0.1, SVG Export Plug-In . SVG Version: 6.00 Build 0)  -->
<svg version="1.1"
	 id="Слой_1" shape-rendering="geometricPrecision" text-rendering="geometricPrecision" image-rendering="optimizeQuality"
	 xmlns="http://www.w3.org/2000/svg" xmlns:xlink="http://www.w3.org/1999/xlink" x="0px" y="0px" viewBox="0 0 39 65"
	 style="enable-background:new 0 0 39 65;" xml:space="preserve">
<g id="Слой_x0020_1">
	<path style="fill:#8F493D;" d="M0,59.1V7l0-0.2c0,0,1.2-3.6,6.7-3.8l2.4,0L11,3c2,0.1,2.4-0.4,2.8-0.8c0.8-0.9,1.7-1.8,5.6-1.8
		c1.1,0,2.2,0,3.2,0.2c1.2,0.2,2.3,0.6,3,1.3c1.1,1.1,1.7,1.6,2.1,1.8h6.3c1,0,3.1,0,4.1,1.7C39.1,7,39,7.4,39,7.4v51.1l-0.4,0.4
		c0,0-12.3,11.8-37.9,1.3L0,59.9V59.1z M2.3,7.4v51c21.2,8.4,32.2,0.9,34.3-0.9V7.4c0,0-0.1,0-0.5-0.7c-0.3-0.5-1.6-0.5-2.1-0.5
		c-2.2,0.1-4.7,0-6.9,0L26.9,6c0,0-1.1-0.5-2.9-2.4c-0.3-0.3-0.9-0.5-1.7-0.6c-0.9-0.1-1.9-0.2-2.9-0.2c-2.9,0-3.4,0.5-3.9,1.1
		C14.7,4.7,14,5.5,11,5.4l-1.8,0c-0.7,0-1.5,0-2.3,0C3.5,5.5,2.6,7,2.3,7.4z"/>
	<polygon style="fill:#8F493D;" points="7.5,25.5 7.5,39.2 5.2,39.2 5.2,25.5 	"/>
	<polygon style="fill:#8F493D;" points="33.4,25.5 33.4,39.2 31.1,39.2 31.1,25.5 	"/>
	<path style="fill:#8F493D;" d="M1.5,53.8c6,1.8,12,2.8,18,2.8c6,0,12-0.9,18-2.8l0.7,2.2c-6.2,2-12.5,2.9-18.7,2.9
		c-6.2,0-12.4-1-18.7-2.9L1.5,53.8z"/>
	<polygon style="fill:#8F493D;" points="12.1,4.2 12.1,57 9.8,57 9.8,4.2 	"/>
	<polygon style="fill:#8F493D;" points="28.7,4.2 28.7,57 26.4,57 26.4,4.2 	"/>
</g>
</svg>
