<?xml version="1.0" encoding="utf-8"?>
<!-- Generator: Adobe Illustrator 22.0.1, SVG Export Plug-In . SVG Version: 6.00 Build 0)  -->
<svg version="1.1"
	 id="Слой_1" shape-rendering="geometricPrecision" text-rendering="geometricPrecision" image-rendering="optimizeQuality"
	 xmlns="http://www.w3.org/2000/svg" xmlns:xlink="http://www.w3.org/1999/xlink" x="0px" y="0px" viewBox="0 0 25 25"
	 enable-background="new 0 0 25 25" xml:space="preserve">
<g id="Слой_x0020_1">
	<g id="_1122059310672">
		<g>
			<g>
				<g>
					<path fill="#656565" d="M16.7,1.9c0.1,0,0.2-0.1,0.2-0.1s0.2,0,0.3,0.1l2.4,3.2h2.1L18.5,1c-0.6-0.8-1.9-1.1-2.8-0.4l-1.1,0.8
						l1,1.4L16.7,1.9z"/>
					<path fill="#656565" d="M11,1.9c0.1,0,0.1-0.1,0.2-0.1c0,0,0.2,0,0.3,0.1l2.4,3.2h2.1L12.8,1c-0.7-0.8-1.9-1.1-2.8-0.4L3.6,5.2
						h2.8L11,1.9z"/>
					<path fill="#656565" d="M13.4,15.9c0-2.1,1.7-3.7,3.7-3.7h6.3V8.4c0-0.8-0.7-1.5-1.5-1.5H1.5C0.7,6.9,0,7.6,0,8.4v14.9
						c0,0.9,0.7,1.5,1.5,1.5h20.3c0.8,0,1.5-0.7,1.5-1.5v-3.7h-6.3C15.1,19.5,13.4,17.9,13.4,15.9z"/>
					<path fill="#656565" d="M24.2,13.4h-7.1c-1.3,0-2.4,1.1-2.4,2.5c0,1.3,1.1,2.4,2.4,2.4h7.1c0.4,0,0.8-0.4,0.8-0.8v-3.3
						C25,13.8,24.6,13.4,24.2,13.4z"/>
				</g>
			</g>
		</g>
	</g>
</g>
</svg>
