<svg width="21" height="20" viewBox="0 0 21 20" fill="none" xmlns="http://www.w3.org/2000/svg">
<path d="M18.7121 5.4363L18.6884 5.45347L18.6917 5.48254L19.1865 9.7533L9.0105 19.9293L0.0707103 10.9895L10.2465 0.813512L15.9721 1.47685L15.9962 1.47964L16.0133 1.46254C16.0177 1.45805 16.0234 1.45214 16.0285 1.44685C16.0317 1.44345 16.0347 1.4403 16.037 1.43797C16.6867 0.788328 17.4581 0.3284 18.2075 0.141057C19.0531 -0.0703989 19.8106 0.0913923 20.2922 0.573049C20.8565 1.13733 20.9487 1.9974 20.653 2.89997C20.3576 3.80189 19.6769 4.73712 18.7121 5.4363ZM18.48 1.23109L18.4921 1.2796L18.48 1.23109C18.1269 1.31937 17.7538 1.50193 17.4007 1.75191L17.3523 1.78616L17.3942 1.82808L18.3828 2.81671L18.5233 4.02929L18.5351 4.13096L18.608 4.05918C19.0768 3.598 19.4168 3.04943 19.5826 2.55676C19.6655 2.31047 19.7054 2.07609 19.6947 1.87239C19.684 1.6687 19.6222 1.49202 19.4977 1.36747C19.2925 1.16232 18.9156 1.12221 18.48 1.23109ZM10.6809 1.99508L10.6569 1.9923L10.6398 2.0094L1.69507 10.9541L1.65971 10.9895L1.69507 11.0249L8.97515 18.3049L9.0105 18.3403L9.04586 18.3049L17.9908 9.36018L18.0079 9.34309L18.0051 9.31907L17.3138 3.35198L17.3118 3.33469L17.2995 3.32238L16.6778 2.70067L16.6655 2.68837L16.6482 2.68636L16.4812 2.66694L16.4529 2.66365L16.4356 2.68635C16.1418 3.07299 15.9277 3.48948 15.8297 3.8815L15.8782 3.89363L15.8297 3.8815C15.7208 4.31718 15.7609 4.69404 15.9661 4.89919L16.0015 4.86384L15.9661 4.89919L16.796 5.72897L16.0015 6.52355L13.4766 3.99855L14.271 3.20412L14.6651 3.59815L14.7268 3.65988L14.7488 3.5754C14.835 3.24462 14.974 2.91017 15.1588 2.58379L15.196 2.51816L15.1211 2.50948L10.6809 1.99508Z" fill="white" stroke="white" stroke-width="0.1"/>
</svg>
