<?xml version="1.0" encoding="utf-8"?>
<!-- Generator: Adobe Illustrator 22.0.1, SVG Export Plug-In . SVG Version: 6.00 Build 0)  -->
<svg version="1.1"
	 id="Слой_1" shape-rendering="geometricPrecision" text-rendering="geometricPrecision" image-rendering="optimizeQuality"
	 xmlns="http://www.w3.org/2000/svg" xmlns:xlink="http://www.w3.org/1999/xlink" x="0px" y="0px" viewBox="0 0 59 59"
	 enable-background="new 0 0 59 59" xml:space="preserve">
<g id="Слой_x0020_1">
	<g id="_1121861410992">
		<path fill="#656565" d="M26,47.7c0,2.4-2,4.4-4.5,4.4c-2.4,0-4.4-2-4.4-4.5c0-2.4,2-4.4,4.4-4.4C24,43.3,26,45.2,26,47.7z
			 M15.6,19H45c0.4,0,0.8,0.2,1.1,0.6c0.3,0.4,0.3,0.8,0.2,1.2l-3.8,11C41.8,33.7,40,35,38,35H18.2l0.4,2.7c0.2,1,1,1.8,2,1.8h20.1
			c0.7,0,1.3,0.6,1.3,1.3c0,0.7-0.6,1.3-1.3,1.3H20.7c-2.3,0-4.3-1.7-4.7-4l-3.3-20.5c-0.2-1-1-1.8-2.1-1.8H6.6
			c-0.7,0-1.3-0.6-1.3-1.3c0-0.7,0.6-1.3,1.3-1.3h4.1c2.3,0,4.3,1.7,4.7,4L15.6,19z M35.6,52.2c-2.5,0-4.4-2-4.5-4.4
			c0-2.5,2-4.5,4.5-4.5c2.5,0,4.4,2,4.4,4.5C40.1,50.2,38.1,52.2,35.6,52.2z M19.8,47.7c0,1,0.8,1.8,1.8,1.8c1,0,1.8-0.8,1.8-1.8
			c0-1-0.8-1.8-1.8-1.8C20.6,45.9,19.8,46.7,19.8,47.7z M43.1,21.7H16.1l1.7,10.7H38c0.9,0,1.7-0.6,2-1.4L43.1,21.7z M35.6,45.9
			c-1,0-1.8,0.8-1.8,1.8c0,1,0.8,1.8,1.8,1.8s1.8-0.8,1.8-1.8C37.4,46.7,36.6,45.9,35.6,45.9z"/>
	</g>
	<path fill="#656565" d="M25.3,47.7c0-2.1-1.7-3.8-3.8-3.8c-2.1,0-3.8,1.7-3.8,3.8c0,2.1,1.7,3.8,3.8,3.8
		C23.7,51.5,25.3,49.8,25.3,47.7z M6.6,15.2h4.1c1.4,0,2.5,1,2.7,2.3L16.6,38c0.3,2,2,3.5,4,3.5h20.1c0.4,0,0.7-0.3,0.7-0.7
		c0-0.4-0.3-0.7-0.7-0.7H20.7c-1.3,0-2.5-1-2.7-2.3l-0.6-3.5H38c1.7,0,3.3-1.1,3.9-2.8l3.8-11c0.1-0.2,0-0.4-0.1-0.6
		c-0.1-0.2-0.3-0.3-0.5-0.3H15.1l-0.4-2.4c-0.3-2-2-3.5-4-3.5H6.6c-0.4,0-0.7,0.3-0.7,0.7C5.9,14.9,6.2,15.2,6.6,15.2L6.6,15.2z
		 M44.1,21l-3.5,10.1C40.2,32.3,39.1,33,38,33H17.2l-1.9-12H44.1z M35.6,51.5c2.1,0,3.8-1.7,3.8-3.8c0-2.1-1.7-3.8-3.8-3.8
		c-2.1,0-3.8,1.7-3.8,3.8C31.8,49.8,33.5,51.5,35.6,51.5z M35.6,45.2c1.3,0,2.4,1.1,2.4,2.4c0,1.4-1.1,2.5-2.4,2.5s-2.4-1.1-2.4-2.4
		C33.2,46.3,34.3,45.2,35.6,45.2z M19.1,47.7c0-1.4,1.1-2.5,2.4-2.5c1.4,0,2.5,1.1,2.5,2.4c0,1.4-1.1,2.5-2.5,2.5
		C20.2,50.2,19.1,49.1,19.1,47.7z"/>
	<path fill="#656565" d="M29.5,0C37.6,0,45,3.3,50.4,8.6S59,21.4,59,29.5S55.7,45,50.4,50.4S37.6,59,29.5,59S14,55.7,8.6,50.4
		S0,37.6,0,29.5S3.3,14,8.6,8.6S21.4,0,29.5,0z M48.7,10.3C43.8,5.4,37,2.4,29.5,2.4s-14.3,3-19.2,7.9S2.4,22,2.4,29.5
		s3,14.3,7.9,19.2s11.7,7.9,19.2,7.9s14.3-3,19.2-7.9s7.9-11.7,7.9-19.2S53.6,15.2,48.7,10.3z"/>
</g>
</svg>
