<svg width="20" height="20" viewBox="0 0 20 20" fill="none" xmlns="http://www.w3.org/2000/svg">
<path d="M16.6666 18.3333H16.3333V17.6666C16.3333 17.4825 16.1841 17.3333 16 17.3333H15.6667V0.33332C15.6667 0.149219 15.5174 0 15.3334 0H4.66664C4.48254 0 4.33332 0.149219 4.33332 0.33332V17.3333H3.99996C3.81586 17.3333 3.66664 17.4826 3.66664 17.6666V18.3333H3.33332C3.14922 18.3333 3 18.4825 3 18.6666V19.6666C3 19.8507 3.14922 20 3.33332 20H16.6666C16.8507 20 17 19.8507 17 19.6666V18.6666C17 18.4826 16.8507 18.3333 16.6666 18.3333ZM15 17.3333H4.99996V10.3333H5.99996C6.18406 10.3333 6.33328 10.1841 6.33328 10V8.33332C6.33328 8.14922 6.18402 8 5.99996 8H4.99996V0.66668H9.66664V1.69668C8.53996 1.88336 7.66664 3 7.66664 4.33336C7.66664 4.51746 7.81586 4.66668 7.99996 4.66668H12C12.1841 4.66668 12.3333 4.51746 12.3333 4.33336C12.3333 3.00004 11.46 1.88336 10.3333 1.70004V0.66668H15V17.3333Z" fill="white"/>
<path d="M9.33326 5.33331C9.14916 5.33331 8.99994 5.48253 8.99994 5.66663V5.99995C8.99994 6.18405 9.14916 6.33327 9.33326 6.33327C9.51736 6.33327 9.66658 6.18402 9.66658 5.99995V5.66663C9.66662 5.48257 9.51736 5.33331 9.33326 5.33331Z" fill="white"/>
<path d="M9.33326 7C9.14916 7 8.99994 7.14922 8.99994 7.33332V7.66664C8.99994 7.85074 9.14916 7.99996 9.33326 7.99996C9.51736 7.99996 9.66658 7.85074 9.66658 7.66664V7.33332C9.66662 7.14926 9.51736 7 9.33326 7Z" fill="white"/>
<path d="M9.33326 8.66669C9.14916 8.66669 8.99994 8.81591 8.99994 9.00001V9.33333C8.99994 9.51743 9.14916 9.66665 9.33326 9.66665C9.51736 9.66665 9.66658 9.51743 9.66658 9.33333V9.00001C9.66662 8.81591 9.51736 8.66669 9.33326 8.66669Z" fill="white"/>
<path d="M9.33326 10.3334C9.14916 10.3334 8.99994 10.4826 8.99994 10.6667V11C8.99994 11.1841 9.14916 11.3333 9.33326 11.3333C9.51736 11.3333 9.66658 11.1841 9.66658 11V10.6667C9.66662 10.4826 9.51736 10.3334 9.33326 10.3334Z" fill="white"/>
<path d="M8.00001 5.33331C7.81591 5.33331 7.66669 5.48253 7.66669 5.66663V5.99995C7.66669 6.18405 7.81591 6.33327 8.00001 6.33327C8.18411 6.33327 8.33333 6.18402 8.33333 5.99995V5.66663C8.33333 5.48257 8.18411 5.33331 8.00001 5.33331Z" fill="white"/>
<path d="M8.00001 7C7.81591 7 7.66669 7.14922 7.66669 7.33332V7.66664C7.66669 7.85074 7.81591 7.99996 8.00001 7.99996C8.18411 7.99996 8.33333 7.85074 8.33333 7.66664V7.33332C8.33333 7.14926 8.18411 7 8.00001 7Z" fill="white"/>
<path d="M8.00001 8.66669C7.81591 8.66669 7.66669 8.81591 7.66669 9.00001V9.33333C7.66669 9.51743 7.81591 9.66665 8.00001 9.66665C8.18411 9.66665 8.33333 9.51743 8.33333 9.33333V9.00001C8.33333 8.81591 8.18411 8.66669 8.00001 8.66669Z" fill="white"/>
<path d="M8.00001 10.3334C7.81591 10.3334 7.66669 10.4826 7.66669 10.6667V11C7.66669 11.1841 7.81591 11.3333 8.00001 11.3333C8.18411 11.3333 8.33333 11.1841 8.33333 11V10.6667C8.33333 10.4826 8.18411 10.3334 8.00001 10.3334Z" fill="white"/>
<path d="M10.6666 5.33331C10.4825 5.33331 10.3333 5.48253 10.3333 5.66663V5.99995C10.3333 6.18405 10.4826 6.33327 10.6666 6.33327C10.8507 6.33327 11 6.18402 11 5.99995V5.66663C11 5.48257 10.8507 5.33331 10.6666 5.33331Z" fill="white"/>
<path d="M10.6666 7C10.4825 7 10.3333 7.14922 10.3333 7.33332V7.66664C10.3333 7.85074 10.4826 7.99996 10.6666 7.99996C10.8507 7.99996 11 7.85074 11 7.66664V7.33332C11 7.14926 10.8507 7 10.6666 7Z" fill="white"/>
<path d="M10.6666 8.66669C10.4825 8.66669 10.3333 8.81591 10.3333 9.00001V9.33333C10.3333 9.51743 10.4826 9.66665 10.6666 9.66665C10.8507 9.66665 11 9.51743 11 9.33333V9.00001C11 8.81591 10.8507 8.66669 10.6666 8.66669Z" fill="white"/>
<path d="M10.6666 10.3334C10.4825 10.3334 10.3333 10.4826 10.3333 10.6667V11C10.3333 11.1841 10.4826 11.3333 10.6666 11.3333C10.8507 11.3333 11 11.1841 11 11V10.6667C11 10.4826 10.8507 10.3334 10.6666 10.3334Z" fill="white"/>
<path d="M12 5.33331C11.8159 5.33331 11.6667 5.48253 11.6667 5.66663V5.99995C11.6667 6.18405 11.8159 6.33327 12 6.33327C12.1841 6.33327 12.3333 6.18402 12.3333 5.99995V5.66663C12.3333 5.48257 12.1841 5.33331 12 5.33331Z" fill="white"/>
<path d="M12 7C11.8159 7 11.6667 7.14922 11.6667 7.33332V7.66664C11.6667 7.85074 11.8159 7.99996 12 7.99996C12.1841 7.99996 12.3333 7.85074 12.3333 7.66664V7.33332C12.3333 7.14926 12.1841 7 12 7Z" fill="white"/>
<path d="M12 8.66669C11.8159 8.66669 11.6667 8.81591 11.6667 9.00001V9.33333C11.6667 9.51743 11.8159 9.66665 12 9.66665C12.1841 9.66665 12.3333 9.51743 12.3333 9.33333V9.00001C12.3333 8.81591 12.1841 8.66669 12 8.66669Z" fill="white"/>
<path d="M12 10.3334C11.8159 10.3334 11.6667 10.4826 11.6667 10.6667V11C11.6667 11.1841 11.8159 11.3333 12 11.3333C12.1841 11.3333 12.3333 11.1841 12.3333 11V10.6667C12.3333 10.4826 12.1841 10.3334 12 10.3334Z" fill="white"/>
</svg>
