<?xml version="1.0" encoding="utf-8"?>
<!-- Generator: Adobe Illustrator 22.1.0, SVG Export Plug-In . SVG Version: 6.00 Build 0)  -->
<svg version="1.1" id="Слой_1" xmlns="http://www.w3.org/2000/svg" xmlns:xlink="http://www.w3.org/1999/xlink" x="0px" y="0px"
	 viewBox="0 0 20 15.2" style="enable-background:new 0 0 20 15.2;" xml:space="preserve">
<style type="text/css">
	.st0{fill:#4F4F4F;}
</style>
<path class="st0" d="M18.2,0H1.8C0.8,0,0,0.8,0,1.8v11.7c0,1,0.8,1.8,1.8,1.8h16.5c1,0,1.8-0.8,1.8-1.8V1.8C20,0.8,19.2,0,18.2,0z
	 M18,1.2l-8,8l-8-8H18z M1.2,13.2V2l5.6,5.6L1.2,13.2z M2,14.1l5.6-5.6l2,2c0.2,0.2,0.6,0.2,0.8,0l1.9-1.9l5.6,5.6H2z M18.8,13.2
	l-5.6-5.6L18.8,2V13.2z"/>
</svg>
