<?xml version="1.0" encoding="utf-8"?>
<!-- Generator: Adobe Illustrator 22.0.1, SVG Export Plug-In . SVG Version: 6.00 Build 0)  -->
<svg version="1.1"
	 id="Слой_1" shape-rendering="geometricPrecision" text-rendering="geometricPrecision" image-rendering="optimizeQuality"
	 xmlns="http://www.w3.org/2000/svg" xmlns:xlink="http://www.w3.org/1999/xlink" x="0px" y="0px" viewBox="0 0 65 65"
	 enable-background="new 0 0 65 65" xml:space="preserve">
<g id="Слой_x0020_1">
	<path fill="#8F493D" d="M61.7,51.5c0.4-0.9,0.7-1.8,0.7-2.8c0-3.6-2.9-6.5-6.5-6.5h-0.4c-0.5,0-1.1,0.1-1.6,0.2
		c-2.3,0.6-4.7,0.9-7.1,0.9h-3.3c-2.4,0-4.8-0.3-7.1-0.9c-0.5-0.1-1-0.2-1.6-0.2h-0.4c-0.7,0-1.5,0.1-2.2,0.4V32.5h-0.1
		c-0.4-6-4.1-11.3-9.6-13.7V11h-3.2V6.7h3.2V4.5h6.5c0.6,0,1.1,0.5,1.1,1.1v2.2h2.2V5.6c0-1.8-1.4-3.2-3.2-3.2h-6.5V0.2H9.7v6.5h3.2
		V11H9.7v7.8c-5.5,2.4-9.2,7.7-9.6,13.7H0v29.1c0,1.8,1.4,3.2,3.2,3.2h25.8c0.9,0,1.9-0.4,2.5-1.2c1.2,0.8,2.6,1.2,4,1.2h19.4
		c3.7,0,6.9-2.8,7.4-6.5h0.3v-0.1c-0.2,0.1-0.5,0.1-0.7,0.1h-1.9c-0.5,2.5-2.7,4.3-5.2,4.3l-19.4-0.1c-1.4,0-2.7-0.8-3.6-1.8
		c-0.2-0.2-0.5-0.5-0.7-0.8c-0.1-0.1-0.1-0.2-0.2-0.3c-0.1-0.2-0.3-0.4-0.4-0.6c0-0.1-0.1-0.2-0.1-0.3c-0.1-0.2-0.1-0.4-0.2-0.6
		h-3.2c-0.5,0-1-0.2-1.4-0.6v0.6h2.2c0,0.1,0,0.1,0,0.2c0,0.3,0.1,0.5,0.2,0.8c0,0.1,0,0.1,0.1,0.2c0.1,0.3,0.2,0.6,0.3,0.9
		c0,0.1,0.1,0.1,0.1,0.2c0.1,0.2,0.2,0.5,0.4,0.7c0.1,0.1,0.1,0.2,0.2,0.2c0.2,0.3,0.4,0.5,0.6,0.8l0,0c-0.2,0.3-0.5,0.4-0.8,0.4
		l0,0H3.2c-0.6,0-1.1-0.5-1.1-1.1v-5.4h23.2V54H2.2V34.7h28v9.2c0,0-0.1,0-0.1,0.1c-0.1,0.1-0.2,0.1-0.2,0.2
		c-0.1,0.1-0.2,0.2-0.3,0.3c-0.1,0.1-0.1,0.2-0.2,0.2c-0.1,0.1-0.2,0.2-0.2,0.3c-0.1,0.1-0.1,0.2-0.2,0.3c-0.1,0.1-0.1,0.2-0.2,0.3
		c-0.1,0.1-0.1,0.2-0.1,0.3c-0.1,0.1-0.1,0.3-0.2,0.4c0,0.1-0.1,0.2-0.1,0.3c0,0.1-0.1,0.3-0.1,0.4c0,0.1,0,0.2-0.1,0.3
		c0,0.2-0.1,0.3-0.1,0.5c0,0.1,0,0.2,0,0.2c0,0.2,0,0.5,0,0.7c0,0.3,0,0.5,0.1,0.8c0,0.1,0,0.2,0,0.3c0,0.2,0.1,0.4,0.1,0.5
		c0,0.1,0.1,0.2,0.1,0.3c0,0.2,0.1,0.3,0.2,0.5c0,0.1,0.1,0.2,0.1,0.3l0.1,0.2h2.6c-0.7-0.8-1.1-1.8-1.1-2.9c0-1.3,0.6-2.6,1.7-3.4
		l0,0c0.7-0.6,1.7-0.9,2.6-0.9h0.4c0.4,0,0.7,0,1.1,0.1c2.5,0.6,5,0.9,7.6,0.9h3.3c2.6,0,5.1-0.3,7.6-0.9c0.3-0.1,0.7-0.1,1-0.1H56
		c2.4,0,4.3,1.9,4.3,4.3l0,0c0,1-0.4,2.1-1.1,2.8H61.7z M11.8,4.5V2.4h8.6v2.2H11.8z M15.1,6.7h2.2V11h-2.2V6.7z M11.8,17.4v-4.3
		h8.6v4.3H11.8z M16.1,19.6c7.3,0,13.4,5.6,13.9,12.9H2.2C2.8,25.2,8.8,19.6,16.1,19.6L16.1,19.6z M26,51.9h-0.2v0.2
		C25.9,52,26,51.9,26,51.9z"/>
	<rect x="8.6" y="36.8" fill="#8F493D" width="15.1" height="2.2"/>
	<rect x="12.9" y="41.1" fill="#8F493D" width="6.5" height="2.2"/>
	<rect x="10.8" y="45.4" fill="#8F493D" width="10.8" height="2.2"/>
	<rect x="8.6" y="49.7" fill="#8F493D" width="6.5" height="2.2"/>
	<rect x="17.2" y="49.7" fill="#8F493D" width="6.5" height="2.2"/>
	<path fill="#8F493D" d="M24.1,56.5v-3.1c0-0.8,0.3-1.6,0.9-2.2c0.6-0.6,1.3-0.9,2.2-0.9H62c0.8,0,1.6,0.3,2.2,0.9s0.9,1.3,0.9,2.2
		v3.1c0,0.8-0.3,1.6-0.9,2.1c-0.5,0.6-1.3,0.9-2.2,0.9H27.2c-0.8,0-1.6-0.3-2.2-0.9C24.5,58.1,24.1,57.3,24.1,56.5z M26.5,53.3v3.1
		c0,0.2,0.1,0.4,0.2,0.5c0.1,0.1,0.3,0.2,0.5,0.2H62c0.2,0,0.4-0.1,0.5-0.2c0.1-0.1,0.2-0.3,0.2-0.5v-3.1c0-0.2-0.1-0.4-0.2-0.5
		s-0.3-0.2-0.5-0.2H27.2c-0.2,0-0.4,0.1-0.5,0.2C26.6,53,26.5,53.2,26.5,53.3z"/>
	<path fill="#8F493D" d="M38,18.8c1.6,0,3,0.6,4,1.7c1,1,1.7,2.5,1.7,4s-0.6,3-1.7,4c-1,1-2.5,1.7-4,1.7s-3-0.6-4-1.7
		c-1-1-1.7-2.5-1.7-4s0.6-3,1.7-4C35,19.4,36.4,18.8,38,18.8z M40.4,22.1c-0.6-0.6-1.5-1-2.4-1c-0.9,0-1.8,0.4-2.4,1s-1,1.5-1,2.4
		c0,0.9,0.4,1.8,1,2.4s1.5,1,2.4,1c0.9,0,1.8-0.4,2.4-1s1-1.5,1-2.4C41.4,23.6,41,22.7,40.4,22.1z"/>
	<path fill="#8F493D" d="M55.7,21.2c1.3,0,2.5,0.5,3.3,1.4c0.9,0.9,1.4,2,1.4,3.3s-0.5,2.5-1.4,3.3c-0.9,0.8-2,1.4-3.3,1.4
		s-2.5-0.5-3.3-1.4c-0.8-0.8-1.4-2-1.4-3.3s0.5-2.5,1.4-3.3C53.3,21.7,54.4,21.2,55.7,21.2z M57.3,24.2c-0.4-0.4-1-0.7-1.6-0.7
		s-1.2,0.3-1.6,0.7c-0.4,0.4-0.7,1-0.7,1.7c0,0.6,0.3,1.2,0.7,1.6c0.4,0.4,1,0.7,1.6,0.7s1.2-0.3,1.6-0.7c0.4-0.4,0.7-1,0.7-1.6
		C58,25.2,57.8,24.6,57.3,24.2z"/>
	<path fill="#8F493D" d="M47.6,28.3c2.1,0,4,0.8,5.3,2.2c1.4,1.4,2.2,3.2,2.2,5.3c0,2.1-0.8,4-2.2,5.3c-1.4,1.4-3.2,2.2-5.3,2.2
		c-2.1,0-4-0.8-5.3-2.2c-1.4-1.4-2.2-3.2-2.2-5.3c0-2.1,0.8-4,2.2-5.3C43.7,29.1,45.5,28.3,47.6,28.3z M51.3,32.1
		c-0.9-0.9-2.3-1.5-3.7-1.5c-1.4,0-2.7,0.6-3.7,1.5s-1.5,2.2-1.5,3.7s0.6,2.8,1.5,3.7c0.9,0.9,2.2,1.5,3.7,1.5
		c1.4,0,2.8-0.6,3.7-1.5c0.9-0.9,1.5-2.3,1.5-3.7S52.3,33.1,51.3,32.1z"/>
</g>
</svg>
