<?xml version="1.0" encoding="utf-8"?>
<!-- Generator: Adobe Illustrator 22.0.1, SVG Export Plug-In . SVG Version: 6.00 Build 0)  -->
<svg version="1.1"
	 id="Слой_1" shape-rendering="geometricPrecision" text-rendering="geometricPrecision" image-rendering="optimizeQuality"
	 xmlns="http://www.w3.org/2000/svg" xmlns:xlink="http://www.w3.org/1999/xlink" x="0px" y="0px" viewBox="0 0 58 58"
	 enable-background="new 0 0 58 58" xml:space="preserve">
<g id="Слой_x0020_1">
	<path fill="#656565" d="M58,29C58,13,45,0,29,0S0,13,0,29c0,8.4,3.6,16,9.4,21.4l0,0l0.9,0.8c0.1,0,0.1,0.1,0.2,0.1
		c0.5,0.4,1,0.8,1.5,1.2c0.2,0.1,0.3,0.2,0.5,0.4c0.6,0.4,1.1,0.8,1.7,1.1c0.1,0.1,0.3,0.1,0.4,0.2c0.6,0.4,1.3,0.7,2,1
		c0.1,0,0.1,0,0.1,0.1c2.2,1,4.6,1.8,7,2.2c0.1,0,0.1,0,0.2,0c0.8,0.1,1.5,0.2,2.3,0.3c0.1,0,0.2,0,0.3,0c0.8,0.1,1.6,0.1,2.4,0.1
		c0.8,0,1.6-0.1,2.3-0.1c0.1,0,0.2,0,0.3,0c0.8-0.1,1.5-0.2,2.3-0.3c0.1,0,0.1,0,0.2,0c2.4-0.4,4.8-1.2,6.9-2.2
		c0.1,0,0.1-0.1,0.2-0.1c0.6-0.3,1.3-0.6,1.9-1c0.2-0.1,0.3-0.2,0.5-0.3c0.6-0.3,1.1-0.7,1.7-1.1c0.2-0.1,0.4-0.3,0.6-0.4
		c0.5-0.3,0.9-0.7,1.4-1c0.1-0.1,0.2-0.1,0.3-0.2l1-0.8l0,0C54.3,45.1,58,37.5,58,29z M2.1,29C2.1,14.2,14.2,2.1,29,2.1
		S55.9,14.2,55.9,29c0,8-3.5,15.2-9,20.1c-0.3-0.2-0.6-0.4-0.9-0.6L37,44.1c-0.8-0.4-1.3-1.2-1.3-2.1v-3.1c0.2-0.3,0.4-0.6,0.7-0.9
		c1.2-1.6,2.1-3.4,2.7-5.4c1.3-0.6,2.2-2,2.2-3.5v-3.7c0-0.9-0.3-1.8-0.9-2.5V18c0.1-0.6,0.3-3.6-2-6.2c-1.9-2.2-5.1-3.3-9.3-3.3
		s-7.4,1.1-9.4,3.3c-2.2,2.5-2,5.6-2,6.2v4.9c-0.6,0.7-0.9,1.6-0.9,2.5v3.7c0,1.2,0.5,2.2,1.4,3c0.8,3.3,2.6,5.9,3.3,6.7v3.1
		c0,0.9-0.5,1.7-1.2,2.1l-8.3,4.6c-0.3,0.1-0.5,0.3-0.8,0.5C5.6,44.1,2.1,36.9,2.1,29z M44.8,50.8c-0.4,0.3-0.7,0.5-1.1,0.8
		c-0.2,0.1-0.4,0.2-0.5,0.3c-0.5,0.3-1,0.6-1.5,0.9c-0.1,0.1-0.2,0.1-0.4,0.2c-1.2,0.6-2.4,1.1-3.7,1.6c0,0-0.1,0-0.1,0
		c-0.7,0.2-1.3,0.4-2,0.6l0,0c-0.7,0.2-1.4,0.3-2.1,0.4c0,0,0,0-0.1,0c-0.6,0.1-1.3,0.2-2,0.2c-0.1,0-0.2,0-0.4,0
		c-0.7,0.1-1.3,0.1-2,0.1s-1.3,0-2-0.1c-0.1,0-0.2,0-0.3,0c-0.7-0.1-1.3-0.1-2-0.2c0,0-0.1,0-0.1,0c-1.4-0.2-2.8-0.6-4.1-1
		c0,0-0.1,0-0.1-0.1c-0.7-0.2-1.3-0.5-2-0.8h0c-0.6-0.3-1.2-0.6-1.8-0.9c-0.1,0-0.1-0.1-0.2-0.1c-0.5-0.3-1.1-0.6-1.6-0.9
		c-0.1-0.1-0.3-0.2-0.5-0.3c-0.5-0.3-1-0.6-1.4-1c0,0-0.1-0.1-0.1-0.1c0,0,0.1-0.1,0.1-0.1l8.3-4.5c1.4-0.8,2.3-2.3,2.3-3.9v-3.8
		l-0.2-0.3c0,0-2.3-2.8-3.2-6.6L20,30.8l-0.4-0.2c-0.5-0.3-0.8-0.9-0.8-1.5v-3.7c0-0.5,0.2-0.9,0.6-1.3l0.4-0.3v-5.9v-0.1
		c0,0-0.3-2.6,1.5-4.6c1.5-1.8,4.1-2.6,7.8-2.6c3.6,0,6.2,0.9,7.7,2.6c1.8,2,1.5,4.6,1.5,4.6v6l0.4,0.3c0.4,0.4,0.6,0.8,0.6,1.3v3.7
		c0,0.8-0.5,1.4-1.2,1.7l-0.5,0.2l-0.2,0.5c-0.6,1.9-1.5,3.7-2.6,5.3c-0.3,0.4-0.5,0.7-0.8,1l-0.3,0.3V42c0,1.7,0.9,3.2,2.5,4
		l8.9,4.5c0.1,0,0.1,0.1,0.2,0.1C45,50.6,44.9,50.7,44.8,50.8z"/>
</g>
</svg>
