<?xml version="1.0" encoding="utf-8"?>
<!-- Generator: Adobe Illustrator 22.0.1, SVG Export Plug-In . SVG Version: 6.00 Build 0)  -->
<svg version="1.1"
	 id="Слой_1" shape-rendering="geometricPrecision" text-rendering="geometricPrecision" image-rendering="optimizeQuality"
	 xmlns="http://www.w3.org/2000/svg" xmlns:xlink="http://www.w3.org/1999/xlink" x="0px" y="0px" viewBox="0 0 39 26"
	 enable-background="new 0 0 39 26" xml:space="preserve">
<g id="Слой_x0020_1">
	<g id="_1122063259552">
		<path fill="#656565" d="M39,13.4C39,13.4,39,13.4,39,13.4c0-0.5-0.4-0.9-0.9-0.9h-0.2l-3.6-7.1C34.1,5.1,33.8,5,33.4,5h-6.2
			l0.2-1.9c0.1-0.7-0.2-1.5-0.7-2c-0.5-0.5-1.2-0.8-1.9-0.8H5.6c-0.5,0-0.9,0.4-1,0.9L4.5,2.7h11c0.7,0,1.3,0.6,1.3,1.3
			c0,0.7-0.6,1.3-1.3,1.3h-3.7l0,0H0.9C0.4,5.2,0,5.6,0,6.2c0,0.5,0.4,0.9,0.9,0.9h14.3c0.7,0.1,1.2,0.7,1.1,1.4
			c0,0.7-0.7,1.4-1.4,1.4H5c-0.5,0-0.9,0.4-0.9,0.9c0,0.5,0.4,0.9,0.9,0.9h9.7c0.7,0.1,1.2,0.7,1.2,1.4c0,0.8-0.7,1.4-1.4,1.4H3.3
			l0,0H2.4c-0.5,0-0.9,0.4-1,0.9c0,0.5,0.4,0.9,0.9,0.9h0.8l-0.3,3.3c-0.1,0.7,0.1,1.5,0.6,2c0.5,0.5,1.2,0.8,1.9,0.8h0.7
			c0.3,1.9,2,3.4,4,3.4c2,0,3.7-1.4,4.2-3.4h8.7c0.7,0,1.4-0.3,1.9-0.7c0.5,0.4,1.1,0.7,1.8,0.7h0.1c0.3,1.9,2,3.4,4,3.4
			c2,0,3.7-1.4,4.2-3.4h0.6c1.5,0,2.8-1.2,3-2.7L39,13.4C39,13.5,39,13.5,39,13.4L39,13.4L39,13.4z M10.1,23.9
			c-1.3,0-2.3-1.1-2.2-2.3c0-1.3,1.1-2.3,2.4-2.3s2.3,1.1,2.2,2.3C12.5,22.8,11.4,23.9,10.1,23.9z M30.8,23.9
			c-1.3,0-2.3-1.1-2.2-2.3c0-1.3,1.1-2.3,2.4-2.3s2.3,1.1,2.2,2.3C33.1,22.8,32.1,23.9,30.8,23.9z M36.6,19.6c0,0.5-0.5,1-1.1,1
			h-0.6c-0.4-1.8-2-3.1-3.9-3.1s-3.6,1.3-4.1,3.1h-0.2c-0.2,0-0.4-0.1-0.6-0.2c-0.2-0.2-0.2-0.4-0.2-0.6l1.2-12.9h2.7l-0.4,4.7
			c-0.1,0.7,0.2,1.5,0.6,2c0.5,0.6,1.2,0.8,1.9,0.8h5.2L36.6,19.6z"/>
	</g>
</g>
</svg>
