<?xml version="1.0" encoding="utf-8"?>
<!-- Generator: Adobe Illustrator 22.1.0, SVG Export Plug-In . SVG Version: 6.00 Build 0)  -->
<svg version="1.1" id="Слой_1" xmlns="http://www.w3.org/2000/svg" xmlns:xlink="http://www.w3.org/1999/xlink" x="0px" y="0px"
	 viewBox="0 0 22 20.5" style="enable-background:new 0 0 22 20.5;" xml:space="preserve">
<style type="text/css">
	.st0{fill:#4F4F4F;}
</style>
<path class="st0" d="M16,17.5H6.7V15L3.6,1.1H0V0h4.4l1.2,5.6H22l-4,9.9H7.7v0.9H16V17.5z M7.2,14.9L7.2,14.9z M7.6,14.4h9.6
	l3.2-7.7H5.9L7.6,14.4z"/>
<path class="st0" d="M16.4,20.5c-1.1,0-2-0.9-2-2c0-1.1,0.9-2,2-2c1.1,0,2,0.9,2,2C18.4,19.6,17.5,20.5,16.4,20.5z M16.4,17.6
	c-0.5,0-0.9,0.4-0.9,0.9c0,0.5,0.4,0.9,0.9,0.9c0.5,0,0.9-0.4,0.9-0.9C17.3,18,16.9,17.6,16.4,17.6z"/>
<path class="st0" d="M8,20.5c-1.1,0-2-0.9-2-2c0-1.1,0.9-2,2-2s2,0.9,2,2C10,19.6,9.1,20.5,8,20.5z M8,17.6c-0.5,0-0.9,0.4-0.9,0.9
	c0,0.5,0.4,0.9,0.9,0.9s0.9-0.4,0.9-0.9C8.9,18,8.5,17.6,8,17.6z"/>
</svg>
