<svg width="20" height="20" viewBox="0 0 20 20" fill="none" xmlns="http://www.w3.org/2000/svg">
<path d="M15.3571 8.21429H4.64285C4.44562 8.21429 4.28571 8.37421 4.28571 8.57144V16.4286H15.7143V8.57144C15.7143 8.37421 15.5544 8.21429 15.3571 8.21429ZM14.2857 16.0714H13.5714V15.3572H14.2857V16.0714ZM15.3571 16.0714H14.6428V15.3572H15.3571V16.0714ZM15.3571 15H14.6428V14.2857H15.3571V15Z" fill="white"/>
<path d="M0.357143 8.57141H1.78571C1.98294 8.57141 2.14286 8.73132 2.14286 8.92855V10.3571C2.14286 10.5544 1.98294 10.7143 1.78571 10.7143H0.357143C0.159912 10.7143 0 10.5544 0 10.3571V8.92855C0 8.73132 0.159912 8.57141 0.357143 8.57141Z" fill="white"/>
<path d="M2.85712 9.28571H3.5714V9.99999H2.85712V9.28571Z" fill="white"/>
<path d="M16.4286 9.28571H17.1429V9.99999H16.4286V9.28571Z" fill="white"/>
<path d="M4.28571 17.1429H15.7143V18.2143H4.28571V17.1429Z" fill="white"/>
<path d="M18.2143 8.57141H19.6428C19.8401 8.57141 20 8.73132 20 8.92855V10.3571C20 10.5544 19.8401 10.7143 19.6428 10.7143H18.2143C18.017 10.7143 17.8571 10.5544 17.8571 10.3571V8.92855C17.8571 8.73132 18.017 8.57141 18.2143 8.57141Z" fill="white"/>
<path d="M4.28571 19.6429C4.28571 19.8401 4.44562 20 4.64285 20H15.3571C15.5544 20 15.7143 19.8401 15.7143 19.6429V18.9286H4.28571V19.6429Z" fill="white"/>
<path d="M2.85712 0.714294H17.1428V1.42858H2.85712V0.714294Z" fill="white"/>
<path d="M0.357143 0H1.78571C1.98294 0 2.14286 0.159912 2.14286 0.357143V1.78571C2.14286 1.98294 1.98294 2.14286 1.78571 2.14286H0.357143C0.159912 2.14286 0 1.98294 0 1.78571V0.357143C0 0.159912 0.159912 0 0.357143 0Z" fill="white"/>
<path d="M18.2143 0H19.6428C19.8401 0 20 0.159912 20 0.357143V1.78571C20 1.98294 19.8401 2.14286 19.6428 2.14286H18.2143C18.017 2.14286 17.8571 1.98294 17.8571 1.78571V0.357143C17.8571 0.159912 18.017 0 18.2143 0Z" fill="white"/>
<path d="M18.2143 4.28571H19.6428C19.8401 4.28571 20 4.44562 20 4.64285V6.07142C20 6.26865 19.8401 6.42856 19.6428 6.42856H18.2143C18.017 6.42856 17.8571 6.26865 17.8571 6.07142V4.64285C17.8571 4.44562 18.017 4.28571 18.2143 4.28571Z" fill="white"/>
<path d="M2.85712 5H17.1428V5.71429H2.85712V5Z" fill="white"/>
<path d="M0.357143 4.28571H1.78571C1.98294 4.28571 2.14286 4.44562 2.14286 4.64285V6.07142C2.14286 6.26865 1.98294 6.42856 1.78571 6.42856H0.357143C0.159912 6.42856 0 6.26865 0 6.07142V4.64285C0 4.44562 0.159912 4.28571 0.357143 4.28571Z" fill="white"/>
</svg>
