<?xml version="1.0" encoding="utf-8"?>
<!-- Generator: Adobe Illustrator 22.0.1, SVG Export Plug-In . SVG Version: 6.00 Build 0)  -->
<svg version="1.1"
	 id="Слой_1" shape-rendering="geometricPrecision" text-rendering="geometricPrecision" image-rendering="optimizeQuality"
	 xmlns="http://www.w3.org/2000/svg" xmlns:xlink="http://www.w3.org/1999/xlink" x="0px" y="0px" viewBox="0 0 31 24"
	 enable-background="new 0 0 31 24" xml:space="preserve">
<g id="Слой_x0020_1">
	<g id="_1121980805472">
		<path fill="#656565" d="M27.3,0.2H3.7C1.6,0.2,0,1.8,0,3.8v16.5c0,1.9,1.6,3.5,3.7,3.5h23.6c2,0,3.7-1.6,3.7-3.5V3.8
			C31,1.8,29.4,0.2,27.3,0.2z M27.3,20.6H3.7c-0.3,0-0.6-0.2-0.6-0.4V5.9l10.7,9c0.2,0.2,0.5,0.3,0.8,0.3h1.8c0.3,0,0.5-0.1,0.8-0.3
			l10.7-9v14.3C27.9,20.5,27.6,20.6,27.3,20.6z M15.5,12.2L5.1,3.4h20.8L15.5,12.2z"/>
	</g>
</g>
</svg>
