<?xml version="1.0" encoding="utf-8"?>
<!-- Generator: Adobe Illustrator 22.0.1, SVG Export Plug-In . SVG Version: 6.00 Build 0)  -->
<svg version="1.1"
	 id="Слой_1" shape-rendering="geometricPrecision" text-rendering="geometricPrecision" image-rendering="optimizeQuality"
	 xmlns="http://www.w3.org/2000/svg" xmlns:xlink="http://www.w3.org/1999/xlink" x="0px" y="0px" viewBox="0 0 43 65"
	 style="enable-background:new 0 0 43 65;" xml:space="preserve">
<g id="Слой_x0020_1">
	<path style="fill:#8F493D;" d="M0.1,57.9V6.4l0.6-0.3C28.5-8.2,42.5,7.2,42.6,7.2l0.3,0.3v49.8l-0.3,0.3c0,0-14.1,15.5-41.8,1.2
		l-0.6-0.3V57.9z M2.5,32.6v24.5c23.4,11.8,35.9,1.4,38.1-0.7V8.5c-2.1-2-14.7-12.4-38.1-0.7V32.6z"/>
	<path style="fill:#8F493D;" d="M1.8,45.4c6.6,2.9,13.2,4.3,19.8,4.4c6.6,0,13.1-1.4,19.7-4.4l1,2.2c-6.9,3.1-13.8,4.6-20.7,4.6
		S7.7,50.6,0.8,47.6L1.8,45.4z"/>
	<path style="fill:#8F493D;" d="M0.8,13.9c6.9-3,13.8-4.5,20.7-4.5c6.9,0,13.8,1.5,20.7,4.5l-1,2.2c-6.6-2.9-13.1-4.4-19.7-4.4
		c-6.6,0-13.2,1.5-19.8,4.4L0.8,13.9z"/>
	<polygon style="fill:#8F493D;" points="13.1,11.6 13.1,49.9 10.7,49.9 10.7,11.6 	"/>
	<polygon style="fill:#8F493D;" points="32,11.6 32,49.9 29.7,49.9 29.7,11.6 	"/>
	<polygon style="fill:#8F493D;" points="30.8,30.6 33.9,30.6 33.9,32.9 30.8,32.9 	"/>
	<polygon style="fill:#8F493D;" points="9.2,30.6 12.3,30.6 12.3,32.9 9.2,32.9 	"/>
	<path style="fill:#8F493D;" d="M22.9,14.5c0.9,0,1.7,0.4,2.3,0.9c0.6,0.6,0.9,1.4,0.9,2.3c0,0.9-0.4,1.7-0.9,2.3
		c-0.6,0.6-1.4,0.9-2.3,0.9c-0.9,0-1.7-0.4-2.3-0.9c-0.6-0.6-0.9-1.4-0.9-2.3c0-0.9,0.4-1.7,0.9-2.3S22,14.5,22.9,14.5z M23.5,17.1
		c-0.1-0.1-0.3-0.2-0.6-0.2c-0.2,0-0.4,0.1-0.6,0.2c-0.2,0.1-0.2,0.4-0.2,0.6c0,0.2,0.1,0.4,0.2,0.6c0.2,0.2,0.4,0.2,0.6,0.2
		c0.2,0,0.4-0.1,0.6-0.2c0.1-0.1,0.2-0.3,0.2-0.6C23.7,17.4,23.6,17.2,23.5,17.1z"/>
	<path style="fill:#8F493D;" d="M24.1,19.7v15l0,1.8c0,2.4-0.3,4.6-4,4.6c-1.4,0-2.5-0.3-3.3-1.5c-0.7-1-1-2.5-0.9-4.8v-10h2.4v10
		c0,1.8,0.1,2.9,0.5,3.4c0.2,0.4,0.7,0.5,1.3,0.5c1.5,0,1.7-1.1,1.7-2.3l-0.1-1.9v-15H24.1z"/>
</g>
</svg>
