<svg width="20" height="20" viewBox="0 0 20 20" fill="none" xmlns="http://www.w3.org/2000/svg">
<g clip-path="url(#clip0)">
<path d="M19.6793 4.23218L16.3856 7.52594L13.5044 6.49667L12.4752 3.61553L15.769 0.321772C13.6079 -0.401183 11.1282 0.0963839 9.40743 1.81724C7.71841 3.50626 7.20805 5.92622 7.87314 8.0585C7.78358 8.12902 7.69679 8.20494 7.61415 8.28758L0.849548 15.0521C-0.282532 16.1841 -0.282532 18.0195 0.849548 19.1516C1.98163 20.2837 3.81709 20.2837 4.94917 19.1516L11.7138 12.387C11.7964 12.3044 11.8722 12.2176 11.9428 12.1281C14.0751 12.7932 16.495 12.2827 18.184 10.5937C19.9047 8.87286 20.4023 6.39327 19.6793 4.23218Z" fill="white"/>
</g>
<defs>
<clipPath id="clip0">
<rect width="20" height="20" fill="white"/>
</clipPath>
</defs>
</svg>
