<svg width="20" height="20" viewBox="0 0 20 20" fill="none" xmlns="http://www.w3.org/2000/svg">
<path d="M12.913 11.2406C12.913 11.6146 13.2162 11.9178 13.5903 11.9178H18.9706C19.3446 11.9178 19.6479 11.6146 19.6479 11.2406V6.10052H12.913V11.2406Z" fill="white"/>
<path d="M10.3619 14.8692C8.52269 14.8692 6.99986 13.4921 6.76686 11.7146H2.16626C2.41266 16.0233 5.9942 19.4532 10.3619 19.4532C14.3301 19.4532 17.6492 16.6222 18.4081 12.8732H13.5988C13.0007 14.056 11.7751 14.8692 10.3619 14.8692Z" fill="white"/>
<path d="M19.3227 0.546814H13.2381C12.8641 0.546814 12.5609 0.850046 12.5609 1.22412V4.57665C12.5609 4.95065 12.8641 5.25328 13.2382 5.25328H19.3228C19.6968 5.25328 20.0001 4.95065 20.0001 4.57658V1.22405C20.0001 0.850046 19.6968 0.546814 19.3227 0.546814Z" fill="white"/>
<path d="M6.73502 10.7664V8.01109C6.73502 7.97163 6.72956 7.03311 6.26 6.09365C5.80646 5.18618 4.84317 4.10449 2.82956 4.10449H0.677306C0.303232 4.10442 0 4.40772 0 4.78173V8.01109C0 8.3851 0.303232 8.6884 0.677306 8.6884H1.7534C1.85845 8.6884 2.1371 8.6884 2.15232 9.095V10.7664H6.73502Z" fill="white"/>
</svg>
