<?xml version="1.0" encoding="utf-8"?>
<!-- Generator: Adobe Illustrator 22.0.1, SVG Export Plug-In . SVG Version: 6.00 Build 0)  -->
<svg version="1.1"
	 id="Слой_1" shape-rendering="geometricPrecision" text-rendering="geometricPrecision" image-rendering="optimizeQuality"
	 xmlns="http://www.w3.org/2000/svg" xmlns:xlink="http://www.w3.org/1999/xlink" x="0px" y="0px" viewBox="0 0 42 64"
	 enable-background="new 0 0 42 64" xml:space="preserve">
<g id="Слой_x0020_1">
	<path fill="#8F493D" d="M11.9,63.3c0.2,0.2,0.4,0.3,0.7,0.3h16.8c0.3,0,0.5-0.1,0.8-0.4c0.2-0.2,0.2-0.5,0.1-0.8l-1.5-9.5l0.5-0.2
		c2.4-1.1,3.9-3.3,5-5.6l0.2-0.4h1.9c3.1,0,5.7-2.5,5.7-5.7V10.4c0.1-3.1-2.5-5.7-5.6-5.7h-7.8l-0.2-0.2C26.6,2.3,24,0.3,21,0.3
		c-3,0-5.6,1.9-7.4,4.2l-0.2,0.2H5.7C2.5,4.7,0,7.3,0,10.4v30.8c0,3.1,2.5,5.7,5.7,5.7h1.9l0.2,0.4c1.1,2.3,2.6,4.5,5,5.7l0.4,0.2
		l-1.5,9.5C11.6,62.8,11.8,63.1,11.9,63.3z M21,2.1c7.2,0,11.3,12.6,11.3,18.7c0,7.3-4.1,10.8-11.3,10.8c-7.2,0-11.3-3.5-11.3-10.8
		C9.8,14.8,13.8,2.1,21,2.1z M1.8,10.5c0-2.1,1.7-3.8,3.8-3.8h6.4l-0.6,1c-0.6,1-1.1,2.2-1.6,3.3l-0.2,0.4H1.8V10.5z M4.9,39.1
		c0.1,0.5,0.3,1.1,0.5,1.6c0.3,1.2,0.7,2.3,1.1,3.5l0.3,0.9H5.6c-2.1,0-3.8-1.7-3.8-3.8v-28H9l-0.2,0.8c-0.6,2.2-1,4.5-1,6.8
		c0,3.7,1,7.3,3.8,9.7l1.4,1.1H9.7c-2.6,0-4.8,2.2-4.8,4.8v2.3C4.9,38.9,4.9,39,4.9,39.1z M27.6,51.5c-0.5,0.1-0.7,0.6-0.6,1.1
		l1.3,9.2H13.7l1.4-9.2c0.1-0.5-0.3-0.9-0.7-1c-4.4-1.1-6-7.2-7.1-11.1l-0.2-0.8h27.9l-0.3,0.9C33.7,44.4,32.1,50.5,27.6,51.5z
		 M35.3,37.8H6.8v-1.2c0-1.7,1.4-3,3-3h22.5c1.7,0,3,1.3,3,3V37.8z M37.1,39.1c0-0.1,0-0.2,0-0.2c0-0.1,0-0.1,0-0.3v-2.1
		c0-2.7-2.2-4.9-4.9-4.9h-3.3l1.3-1.1c2.8-2.5,3.9-6.1,3.9-9.7c0-2.3-0.3-4.6-1-6.8l-0.2-0.8h7.2v27.5h0.1v0.6
		c0,2.1-1.7,3.8-3.8,3.8h-1.1l0.3-0.9c0.4-1.2,0.7-2.3,1.1-3.5C36.8,40.2,36.9,39.6,37.1,39.1z M40.3,11.4h-7.9L32.2,11
		c-0.5-1.2-1-2.3-1.6-3.4l-0.5-1h6.3c2.1,0,3.8,1.7,3.8,3.8V11.4z"/>
</g>
</svg>
