<?xml version="1.0" encoding="utf-8"?>
<!-- Generator: Adobe Illustrator 22.0.1, SVG Export Plug-In . SVG Version: 6.00 Build 0)  -->
<svg version="1.1"
	 id="Слой_1" shape-rendering="geometricPrecision" text-rendering="geometricPrecision" image-rendering="optimizeQuality"
	 xmlns="http://www.w3.org/2000/svg" xmlns:xlink="http://www.w3.org/1999/xlink" x="0px" y="0px" viewBox="0 0 71 65"
	 enable-background="new 0 0 71 65" xml:space="preserve">
<g id="Слой_x0020_1">
	<path fill="#8F493D" d="M63.4,9H7.6v2h10.8h36.1h8.9V9z M63.4,13.2H7.6v2h55.9V13.2z M63.4,20.2h-5c-1.8-1.9-4.3-3.1-7.1-3.1H24.8
		c-2.7,0-5.3,1.1-7.1,3.1H7.6v2h23.5c0.5,0.7,0.9,1.4,1.2,2.3H7.6v2h7.4c0,0.3,0,0.5,0,0.8v6.3H7.6v2h25.2v2.3H7.6v2h7.3v18.6h17.9
		V65h28.5V39.8h2.1v-2h-2.1v-2.3h2.1v-2h-2.1v-6.3c0-0.3,0-0.5,0-0.8h2.2v-2h-2.5c-0.2-0.8-0.6-1.6-0.9-2.3h3.5V20.2z M16.9,27.2
		c0-0.3,0-0.5,0-0.8h15.9c0,0.3,0,0.5,0,0.8v6.3H16.9V27.2z M20.9,20.2c1.2-0.7,2.6-1.1,4-1.1c1.4,0,2.8,0.4,3.9,1.1H20.9z
		 M32.8,39.8v12.6H16.9V39.8H32.8z M16.9,56.4v-2h15.9v2H16.9z M59.3,63H34.8V27.2c0-3.3-1.6-6.3-4-8.1h20.5c4.4,0,8,3.6,8,8.1V63
		L59.3,63z"/>
	<path fill="#8F493D" d="M4.1,0c1,0,2,0.4,2.7,1.1c0.7,0.7,1.1,1.6,1.1,2.7V59c0,1.1-0.4,2-1.1,2.7c-0.7,0.7-1.6,1.1-2.7,1.1
		c-1.1,0-2-0.4-2.7-1.1C0.7,61,0.3,60,0.3,59V3.8c0-1.1,0.4-2,1.1-2.7S3,0,4.1,0z M4.1,2.3c-0.4,0-0.8,0.2-1,0.4
		C2.8,3,2.6,3.4,2.6,3.8V59c0,0.4,0.2,0.8,0.4,1c0.3,0.3,0.6,0.4,1,0.4c0.4,0,0.8-0.2,1-0.4c0.3-0.3,0.4-0.6,0.4-1V3.8
		c0-0.4-0.2-0.8-0.4-1C4.8,2.5,4.5,2.3,4.1,2.3z"/>
	<path fill="#8F493D" d="M66.9,0c1,0,2,0.4,2.7,1.1s1.1,1.6,1.1,2.7V59c0,1.1-0.4,2-1.1,2.7c-0.7,0.7-1.6,1.1-2.7,1.1
		c-1,0-2-0.4-2.7-1.1C63.5,61,63.1,60,63.1,59V3.8c0-1.1,0.4-2,1.1-2.7C64.9,0.4,65.9,0,66.9,0z M66.9,2.3c-0.4,0-0.8,0.2-1,0.4
		c-0.3,0.3-0.4,0.6-0.4,1V59c0,0.4,0.2,0.8,0.4,1c0.3,0.3,0.6,0.4,1,0.4c0.4,0,0.8-0.2,1-0.4c0.3-0.3,0.4-0.6,0.4-1V3.8
		c0-0.4-0.2-0.8-0.4-1C67.7,2.5,67.3,2.3,66.9,2.3z"/>
</g>
</svg>
