<svg width="52" height="34" viewBox="0 0 52 34" fill="none" xmlns="http://www.w3.org/2000/svg">
<g opacity="0.9">
<path d="M14.5952 14.6729C15.158 8.90167 18.1633 7.0817 20.0312 7.0817C20.0312 9.23692 20.0312 13.9904 20.0312 14.7328C23.6113 15.4272 25.096 16.7204 25.8384 17.6423C25.8384 14.4334 25.8384 -0.293972 25.8384 0.0772064C14.3558 0.0772064 7.97391 4.90252 7.97391 19.7018C12.2125 20.6836 14.5713 21.2344 17.1815 21.8929C17.9478 22.0845 18.9656 22.3958 19.4206 22.6472C19.4206 22.6472 20.4982 28.2269 14.3797 28.4783L14.3677 22.3479C12.7154 21.9168 10.3447 21.4858 7.98588 20.947V33.2557C7.98588 33.2557 10.1651 33.2557 12.0329 33.2557C21.7674 33.2557 25.7785 29.3763 25.7785 24.8264C25.7785 21.6534 25.7306 21.4499 25.7306 21.4499C25.7066 17.7142 23.3479 16.4569 14.5952 14.6729Z" fill="white"/>
<path d="M7.06392 19.5701V15.1519C7.06392 12.0148 1.50822 11.1288 0.670074 11.1407C0.670074 12.2064 0.670074 14.9244 0.670074 14.9244C0.670074 15.6907 0.897571 16.3492 1.25678 16.9C2.21465 17.9417 3.95081 18.9714 7.06392 19.5701Z" fill="white"/>
<path d="M0.670074 17.6423V30.3103V32.1422C3.53174 33.3755 5.77078 33.2318 7.06392 33.2318V20.7794C3.16056 20.037 1.43638 18.8277 0.670074 17.6423Z" fill="white"/>
<path d="M26.3891 28.5622C26.3891 23.7249 26.449 22.0247 26.449 21.4619C26.449 17.7501 29.7297 16.2056 37.6203 14.673C37.5604 11.7275 35.5968 7.08177 32.1843 7.08177C32.1843 9.237 32.1843 14.3138 32.1843 15.0561C28.6042 15.7506 27.1195 16.7324 26.3772 17.6424C26.3772 14.4335 26.3772 -0.317843 26.3772 0.0413618C37.8597 0.0413618 44.2416 5.01036 44.2416 19.8096C40.003 20.7914 37.6801 21.3542 35.0699 22.0127C34.3036 22.2043 33.2859 22.5156 32.8309 22.767V33.2079C32.8428 33.2079 26.3891 33.2199 26.3891 28.5622Z" fill="white"/>
<path d="M45.2115 19.6779V15.1279C45.2115 11.9909 50.7672 11.1048 51.6053 11.1168C51.6053 12.1825 51.6053 14.9004 51.6053 14.9004C51.6053 15.6667 51.3778 16.3253 51.0186 16.8761C50.0487 17.9297 48.3246 19.0912 45.2115 19.6779Z" fill="white"/>
<path d="M51.5933 17.6423V30.3103V32.1303C48.7436 33.3635 46.4926 33.2198 45.1995 33.2198V20.7794C49.1028 20.037 50.839 18.8277 51.5933 17.6423Z" fill="white"/>
</g>
</svg>
