<?xml version="1.0" encoding="utf-8"?>
<!-- Generator: Adobe Illustrator 22.0.1, SVG Export Plug-In . SVG Version: 6.00 Build 0)  -->
<svg version="1.1"
	 id="Слой_1" shape-rendering="geometricPrecision" text-rendering="geometricPrecision" image-rendering="optimizeQuality"
	 xmlns="http://www.w3.org/2000/svg" xmlns:xlink="http://www.w3.org/1999/xlink" x="0px" y="0px" viewBox="0 0 59 61"
	 style="enable-background:new 0 0 59 61;" xml:space="preserve">
<g id="Слой_x0020_1">
	<path style="fill:#8F493D;" d="M34.6,43.2c0.7,0,1.3-0.6,1.3-1.3v-2.6c0-0.7-0.6-1.3-1.3-1.3s-1.3,0.6-1.3,1.3v2.6
		C33.3,42.6,33.9,43.2,34.6,43.2z"/>
	<path style="fill:#8F493D;" d="M24.4,43.2c0.7,0,1.3-0.6,1.3-1.3v-2.6c0-0.7-0.6-1.3-1.3-1.3c-0.7,0-1.3,0.6-1.3,1.3v2.6
		C23.1,42.6,23.7,43.2,24.4,43.2z"/>
	<path style="fill:#8F493D;" d="M57.5,30.5h-1.3V6.4c0-3.5-2.8-6.4-6.4-6.4H9.2C5.7,0,2.8,2.8,2.8,6.4v24.1H1.5
		c-0.7,0-1.3,0.6-1.3,1.3c0,0.7,0.6,1.3,1.3,1.3h1.3v24.1c0,0.7,0.6,1.3,1.3,1.3h1.3v1.3c0,0.7,0.6,1.3,1.3,1.3s1.3-0.6,1.3-1.3
		v-1.3h45.7v1.3c0,0.7,0.6,1.3,1.3,1.3c0.7,0,1.3-0.6,1.3-1.3v-2.5V33h1.3c0.7,0,1.3-0.6,1.3-1.3C58.7,31.1,58.2,30.5,57.5,30.5z
		 M5.4,6.4c0-2.1,1.7-3.8,3.8-3.8h40.7c2.1,0,3.8,1.7,3.8,3.8v24.1H30.8V28H32c0.7,0,1.3-0.6,1.3-1.3s-0.6-1.3-1.3-1.3h-1.3v-3.8
		c0-2.1-1.7-3.8-3.8-3.8c-2.1,0-3.8,1.7-3.8,3.8c0,0.7,0.6,1.3,1.3,1.3c0.7,0,1.3-0.6,1.3-1.3c0-0.7,0.6-1.3,1.3-1.3
		s1.3,0.6,1.3,1.3v3.8H27c-0.7,0-1.3,0.6-1.3,1.3S26.3,28,27,28h1.3v2.5H5.4V6.4z M28.2,33v22.9H5.4V33H28.2z M53.6,55.9H30.8V33
		h22.9V55.9z"/>
	<path style="fill:#8F493D;" d="M9.2,12.7c0.3,0,0.7-0.1,0.9-0.4l5.1-5.1c0.5-0.5,0.5-1.3,0-1.8s-1.3-0.5-1.8,0l-5.1,5.1
		c-0.5,0.5-0.5,1.3,0,1.8C8.5,12.6,8.8,12.7,9.2,12.7z"/>
	<path style="fill:#8F493D;" d="M18.4,8L8.3,18.2c-0.5,0.5-0.5,1.3,0,1.8c0.3,0.3,0.6,0.4,0.9,0.4c0.3,0,0.7-0.1,0.9-0.4L20.2,9.8
		c0.5-0.5,0.5-1.3,0-1.8C19.7,7.5,18.9,7.5,18.4,8z"/>
	<path style="fill:#8F493D;" d="M48.9,20.7l-5.1,5.1c-0.5,0.5-0.5,1.3,0,1.8c0.2,0.2,0.6,0.4,0.9,0.4c0.3,0,0.6-0.1,0.9-0.4l5.1-5.1
		c0.5-0.5,0.5-1.3,0-1.8S49.4,20.2,48.9,20.7z"/>
	<path style="fill:#8F493D;" d="M39.7,25.4c0.3,0,0.7-0.1,0.9-0.4l10.2-10.2c0.5-0.5,0.5-1.3,0-1.8s-1.3-0.5-1.8,0L38.8,23.2
		c-0.5,0.5-0.5,1.3,0,1.8C39,25.3,39.3,25.4,39.7,25.4z"/>
</g>
</svg>
