<?xml version="1.0" encoding="utf-8"?>
<!-- Generator: Adobe Illustrator 22.0.1, SVG Export Plug-In . SVG Version: 6.00 Build 0)  -->
<svg version="1.1"
	 id="Слой_1" shape-rendering="geometricPrecision" text-rendering="geometricPrecision" image-rendering="optimizeQuality"
	 xmlns="http://www.w3.org/2000/svg" xmlns:xlink="http://www.w3.org/1999/xlink" x="0px" y="0px" viewBox="0 0 36 36"
	 enable-background="new 0 0 36 36" xml:space="preserve">
<path fill="#8B483F" d="M36,33.2L25.4,22.5c1.8-2.4,2.8-5.3,2.8-8.4C28.2,6.3,21.9,0,14.1,0C6.3,0,0,6.3,0,14.1
	c0,7.8,6.3,14.1,14.1,14.1c3.2,0,6.1-1.1,8.4-2.8L33.2,36L36,33.2z M1.3,14.1c0-7,5.7-12.7,12.7-12.7c7,0,12.8,5.7,12.8,12.7
	c0,7-5.7,12.8-12.8,12.8C7.1,26.9,1.3,21.1,1.3,14.1z"/>
</svg>
