<?xml version="1.0" encoding="utf-8"?>
<!-- Generator: Adobe Illustrator 22.0.1, SVG Export Plug-In . SVG Version: 6.00 Build 0)  -->
<svg version="1.1"
	 id="Слой_1" shape-rendering="geometricPrecision" text-rendering="geometricPrecision" image-rendering="optimizeQuality"
	 xmlns="http://www.w3.org/2000/svg" xmlns:xlink="http://www.w3.org/1999/xlink" x="0px" y="0px" viewBox="0 0 28 28"
	 enable-background="new 0 0 28 28" xml:space="preserve">
<g id="Слой_x0020_1">
	<g id="_1121980783904">
		<g>
			<g>
				<path fill="#656565" d="M21.3,18.5c-0.9-0.9-2-0.9-2.9,0c-0.7,0.7-1.4,1.4-2.1,2.1c-0.2,0.2-0.3,0.2-0.5,0.1
					c-0.5-0.2-0.9-0.4-1.4-0.7c-2-1.3-3.7-2.9-5.2-4.7c-0.7-0.9-1.4-1.9-1.9-3c-0.1-0.2-0.1-0.4,0.1-0.5c0.7-0.7,1.4-1.4,2-2
					c1-1,1-2.1,0-3.1C8.9,6.1,8.4,5.6,7.8,5C7.2,4.5,6.7,3.9,6.1,3.4c-0.9-0.9-2-0.9-2.9,0c-0.7,0.7-1.4,1.4-2.1,2
					c-0.7,0.7-1,1.4-1,2.3c-0.1,1.5,0.2,2.8,0.7,4.2c1,2.7,2.6,5.2,4.5,7.5c2.6,3,5.6,5.5,9.2,7.2c1.6,0.8,3.3,1.4,5.1,1.5
					c1.2,0.1,2.3-0.3,3.2-1.2c0.6-0.7,1.3-1.3,1.9-1.9c0.9-0.9,1-2.1,0-3C23.5,20.7,22.4,19.6,21.3,18.5z"/>
				<path fill="#656565" d="M20.2,13.9l2.1-0.4c-0.3-2-1.3-3.8-2.7-5.2c-1.5-1.5-3.4-2.4-5.5-2.7l-0.3,2.2c1.6,0.2,3.1,0.9,4.3,2.1
					C19.2,11,19.9,12.3,20.2,13.9z"/>
				<path fill="#656565" d="M23.6,4.5C21,2,17.9,0.5,14.5,0l-0.3,2.2c3,0.4,5.7,1.8,7.9,3.9c2,2,3.4,4.6,3.8,7.4l2.2-0.3
					C27.4,9.9,25.9,6.9,23.6,4.5z"/>
			</g>
		</g>
	</g>
</g>
</svg>
