<svg width="20" height="20" viewBox="0 0 20 20" fill="none" xmlns="http://www.w3.org/2000/svg">
<path d="M11.6666 11.3333H8.33332C8.14965 11.3333 8 11.4829 8 11.6666V12.6666C8 12.8502 8.14965 12.9999 8.33332 12.9999H9.86199L10.7643 12.0975C10.8947 11.9672 11.1054 11.9672 11.2357 12.0975C11.366 12.2279 11.366 12.4386 11.2357 12.5689L10.8046 12.9999H11.6666C11.8503 12.9999 11.9999 12.8503 11.9999 12.6666V11.6666C12 11.4829 11.8503 11.3333 11.6666 11.3333Z" fill="white"/>
<path d="M9.99999 3.66675C9.63233 3.66675 9.33331 3.96573 9.33331 4.33343C9.33331 4.57909 9.46831 4.79175 9.66663 4.90741V4.66675C9.66663 4.48276 9.81596 4.33343 9.99995 4.33343C10.1839 4.33343 10.3333 4.48276 10.3333 4.66675V4.90741C10.5316 4.79175 10.6666 4.57909 10.6666 4.33343C10.6667 3.96573 10.3676 3.66675 9.99999 3.66675Z" fill="white"/>
<path d="M14.3333 0H5.66668C4.74766 0 4 0.747656 4 1.66668H16C16 0.747656 15.2523 0 14.3333 0Z" fill="white"/>
<path d="M4 15.3334V15.6667C4 16.5857 4.74766 17.3334 5.66668 17.3334H6V18.3334C6 18.5174 6.14934 18.6667 6.33332 18.6667V19.6667C6.33332 19.8507 6.48266 20 6.66664 20H8C8.18398 20 8.33332 19.8507 8.33332 19.6667V18.6667C8.5173 18.6667 8.66664 18.5174 8.66664 18.3334V17.3334H11.3333V18.3334C11.3333 18.5174 11.4827 18.6667 11.6666 18.6667V19.6667C11.6666 19.8507 11.816 20 12 20H13.3333C13.5173 20 13.6666 19.8507 13.6666 19.6667V18.6667C13.8506 18.6667 13.9999 18.5174 13.9999 18.3334V17.3334H14.3332C15.2522 17.3334 15.9999 16.5857 15.9999 15.6667V15.3334H4ZM8 18.0001H6.66668V17.3334H8V18.0001ZM13.3333 18.0001H12V17.3334H13.3333V18.0001Z" fill="white"/>
<path d="M4 2.33331V14.6666H16V2.33331H4ZM10 2.99999C10.7354 2.99999 11.3333 3.598 11.3333 4.33331C11.3333 5.06863 10.7354 5.66667 10 5.66667C9.26465 5.66667 8.66668 5.06866 8.66668 4.33335C8.66668 3.59804 9.26465 2.99999 10 2.99999ZM12.6667 12.6667C12.6667 13.218 12.218 13.6667 11.6667 13.6667H8.33336C7.78203 13.6667 7.33336 13.218 7.33336 12.6667V11.6667C7.33336 11.1153 7.78203 10.6667 8.33336 10.6667H11.6667C12.218 10.6667 12.6667 11.1153 12.6667 11.6667V12.6667Z" fill="white"/>
</svg>
