<?xml version="1.0" encoding="utf-8"?>
<!-- Generator: Adobe Illustrator 22.0.1, SVG Export Plug-In . SVG Version: 6.00 Build 0)  -->
<svg version="1.1"
	 id="Слой_1" shape-rendering="geometricPrecision" text-rendering="geometricPrecision" image-rendering="optimizeQuality"
	 xmlns="http://www.w3.org/2000/svg" xmlns:xlink="http://www.w3.org/1999/xlink" x="0px" y="0px" viewBox="0 0 63 63"
	 enable-background="new 0 0 63 63" xml:space="preserve">
<g id="Слой_x0020_1">
	<path fill="#8F493D" d="M61.6,54.6L45.1,38.2c2.7-4,4.1-8.7,4.1-13.6C49.2,11,38.2,0,24.6,0S0,11,0,24.6s11,24.6,24.6,24.6
		c4.9,0,9.5-1.4,13.6-4.1l4.5,4.5l0,0l11.9,11.9c0.9,0.9,2.2,1.4,3.5,1.4c1.3,0,2.5-0.5,3.5-1.4c0.9-0.9,1.4-2.2,1.4-3.5
		C63,56.8,62.5,55.5,61.6,54.6z M37.6,42.5L37.6,42.5c-3.8,2.8-8.3,4.2-13,4.2c-12.2,0-22.2-9.9-22.2-22.1
		c0-12.2,9.9-22.2,22.2-22.2c12.2,0,22.1,9.9,22.1,22.2c0,4.7-1.5,9.2-4.2,13C41.2,39.5,39.5,41.2,37.6,42.5z M40.2,43.7
		c1.3-1,2.4-2.2,3.5-3.5l3.5,3.5c-1.1,1.2-2.2,2.4-3.5,3.5L40.2,43.7z M59.8,59.8c-0.5,0.5-1.1,0.7-1.7,0.7c-0.7,0-1.3-0.3-1.7-0.7
		L45.4,48.9c1.3-1.1,2.4-2.2,3.5-3.5l10.9,10.9c0.5,0.5,0.7,1.1,0.7,1.7C60.5,58.7,60.3,59.4,59.8,59.8z"/>
	<path fill="#8F493D" d="M26,11l2.8,8.6l12.7,0l-10.3,7.4L35.1,39l-10.2-7.5L14.6,39l3.9-12.1L8.3,19.5l12.7,0l3.9-12.1L26,11z
		 M26.8,21.1l-1.9-5.9l-2.2,6.7h-7.1l5.7,4.1l-2.2,6.7l5.7-4.2l5.7,4.2L28.4,26l5.7-4.1h-7L26.8,21.1z"/>
</g>
</svg>
