<?xml version="1.0" encoding="utf-8"?>
<!-- Generator: Adobe Illustrator 22.0.1, SVG Export Plug-In . SVG Version: 6.00 Build 0)  -->
<svg version="1.1"
	 id="Слой_1" shape-rendering="geometricPrecision" text-rendering="geometricPrecision" image-rendering="optimizeQuality"
	 xmlns="http://www.w3.org/2000/svg" xmlns:xlink="http://www.w3.org/1999/xlink" x="0px" y="0px" viewBox="0 0 59 59"
	 enable-background="new 0 0 59 59" xml:space="preserve">
<g id="Слой_x0020_1">
	<path fill="#656565" d="M30.8,29.1l8,9.1c0.4,0.5,0.3,1.2-0.1,1.5c-0.2,0.2-0.5,0.3-0.7,0.3c-0.4,0-0.7-0.1-0.9-0.4l-8.3-9.4
		c-0.2-0.2-0.3-0.4-0.3-0.7V13.9c0-0.6,0.5-1.1,1.2-1.1c0.6,0,1.2,0.5,1.2,1.1V29.1z"/>
	<path fill="#656565" d="M29.5,0C37.6,0,45,3.3,50.4,8.6S59,21.4,59,29.5S55.7,45,50.4,50.4S37.6,59,29.5,59S14,55.7,8.6,50.4
		S0,37.6,0,29.5S3.3,14,8.6,8.6S21.4,0,29.5,0z M48.7,10.3c-4.9-4.9-11.7-8-19.2-8s-14.3,3-19.2,8c-4.9,4.9-8,11.7-8,19.2
		s3,14.3,8,19.2s11.7,7.9,19.2,7.9s14.3-3,19.2-7.9s7.9-11.7,7.9-19.2S53.6,15.2,48.7,10.3z"/>
	<path fill="#656565" d="M28.3,57.2v-5.8c0-0.6,0.5-1.2,1.2-1.2c0.6,0,1.2,0.5,1.2,1.2v5.8H28.3z"/>
	<path fill="#656565" d="M28.3,1.7v5.8c0,0.6,0.5,1.2,1.2,1.2c0.6,0,1.2-0.5,1.2-1.2V1.7H28.3z"/>
	<path fill="#656565" d="M57.2,30.7h-5.8c-0.7,0-1.2-0.5-1.2-1.2c0-0.7,0.5-1.2,1.2-1.2h5.8V30.7z"/>
	<path fill="#656565" d="M1.8,30.7h5.8c0.6,0,1.2-0.5,1.2-1.2c0-0.7-0.5-1.2-1.2-1.2H1.8V30.7z"/>
</g>
</svg>
