<?xml version="1.0" encoding="utf-8"?>
<!-- Generator: Adobe Illustrator 22.0.1, SVG Export Plug-In . SVG Version: 6.00 Build 0)  -->
<svg version="1.1"
	 id="Слой_1" shape-rendering="geometricPrecision" text-rendering="geometricPrecision" image-rendering="optimizeQuality"
	 xmlns="http://www.w3.org/2000/svg" xmlns:xlink="http://www.w3.org/1999/xlink" x="0px" y="0px" viewBox="0 0 48 62"
	 enable-background="new 0 0 48 62" xml:space="preserve">
<rect x="33.1" y="8.6" transform="matrix(0.7071 -0.7071 0.7071 0.7071 1.9691 27.7031)" fill="#8F493D" width="2.7" height="5.7"/>
<rect x="35.8" y="16.7" transform="matrix(0.7071 -0.7071 0.7071 0.7071 -2.9731 31.9819)" fill="#8F493D" width="2.7" height="5.7"/>
<rect x="30.4" y="22.1" transform="matrix(0.7071 -0.7071 0.7071 0.7071 -8.3731 29.7397)" fill="#8F493D" width="2.7" height="5.7"/>
<rect x="27.7" y="14" transform="matrix(0.7071 -0.7071 0.7071 0.7071 -3.4309 25.4609)" fill="#8F493D" width="2.7" height="5.7"/>
<rect x="22.3" y="19.4" transform="matrix(0.7071 -0.7071 0.7071 0.7071 -8.8308 23.2187)" fill="#8F493D" width="2.7" height="5.7"/>
<path fill="#8F493D" d="M48,59.3c-45.8,0-11.1,0-39.9,0v-16h4.1v4.1h2.7V36.5h-2.7v4H8.1v-28c0-2.4,2-4.4,4.4-4.4
	c1.2,0,2.3,0.5,3.1,1.3l0.1,0.1l-4.8,4.8v2.5l3.5,3.5h2.5L31.1,6V3.5L27.6,0h-2.5l-3.5,3.5C19.2,1.2,16.1,0,12.8,0
	C5.7,0,0,5.7,0,12.8V62h48V59.3z M26.2,2.7h0.2l1.9,1.9v0.2L15.7,17.6h-0.2l-1.9-1.9v-0.2L26.2,2.7z M2.7,12.8
	c0-5.6,4.5-10.1,10.1-10.1c2.6,0,5,1,6.9,2.7l-2.1,2.1l-0.1-0.1c-1.3-1.3-3.1-2.1-5-2.1c-3.9,0-7.1,3.2-7.1,7.1v46.8H2.7V12.8z"/>
</svg>
