<?xml version="1.0" encoding="utf-8"?>
<!-- Generator: Adobe Illustrator 22.0.1, SVG Export Plug-In . SVG Version: 6.00 Build 0)  -->
<svg version="1.1"
	 id="Слой_1" shape-rendering="geometricPrecision" text-rendering="geometricPrecision" image-rendering="optimizeQuality"
	 xmlns="http://www.w3.org/2000/svg" xmlns:xlink="http://www.w3.org/1999/xlink" x="0px" y="0px" viewBox="0 0 24 29"
	 enable-background="new 0 0 24 29" xml:space="preserve">
<g id="Слой_x0020_1">
	<g id="_1121862172480">
		<g>
			<g>
				<path fill="#8F493D" d="M12,0C5.6,0,0.4,5.2,0.4,11.6c0,0.7,0.1,1.5,0.2,2.1c0,0,0,0.2,0.1,0.4c0.2,0.8,0.4,1.6,0.8,2.3
					c1.2,2.9,4,7.5,10.1,12.3c0.1,0.1,0.3,0.2,0.5,0.2c0.2,0,0.3-0.1,0.5-0.2c6-4.9,8.8-9.4,10.1-12.3c0.3-0.7,0.6-1.5,0.8-2.3
					c0-0.2,0-0.3,0.1-0.4c0.1-0.7,0.2-1.5,0.2-2.1C23.6,5.2,18.4,0,12,0z M21.8,13.5L21.8,13.5c0,0,0,0.1-0.1,0.3l0,0
					c-0.1,0.7-0.4,1.3-0.7,2c0,0,0,0,0,0c-1.1,2.7-3.6,6.8-9,11.3C6.6,22.6,4.1,18.5,3,15.9c0,0,0,0,0,0c-0.3-0.6-0.5-1.3-0.7-2l0,0
					c0-0.2,0-0.3,0-0.3h0C2.1,12.9,2,12.2,2,11.6c0-5.5,4.5-10,10-10c5.5,0,10,4.5,10,10C22,12.2,21.9,12.9,21.8,13.5z"/>
				<path fill="#8F493D" d="M12,4.4c-4.1,0-7.4,3.3-7.4,7.3c0,4.1,3.3,7.4,7.4,7.4c4,0,7.3-3.3,7.3-7.4C19.4,7.7,16.1,4.4,12,4.4z
					 M12,17.5c-3.2,0-5.8-2.6-5.8-5.8C6.3,8.6,8.8,6,12,6c3.1,0,5.7,2.6,5.7,5.7C17.7,14.9,15.2,17.5,12,17.5z"/>
			</g>
		</g>
	</g>
</g>
</svg>
