<?xml version="1.0" encoding="utf-8"?>
<!-- Generator: Adobe Illustrator 22.1.0, SVG Export Plug-In . SVG Version: 6.00 Build 0)  -->
<svg version="1.1" id="Слой_1" xmlns="http://www.w3.org/2000/svg" xmlns:xlink="http://www.w3.org/1999/xlink" x="0px" y="0px"
	 viewBox="0 0 453.5 489" style="enable-background:new 0 0 453.5 489;" xml:space="preserve">
<path d="M446.3,187.8l-42.1-4.1c-4.5-17.9-11.7-35-21.4-50.7l26.8-32.4c2.6-3.2,2.4-7.8-0.5-10.7l-45.5-45.5
	c-2.9-2.9-7.6-3.1-10.7-0.5l-32.4,26.8c-15.7-9.6-32.8-16.8-50.7-21.4l-4.1-42.1c-0.4-4.1-3.8-7.2-8-7.2h-62.2c-4.1,0-7.6,3.1-8,7.2
	l-4.1,42.1c-17.9,4.5-35,11.7-50.7,21.4l-32.4-26.8c-3.2-2.6-7.8-2.4-10.7,0.5L44.3,89.9c-2.9,2.9-3.1,7.6-0.5,10.7L70.6,133
	c-9.7,15.7-16.9,32.8-21.4,50.7l-42,4.1c-4.1,0.4-7.2,3.8-7.2,8v64.5c0,4.1,3.1,7.6,7.2,8l42.1,4.1c4.5,17.9,11.7,35,21.4,50.7
	l-26.8,32.4c-2.8,3.3-2.4,8.2,0.9,11.1L79.2,397c1.7,1.5,4,2.2,6.2,2c2.3-0.3,4.3-1.5,5.6-3.4l49.6-71.2c2.2-3.2,1.8-7.5-0.9-10.2
	c-47.6-47.6-47.6-124.7,0-172.3s124.8-47.6,172.3,0s47.6,124.8,0,172.3c-2.8,2.8-3.1,7.1-0.8,10.3l51.3,71.2c1.3,1.8,3.4,3,5.6,3.3
	c2.2,0.2,4.5-0.5,6.2-2l34.5-30.5c3.2-2.9,3.6-7.8,0.9-11.1L382.9,323c9.6-15.7,16.8-32.8,21.4-50.7l42.1-4.1c4.1-0.4,7.2-3.8,7.2-8
	v-64.5C453.5,191.6,450.4,188.2,446.3,187.8z M437.5,253l-40.5,3.9c-3.4,0.3-6.3,2.8-7,6.2c-4.4,20-12.4,39-23.6,56.1
	c-1.9,2.9-1.7,6.8,0.5,9.5l25.6,30.9l-22.1,19.5l-42.3-58.6c49-54,47.4-137.9-4.7-190c-53.7-53.7-141.2-53.7-194.9,0
	c-52.2,52.2-53.7,136-4.6,190.1L83,379.1l-22-19.5l25.6-30.9c2.2-2.7,2.5-6.5,0.5-9.5c-11.2-17.1-19.2-36.1-23.7-56.1
	c-0.7-3.4-3.6-5.9-7-6.2L16,253v-50l40.5-3.9c3.5-0.3,6.3-2.9,7-6.3c4.3-20,12.3-39,23.6-56c1.9-2.9,1.7-6.8-0.5-9.5L60.7,96
	l35.2-35.2l31.3,25.9c2.7,2.2,6.5,2.5,9.5,0.5C153.8,76,172.8,68,192.8,63.6c3.4-0.7,5.9-3.6,6.2-7l3.9-40.6h47.7l3.9,40.6
	c0.3,3.4,2.8,6.3,6.2,7c20,4.4,39,12.4,56.1,23.7c2.9,1.9,6.8,1.7,9.5-0.5l31.3-25.9L392.8,96l-25.9,31.3c-2.2,2.7-2.5,6.6-0.5,9.5
	c11.3,17,19.3,36,23.6,56c0.7,3.4,3.5,5.9,7,6.3l40.5,3.9V253z"/>
<path d="M254.6,368.6V247.3c20.1-11.6,33.4-33.7,33.4-56.5c0-31.1-17.8-53.7-47.6-60.6c-2.5-0.6-5.1,0.1-7,1.7
	c-1.9,1.7-2.9,4.1-2.8,6.7l2.6,33.9c-6.7,3.5-14.6,3.5-21.3,0l2.8-34.1c0.2-2.6-0.9-5.2-2.9-6.8s-4.8-2.2-7.3-1.5
	c-27.2,7.9-44.2,31.3-44.2,61.1c0,27.4,14.4,49.5,38.3,59.1v120.9c-17,10-33.3,30.4-33.1,56.2c0,30.8,17.6,53.6,47,61
	c2.5,0.6,5.1,0,7.1-1.6c2-1.7,3-4.2,2.8-6.7l-2.6-33.9c6.7-3.5,14.6-3.5,21.3,0l-2.8,34.1c-0.2,2.6,0.9,5.2,2.9,6.8
	c2,1.7,4.8,2.2,7.3,1.5c27.1-7.9,44.1-31.2,44.4-60.9C293,400.4,278.5,378.2,254.6,368.6z M255.5,468.4l2.1-25.6
	c0.2-2.7-0.9-5.4-3.1-7l-0.3-0.2c-14.1-10.7-33.6-10.6-47.5,0.3c-2.1,1.7-3.2,4.2-3,6.9l2,26.3c-15.4-7.7-24-22.3-24-41.6
	c-0.2-21,14.6-37.6,28.5-44.1c2.8-1.3,4.6-4.1,4.6-7.2V244.8c0-3.5-2.3-6.6-5.6-7.7c-20.2-6.1-32.7-23.6-32.7-45.8
	c0-17.9,7.9-32.6,21.3-40.8l-2.1,25.6c-0.2,2.7,1,5.4,3.1,7l0.3,0.2c14.1,10.7,33.5,10.6,47.4-0.3c0.1-0.1,0.1-0.1,0.2-0.2
	c2-1.7,3.1-4.2,2.9-6.8l-2.1-26.6c15.7,7.4,24.5,21.9,24.5,41.4c0,18.1-11.8,36.4-28.8,44.4c-2.8,1.3-4.6,4.1-4.6,7.2v131.8
	c0,3.5,2.3,6.6,5.7,7.6c20.2,6.1,32.7,23.6,32.7,45.7C276.9,445.5,268.9,460.2,255.5,468.4L255.5,468.4z"/>
</svg>
