<?xml version="1.0" encoding="utf-8"?>
<!-- Generator: Adobe Illustrator 22.0.1, SVG Export Plug-In . SVG Version: 6.00 Build 0)  -->
<svg version="1.1"
	 id="Слой_1" shape-rendering="geometricPrecision" text-rendering="geometricPrecision" image-rendering="optimizeQuality"
	 xmlns="http://www.w3.org/2000/svg" xmlns:xlink="http://www.w3.org/1999/xlink" x="0px" y="0px" viewBox="0 0 57 61"
	 style="enable-background:new 0 0 57 61;" xml:space="preserve">
<g id="Слой_x0020_1">
	<path style="fill:#8F493D;" d="M50.8,44.3c0.2-0.3,0.5-0.5,0.8-0.5c0.4,0,0.7,0.2,0.8,0.5l3,5.4c0.4,0.6,0.5,1.4,0.5,2.1
		c0,0,0,0,0,0c0,2.4-2,4.3-4.3,4.3c-2.4,0-4.3-1.9-4.3-4.3c0-0.7,0.2-1.5,0.5-2.1L50.8,44.3z M51.7,54.2c1.3,0,2.4-1.1,2.4-2.5
		c0-0.4-0.1-0.8-0.3-1.2l-2.1-3.8l-2.1,3.8c-0.2,0.4-0.3,0.8-0.3,1.2c0,0,0,0,0,0C49.3,53.1,50.4,54.2,51.7,54.2L51.7,54.2z"/>
	<path style="fill:#8F493D;" d="M1,55.2h2.9V22.3c0-0.5,0.4-1,1-1h2.9v-4.8c0,0,0,0,0,0c0-3.9,2.5-7.3,6.2-8.5l24.3-7.9
		c0.3-0.1,0.7-0.1,1-0.1c1.8,0,3.3,1.5,3.3,3.3c0,1.4-0.9,2.6-2.2,3.1l-17.9,6c-1.5,0.5-2.6,1.7-2.9,3.2h0.8c0.5,0,1,0.4,1,1v4.8
		h2.9c0.5,0,1,0.4,1,1v4.8h25.1c3.7,0,6.8,3,6.8,6.8v5.8c0,0.5-0.4,1-1,1h-9.7c-0.5,0-1-0.4-1-1v-4.8H25.1v20.3H28c0.5,0,1,0.4,1,1
		V60c0,0.5-0.4,1-1,1H1c-0.5,0-1-0.4-1-1v-3.9C0,55.6,0.4,55.2,1,55.2L1,55.2z M21.7,10.5l17.9-6c0.6-0.2,0.9-0.7,0.9-1.3l0,0
		c0-0.7-0.6-1.3-1.3-1.3c-0.1,0-0.3,0-0.4,0.1L14.5,9.9c-2.5,0.8-4.4,3-4.8,5.7h7.7C17.8,13.2,19.5,11.3,21.7,10.5L21.7,10.5z
		 M19.3,17.5H9.7v3.9h9.7V17.5z M47.3,38.8h7.7v-3.9h-7.7V38.8z M23.2,34.9h-1.9V33H55c-0.5-2.2-2.4-3.9-4.7-3.9H19.3v-1.9h3.9v-3.9
		H5.8v31.9h17.4V34.9z M1.9,59.1h25.1v-1.9H1.9V59.1z"/>
	<path style="fill:#8F493D;" d="M8.7,25.2h4.8v1.9H9.7v2.9H7.7v-3.9C7.7,25.7,8.2,25.2,8.7,25.2L8.7,25.2z"/>
	<rect x="7.7" y="32" style="fill:#8F493D;" width="1.9" height="21.2"/>
</g>
</svg>
