<?xml version="1.0" encoding="utf-8"?>
<!-- Generator: Adobe Illustrator 22.1.0, SVG Export Plug-In . SVG Version: 6.00 Build 0)  -->
<svg version="1.1" id="Слой_1" xmlns="http://www.w3.org/2000/svg" xmlns:xlink="http://www.w3.org/1999/xlink" x="0px" y="0px"
	 viewBox="0 0 20 17.5" style="enable-background:new 0 0 20 17.5;" xml:space="preserve">
<style type="text/css">
	.st0{fill:#4F4F4F;}
</style>
<g>
	<g>
		<path class="st0" d="M14.2,9.5h-2.7c-0.7,0-1.3,0.6-1.3,1.3v2.1c0,0.7,0.6,1.3,1.3,1.3h2.7c0.7,0,1.3-0.6,1.3-1.3v-2.1
			C15.6,10.1,15,9.5,14.2,9.5z M14.6,12.9c0,0.2-0.2,0.4-0.4,0.4h-2.7c-0.2,0-0.4-0.2-0.4-0.4v-2.1c0-0.2,0.2-0.4,0.4-0.4h2.7
			c0.2,0,0.4,0.2,0.4,0.4V12.9z"/>
		<path class="st0" d="M20,5.7c0-0.1,0-0.2-0.1-0.2l-3-5.2C16.9,0.1,16.7,0,16.5,0H3.5C3.3,0,3.1,0.1,3,0.2l-3,5.2
			C0,5.6,0,5.6,0,5.7c0,1.2,0.7,2.2,1.7,2.6V17c0,0.3,0.2,0.5,0.5,0.5h2.7c0,0,0,0,0,0h3.8c0,0,0,0,0,0h9c0.3,0,0.5-0.2,0.5-0.5V8.4
			c0,0,0,0,0-0.1C19.3,7.9,20,6.9,20,5.7z M3.7,1h12.5l2.3,4.1H1.4L3.7,1z M14.2,6.1c-0.2,0.9-0.9,1.6-1.9,1.6
			c-0.9,0-1.7-0.7-1.9-1.6H14.2z M9.5,6.1C9.3,6.9,8.6,7.6,7.6,7.6c-0.9,0-1.7-0.7-1.9-1.6H9.5z M1,6.1h3.7C4.6,6.9,3.8,7.6,2.9,7.6
			C1.9,7.6,1.2,6.9,1,6.1z M8.2,16.5H5.4v-5.3c0-0.4,0.3-0.7,0.7-0.7h1.4c0.4,0,0.7,0.3,0.7,0.7L8.2,16.5L8.2,16.5z M17.3,16.5H9.2
			v-5.3c0-0.9-0.8-1.7-1.7-1.7H6.1c-0.9,0-1.7,0.8-1.7,1.7v5.3H2.7V8.6c0.1,0,0.1,0,0.2,0c1,0,1.9-0.5,2.4-1.3
			c0.5,0.8,1.4,1.3,2.4,1.3c1,0,1.9-0.5,2.4-1.3c0.5,0.8,1.4,1.3,2.4,1.3c1,0,1.9-0.5,2.4-1.3c0.5,0.8,1.4,1.3,2.4,1.3
			c0.1,0,0.1,0,0.2,0V16.5z M17.1,7.6c-0.9,0-1.7-0.7-1.9-1.6H19C18.8,6.9,18.1,7.6,17.1,7.6z"/>
	</g>
</g>
</svg>
