<svg width="20" height="20" viewBox="0 0 20 20" fill="none" xmlns="http://www.w3.org/2000/svg">
<path d="M11.0714 9.28442H10.3571V10.713H11.0714V9.28442Z" fill="white"/>
<path d="M13.9286 9.28442H13.2143V10.713H13.9286V9.28442Z" fill="white"/>
<path d="M9.64282 9.28442H8.92853V10.713H9.64282V9.28442Z" fill="white"/>
<path d="M12.5 9.28442H11.7857V10.713H12.5V9.28442Z" fill="white"/>
<path d="M9.54895 4.83943H9.5504C9.77485 5.02123 10.0867 5.04998 10.3406 4.91224C10.5945 4.77451 10.7404 4.49743 10.7104 4.21017C10.6723 3.84646 10.3657 3.57021 10 3.57017C9.97461 3.57005 9.94922 3.57138 9.92399 3.57411C9.63672 3.60431 9.3959 3.80458 9.31379 4.08154C9.23168 4.35849 9.3245 4.65759 9.54895 4.83943Z" fill="white"/>
<path d="M11.2482 15.0659C11.1768 14.9305 11.0889 14.7984 11.0022 14.6648L10 13.1205L8.87003 14.8605C8.78956 14.9728 8.71987 15.0923 8.66182 15.2177C8.60221 15.3607 8.57151 15.5141 8.57147 15.6691C8.57389 16.0024 8.71186 16.3204 8.95362 16.5498C9.24647 16.8285 9.63925 16.9775 10.0433 16.963C10.6702 16.9543 11.2179 16.5372 11.3929 15.9352C11.469 15.6383 11.4172 15.3231 11.2501 15.0662L11.2482 15.0659Z" fill="white"/>
<path d="M15.6107 3.21305C14.971 2.46379 14.2399 1.79766 13.4346 1.23019C14.1579 2.45266 14.1579 3.97199 13.4346 5.19449C14.2398 4.62738 14.9709 3.96176 15.6107 3.21305Z" fill="white"/>
<path d="M14.2079 5.51373C14.0054 5.66694 13.7929 5.81803 13.5683 5.96303C16.3695 7.57838 17.7361 10.8741 16.9 13.9977C16.0639 17.1213 13.2337 19.2936 10.0001 19.2936C6.76649 19.2936 3.93625 17.1213 3.10012 13.9977C2.26399 10.874 3.63063 7.57834 6.43184 5.96303C6.20719 5.81803 5.99469 5.66698 5.79219 5.51373C2.83996 7.38424 1.47938 10.9809 2.45434 14.3371C3.4293 17.6932 6.50512 20.0011 10.0001 19.9987C13.495 20.0011 16.5709 17.6933 17.5458 14.3371C18.5208 10.9809 17.1602 7.38424 14.2079 5.51373Z" fill="white"/>
<path d="M10.0231 6.42728C10.1574 6.42728 10.2903 6.41728 10.4224 6.40478C12.0416 6.21603 13.2626 4.84439 13.2626 3.21424C13.2626 1.58412 12.0416 0.212479 10.4224 0.0236902C10.2903 0.0111902 10.1574 0.00189331 10.0231 0.00119019C8.28354 0.0497058 6.8985 1.47392 6.8985 3.21424C6.8985 4.95455 8.28354 6.37877 10.0231 6.42728ZM9.84994 2.86553L9.85065 2.86517C10.3602 2.80799 10.8614 3.02834 11.1637 3.44248C11.4661 3.85662 11.5233 4.40103 11.3136 4.869C11.1039 5.33693 10.6596 5.65662 10.1492 5.70662C10.0987 5.71189 10.0479 5.71451 9.99709 5.71447H9.9928C9.23545 5.70928 8.61377 5.11392 8.57584 4.35748C8.53791 3.60103 9.0969 2.94646 9.84994 2.86553Z" fill="white"/>
<path d="M19.6429 9.64157H20.0001V9.28443C20.0001 9.0872 19.8402 8.92728 19.6429 8.92728H17.939C18.7807 10.9872 18.7824 13.2947 17.9436 15.3558H19.6429C19.8401 15.3558 20.0001 15.1959 20.0001 14.9987V14.6415H19.6429C19.4457 14.6415 19.2858 14.4817 19.2858 14.2844C19.2858 14.0871 19.4456 13.9272 19.6429 13.9272H20.0001V13.2129H19.6429C19.4457 13.2129 19.2858 13.0531 19.2858 12.8558C19.2858 12.6585 19.4456 12.4986 19.6429 12.4986H20.0001V11.7843H19.6429C19.4457 11.7843 19.2858 11.6245 19.2858 11.4272C19.2858 11.23 19.4456 11.0701 19.6429 11.0701H20.0001V10.3558H19.6429C19.4457 10.3558 19.2858 10.1959 19.2858 9.9986C19.2858 9.8015 19.4457 9.64157 19.6429 9.64157Z" fill="white"/>
<path d="M0.357148 8.92728C0.159922 8.92728 0 9.08716 0 9.28443V9.64157H0.357148C0.554375 9.64157 0.714297 9.80146 0.714297 9.99872C0.714297 10.1959 0.554414 10.3559 0.357148 10.3559H0V11.0702H0.357148C0.554375 11.0702 0.714297 11.2301 0.714297 11.4273C0.714297 11.6245 0.554414 11.7845 0.357148 11.7845H0V12.4988H0.357148C0.554375 12.4988 0.714297 12.6586 0.714297 12.8559C0.714297 13.0532 0.554414 13.2131 0.357148 13.2131H0V13.9274H0.357148C0.554375 13.9274 0.714297 14.0872 0.714297 14.2845C0.714297 14.4818 0.554414 14.6417 0.357148 14.6417H0V14.9988C0 15.196 0.159883 15.3559 0.357148 15.3559H2.05645C1.2177 13.2949 1.21938 10.9873 2.06109 8.92739H0.357148V8.92728Z" fill="white"/>
<path d="M10.491 7.11478C10.3443 7.13201 10.1967 7.14096 10.0489 7.14158C10.0403 7.14158 10.0321 7.14158 10.0235 7.14158C10.015 7.14158 10.0078 7.14158 9.99999 7.14158C9.00612 7.1206 8.03194 6.86041 7.15999 6.38303C4.47843 7.7031 3.06046 10.6972 3.73811 13.6082C4.41581 16.5192 7.01038 18.5792 9.99925 18.5792C12.9881 18.5792 15.5827 16.5192 16.2604 13.6082C16.9381 10.6972 15.5201 7.7031 12.8385 6.38303C12.1101 6.7749 11.3132 7.0233 10.491 7.11478ZM7.14284 14.9987H5.35714C5.15991 14.9987 4.99999 14.8388 4.99999 14.6416C4.99999 14.4444 5.15987 14.2844 5.35714 14.2844H7.14284C7.34007 14.2844 7.49999 14.4443 7.49999 14.6416C7.49999 14.8388 7.34011 14.9987 7.14284 14.9987ZM7.14284 13.5702H5.35714C5.15991 13.5702 4.99999 13.4103 4.99999 13.213C4.99999 13.0158 5.15987 12.8559 5.35714 12.8559H7.14284C7.34007 12.8559 7.49999 13.0158 7.49999 13.213C7.49999 13.4103 7.34011 13.5702 7.14284 13.5702ZM12.0818 16.1202C11.8243 17.0269 11.0046 17.659 10.0621 17.6773C10.0418 17.6773 10.0218 17.6773 10.0014 17.6773C9.42589 17.68 8.87179 17.4593 8.45573 17.0616C8.07503 16.6983 7.85886 16.1954 7.85718 15.6691C7.85718 15.4201 7.90632 15.1735 8.00183 14.9434C8.07694 14.7753 8.16847 14.615 8.27503 14.4649L9.66788 12.322C9.74101 12.2096 9.86597 12.1418 10 12.1417C10.1335 12.1416 10.2581 12.2087 10.3315 12.3202L11.6011 14.277C11.6986 14.427 11.7943 14.5752 11.8765 14.7274C12.128 15.1456 12.202 15.6471 12.0818 16.1202ZM14.6428 14.9987H12.8571C12.6599 14.9987 12.5 14.8388 12.5 14.6416C12.5 14.4444 12.6599 14.2844 12.8571 14.2844H14.6428C14.8401 14.2844 15 14.4443 15 14.6416C15 14.8388 14.8401 14.9987 14.6428 14.9987ZM15 13.213C15 13.4103 14.8401 13.5702 14.6428 13.5702H12.8571C12.6599 13.5702 12.5 13.4103 12.5 13.213C12.5 13.0158 12.6599 12.8559 12.8571 12.8559H14.6428C14.8401 12.8559 15 13.0158 15 13.213ZM14.6428 9.28443V10.713C14.6428 11.1075 14.323 11.4273 13.9285 11.4273H6.07144C5.67694 11.4273 5.35714 11.1075 5.35714 10.713V9.28443C5.35714 8.88994 5.67694 8.57014 6.07144 8.57014H13.9286C14.323 8.57017 14.6428 8.88994 14.6428 9.28443Z" fill="white"/>
<path d="M6.78577 9.28442H6.07147V10.713H6.78577V9.28442Z" fill="white"/>
<path d="M8.2143 9.28442H7.5V10.713H8.2143V9.28442Z" fill="white"/>
<path d="M6.73293 5.31019C5.91676 4.03132 5.91676 2.39511 6.73293 1.11624C5.86012 1.70616 5.07117 2.41151 4.38757 3.21304C5.0714 4.01444 5.86035 4.71987 6.73293 5.31019Z" fill="white"/>
</svg>
