<?xml version="1.0" encoding="utf-8"?>
<!-- Generator: Adobe Illustrator 22.0.1, SVG Export Plug-In . SVG Version: 6.00 Build 0)  -->
<svg version="1.1"
	 id="Слой_1" shape-rendering="geometricPrecision" text-rendering="geometricPrecision" image-rendering="optimizeQuality"
	 xmlns="http://www.w3.org/2000/svg" xmlns:xlink="http://www.w3.org/1999/xlink" x="0px" y="0px" viewBox="0 0 59 59"
	 enable-background="new 0 0 59 59" xml:space="preserve">
<g id="Слой_x0020_1">
	<path fill="#656565" d="M48.4,40c1.2,0.8,1.5,2.3,0.8,3.5l-2,3.3c-0.6,1.1-1.7,1.9-3,2.3c-1,0.3-2.1,0.4-3.2,0.4
		c-7.5,0-15.2-6.3-20.2-11.4C15.3,32.7,7.5,23.3,9.9,14.8c0.3-1.3,1.2-2.3,2.3-3l3.3-2c1.2-0.7,2.8-0.4,3.5,0.8l5.3,8
		c0.8,1.1,0.5,2.7-0.6,3.5l-3,2.3c-0.3,0.2-0.4,0.6-0.2,0.9l0.2,0.4c1.5,2.7,3.2,4.7,5.4,6.9c2.2,2.2,4.2,3.9,6.9,5.4l0.4,0.2
		c0.3,0.2,0.7,0.1,0.9-0.2l2.3-3c0.8-1.1,2.4-1.3,3.5-0.6L48.4,40z M32.1,24.5c-0.5,0-1-0.4-1-1c0-0.5,0.4-1,1-1
		c2.7,0,4.9,2.2,4.9,4.9c0,0.5-0.4,1-1,1c-0.5,0-1-0.4-1-1C35.1,25.9,33.8,24.5,32.1,24.5z M32.1,20.6c-0.5,0-1-0.4-1-1
		c0-0.5,0.4-1,1-1c4.9,0,8.9,4,8.9,8.9c0,0.5-0.4,1-1,1c-0.5,0-1-0.4-1-1C39.1,23.7,36,20.6,32.1,20.6z M32.1,16.6c-0.5,0-1-0.4-1-1
		c0-0.5,0.4-1,1-1c7.1,0,12.8,5.7,12.8,12.8c0,0.5-0.4,1-1,1c-0.5,0-1-0.4-1-1C43,21.5,38.1,16.6,32.1,16.6z M47.5,42.5
		c0.2-0.3,0.1-0.7-0.2-1l-8-5.3c-0.3-0.2-0.7-0.1-1,0.1l-2.3,3c-0.8,1-2.2,1.3-3.3,0.7l-0.4-0.2c-2.9-1.6-5-3.4-7.4-5.7
		c-2.4-2.4-4.1-4.4-5.7-7.4l-0.2-0.4c-0.6-1.1-0.4-2.6,0.7-3.3l3-2.3c0.3-0.2,0.4-0.6,0.1-1l-5.3-8c-0.2-0.3-0.6-0.4-1-0.2l-3.4,2
		c-0.7,0.4-1.2,1.1-1.4,1.8C9.6,23,17.3,32,22.1,36.9S36,49.4,43.7,47.3c0.8-0.2,1.4-0.7,1.8-1.4L47.5,42.5z"/>
	<path fill="#656565" d="M29.5,0C37.6,0,45,3.3,50.4,8.6S59,21.4,59,29.5S55.7,45,50.4,50.4S37.6,59,29.5,59S14,55.7,8.6,50.4
		S0,37.6,0,29.5S3.3,14,8.6,8.6S21.4,0,29.5,0z M48.7,10.3C43.8,5.4,37,2.4,29.5,2.4s-14.3,3-19.2,7.9S2.4,22,2.4,29.5
		c0,7.5,3,14.3,7.9,19.2s11.7,7.9,19.2,7.9s14.3-3,19.2-7.9c4.9-4.9,7.9-11.7,7.9-19.2S53.6,15.2,48.7,10.3z"/>
</g>
</svg>
