<?xml version="1.0" encoding="utf-8"?>
<!-- Generator: Adobe Illustrator 22.1.0, SVG Export Plug-In . SVG Version: 6.00 Build 0)  -->
<svg version="1.1" id="Слой_1" xmlns="http://www.w3.org/2000/svg" xmlns:xlink="http://www.w3.org/1999/xlink" x="0px" y="0px"
	 viewBox="0 0 21.7 20" style="enable-background:new 0 0 21.7 20;" xml:space="preserve">
<style type="text/css">
	.st0{fill:#4F4F4F;}
</style>
<path class="st0" d="M10.3,8.6V0h1.1v8.6c1.6,0.3,2.9,1.7,2.9,3.4c0,1.7-1.2,3.1-2.9,3.4V20h-1.1v-4.6c-1.6-0.3-2.9-1.7-2.9-3.4
	C7.4,10.3,8.7,8.9,10.3,8.6z M10.8,9.7c-1.3,0-2.3,1-2.3,2.3c0,1.3,1,2.3,2.3,2.3c1.3,0,2.3-1,2.3-2.3C13.1,10.7,12.1,9.7,10.8,9.7
	L10.8,9.7z"/>
<path class="st0" d="M18.9,4V0h-1.1v4c-1.6,0.3-2.9,1.7-2.9,3.4s1.2,3.1,2.9,3.4V20h1.1v-9.2c1.6-0.3,2.9-1.7,2.9-3.4
	C21.7,5.7,20.5,4.3,18.9,4z M18.3,9.7c-1.3,0-2.3-1-2.3-2.3c0-1.3,1-2.3,2.3-2.3s2.3,1,2.3,2.3C20.6,8.7,19.5,9.7,18.3,9.7z"/>
<path class="st0" d="M4,4V0H2.9v4C1.2,4.3,0,5.7,0,7.4s1.2,3.1,2.9,3.4V20H4v-9.2c1.6-0.3,2.9-1.7,2.9-3.4C6.9,5.7,5.6,4.3,4,4z
	 M3.4,9.7c-1.3,0-2.3-1-2.3-2.3c0-1.3,1-2.3,2.3-2.3c1.3,0,2.3,1,2.3,2.3C5.7,8.7,4.7,9.7,3.4,9.7z"/>
</svg>
