<?xml version="1.0" encoding="utf-8"?>
<!-- Generator: Adobe Illustrator 22.1.0, SVG Export Plug-In . SVG Version: 6.00 Build 0)  -->
<svg version="1.1" id="Слой_1" xmlns="http://www.w3.org/2000/svg" xmlns:xlink="http://www.w3.org/1999/xlink" x="0px" y="0px"
	 viewBox="0 0 14.7 14.7" style="enable-background:new 0 0 14.7 14.7;" xml:space="preserve">
<style type="text/css">
	.st0{fill:#0F0A0A;}
</style>
<g>
	<line class="st0" x1="1" y1="13.7" x2="13.7" y2="1"/>
	<path d="M1,14.7c-0.3,0-0.5-0.1-0.7-0.3c-0.4-0.4-0.4-1,0-1.4L13,0.3c0.4-0.4,1-0.4,1.4,0s0.4,1,0,1.4L1.7,14.4
		C1.5,14.6,1.3,14.7,1,14.7z"/>
</g>
<g>
	<line class="st0" x1="13.7" y1="13.7" x2="1" y2="1"/>
	<path d="M13.7,14.7c-0.3,0-0.5-0.1-0.7-0.3L0.3,1.7c-0.4-0.4-0.4-1,0-1.4s1-0.4,1.4,0L14.4,13c0.4,0.4,0.4,1,0,1.4
		C14.2,14.6,14,14.7,13.7,14.7z"/>
</g>
</svg>
