<svg width="20" height="20" viewBox="0 0 20 20" fill="none" xmlns="http://www.w3.org/2000/svg">
<path d="M19.6667 18H19.3334V17C19.3334 16.8159 19.1841 16.6667 19 16.6667H18.6667V0.33332C18.6667 0.149219 18.5175 0 18.3334 0H1.66668C1.48258 0 1.33336 0.149219 1.33336 0.33332V16.6666H1C0.815898 16.6666 0.66668 16.8159 0.66668 17V18H0.33332C0.149219 18 0 18.1493 0 18.3333V19.6666C0 19.8508 0.149219 20 0.33332 20H19.6666C19.8507 20 20 19.8508 20 19.6667V18.3334C20 18.1493 19.8508 18 19.6667 18ZM4.33332 8.33332H3.33332C3.14922 8.33332 3 8.48254 3 8.66664V10.3333C3 10.5174 3.14922 10.6666 3.33332 10.6666H4.33332V16.6666H2V0.666641H4.33332V8.33332ZM15 16.6667H5V0.66668H9.66668V1.69668C8.53668 1.88336 7.66668 3 7.66668 4.33336C7.66668 4.51746 7.8159 4.66668 8 4.66668H12C12.1841 4.66668 12.3333 4.51746 12.3333 4.33336C12.3333 3.00004 11.4633 1.88336 10.3333 1.69668V0.66668H15V16.6667ZM18 16.6667H15.6667V10.6667H16.6667C16.8508 10.6667 17 10.5175 17 10.3334V8.66668C17 8.48258 16.8508 8.33336 16.6667 8.33336H15.6667V0.66668H18V16.6667Z" fill="white"/>
<path d="M9.33332 5.33331C9.14922 5.33331 9 5.48253 9 5.66663V5.99995C9 6.18405 9.14922 6.33327 9.33332 6.33327C9.51742 6.33327 9.66664 6.18402 9.66664 5.99995V5.66663C9.66668 5.48257 9.51742 5.33331 9.33332 5.33331Z" fill="white"/>
<path d="M9.33332 7C9.14922 7 9 7.14922 9 7.33332V7.66664C9 7.85074 9.14922 7.99996 9.33332 7.99996C9.51742 7.99996 9.66664 7.85074 9.66664 7.66664V7.33332C9.66668 7.14926 9.51742 7 9.33332 7Z" fill="white"/>
<path d="M9.33332 8.66669C9.14922 8.66669 9 8.81591 9 9.00001V9.33333C9 9.51743 9.14922 9.66665 9.33332 9.66665C9.51742 9.66665 9.66664 9.51743 9.66664 9.33333V9.00001C9.66668 8.81591 9.51742 8.66669 9.33332 8.66669Z" fill="white"/>
<path d="M9.33332 10.3334C9.14922 10.3334 9 10.4826 9 10.6667V11C9 11.1841 9.14922 11.3333 9.33332 11.3333C9.51742 11.3333 9.66664 11.1841 9.66664 11V10.6667C9.66668 10.4826 9.51742 10.3334 9.33332 10.3334Z" fill="white"/>
<path d="M8.00001 5.33331C7.81591 5.33331 7.66669 5.48253 7.66669 5.66663V5.99995C7.66669 6.18405 7.81591 6.33327 8.00001 6.33327C8.18411 6.33327 8.33333 6.18402 8.33333 5.99995V5.66663C8.33333 5.48257 8.18411 5.33331 8.00001 5.33331Z" fill="white"/>
<path d="M8.00001 7C7.81591 7 7.66669 7.14922 7.66669 7.33332V7.66664C7.66669 7.85074 7.81591 7.99996 8.00001 7.99996C8.18411 7.99996 8.33333 7.85074 8.33333 7.66664V7.33332C8.33333 7.14926 8.18411 7 8.00001 7Z" fill="white"/>
<path d="M8.00001 8.66669C7.81591 8.66669 7.66669 8.81591 7.66669 9.00001V9.33333C7.66669 9.51743 7.81591 9.66665 8.00001 9.66665C8.18411 9.66665 8.33333 9.51743 8.33333 9.33333V9.00001C8.33333 8.81591 8.18411 8.66669 8.00001 8.66669Z" fill="white"/>
<path d="M8.00001 10.3334C7.81591 10.3334 7.66669 10.4826 7.66669 10.6667V11C7.66669 11.1841 7.81591 11.3333 8.00001 11.3333C8.18411 11.3333 8.33333 11.1841 8.33333 11V10.6667C8.33333 10.4826 8.18411 10.3334 8.00001 10.3334Z" fill="white"/>
<path d="M10.6668 5.33331C10.4827 5.33331 10.3334 5.48253 10.3334 5.66663V5.99995C10.3334 6.18405 10.4827 6.33327 10.6668 6.33327C10.8509 6.33327 11.0001 6.18402 11.0001 5.99995V5.66663C11.0001 5.48257 10.8508 5.33331 10.6668 5.33331Z" fill="white"/>
<path d="M10.6668 7C10.4827 7 10.3334 7.14922 10.3334 7.33332V7.66664C10.3334 7.85074 10.4827 7.99996 10.6668 7.99996C10.8509 7.99996 11.0001 7.85074 11.0001 7.66664V7.33332C11.0001 7.14926 10.8508 7 10.6668 7Z" fill="white"/>
<path d="M10.6668 8.66669C10.4827 8.66669 10.3334 8.81591 10.3334 9.00001V9.33333C10.3334 9.51743 10.4827 9.66665 10.6668 9.66665C10.8509 9.66665 11.0001 9.51743 11.0001 9.33333V9.00001C11.0001 8.81591 10.8508 8.66669 10.6668 8.66669Z" fill="white"/>
<path d="M10.6668 10.3334C10.4827 10.3334 10.3334 10.4826 10.3334 10.6667V11C10.3334 11.1841 10.4827 11.3333 10.6668 11.3333C10.8509 11.3333 11.0001 11.1841 11.0001 11V10.6667C11.0001 10.4826 10.8508 10.3334 10.6668 10.3334Z" fill="white"/>
<path d="M12 5.33331C11.8159 5.33331 11.6667 5.48253 11.6667 5.66663V5.99995C11.6667 6.18405 11.8159 6.33327 12 6.33327C12.1841 6.33327 12.3333 6.18402 12.3333 5.99995V5.66663C12.3333 5.48257 12.1841 5.33331 12 5.33331Z" fill="white"/>
<path d="M12 7C11.8159 7 11.6667 7.14922 11.6667 7.33332V7.66664C11.6667 7.85074 11.8159 7.99996 12 7.99996C12.1841 7.99996 12.3333 7.85074 12.3333 7.66664V7.33332C12.3333 7.14926 12.1841 7 12 7Z" fill="white"/>
<path d="M12 8.66669C11.8159 8.66669 11.6667 8.81591 11.6667 9.00001V9.33333C11.6667 9.51743 11.8159 9.66665 12 9.66665C12.1841 9.66665 12.3333 9.51743 12.3333 9.33333V9.00001C12.3333 8.81591 12.1841 8.66669 12 8.66669Z" fill="white"/>
<path d="M12 10.3334C11.8159 10.3334 11.6667 10.4826 11.6667 10.6667V11C11.6667 11.1841 11.8159 11.3333 12 11.3333C12.1841 11.3333 12.3333 11.1841 12.3333 11V10.6667C12.3333 10.4826 12.1841 10.3334 12 10.3334Z" fill="white"/>
</svg>
