<svg width="20" height="20" viewBox="0 0 20 20" fill="none" xmlns="http://www.w3.org/2000/svg">
<path d="M6.3098 5.9379C6.4011 5.94417 6.49026 5.90907 6.55286 5.8422C6.6886 5.71153 6.69274 5.49544 6.56194 5.35957L6.32555 5.11398L5.83411 5.58727L6.07049 5.83339C6.13322 5.89879 6.21931 5.93643 6.3098 5.9379Z" fill="white"/>
<path d="M8.21014 7.5631C8.34615 7.43256 8.35029 7.21647 8.21975 7.08046L7.98284 6.83487L7.49139 7.30816L7.72777 7.55429C7.85858 7.68976 8.0744 7.69376 8.21014 7.5631Z" fill="white"/>
<path d="M5.34233 6.06113L4.85089 6.53454L5.0874 6.78013C5.14987 6.84566 5.23582 6.8833 5.32632 6.88504C5.41734 6.89037 5.50637 6.85554 5.56937 6.78947C5.70511 6.65867 5.70925 6.44272 5.57844 6.30684L5.34233 6.06113Z" fill="white"/>
<path d="M11.3896 18.2429L13.0146 16.6777H9.8822L11.3896 18.2429Z" fill="white"/>
<path d="M6.74432 1.6131L1.83685 1.92969L2.31641 2.4274C2.45402 2.36254 2.60484 2.33037 2.757 2.33357C3.32238 2.33865 3.77672 2.80126 3.77151 3.36677C3.76631 3.93216 3.3037 4.38649 2.73831 4.38129H2.71883C2.367 4.37675 2.04253 4.19096 1.86061 3.88985C1.67855 3.58874 1.66494 3.21488 1.82457 2.90149L1.31578 2.37268L0.615051 7.05671L0.971954 7.42763L6.87165 1.7451L6.74432 1.6131Z" fill="white"/>
<path d="M2.97439 3.60299C3.07462 3.50742 3.10692 3.36074 3.05647 3.23167C3.00589 3.10287 2.88243 3.01732 2.74388 3.01505H2.73708C2.64899 3.01478 2.5641 3.04908 2.50097 3.11061C2.40166 3.20644 2.36963 3.3526 2.42008 3.481C2.47054 3.60953 2.59346 3.69495 2.73147 3.69762C2.8221 3.70189 2.91045 3.66745 2.97439 3.60299Z" fill="white"/>
<path d="M9.3219 10.1925L9.65971 9.48444L8.93964 9.79556L9.3219 10.1925Z" fill="white"/>
<path d="M12.1907 14.1548C12.583 14.5622 13.2313 14.5743 13.6385 14.1818C14.0457 13.7895 14.0579 13.1412 13.6653 12.7342L12.1907 14.1548Z" fill="white"/>
<path d="M14.9282 12.0703C14.9282 11.5426 15.0924 11.0278 15.3979 10.5975L7.34509 2.23651L1.44714 7.91904L9.22463 15.9951H13.7126V16.0058L15.803 13.9921C15.2478 13.5077 14.9288 12.8071 14.9282 12.0703ZM5.31407 7.56721C5.04285 7.56254 4.78472 7.44975 4.59733 7.25395L4.1239 6.76251C3.99297 6.62664 3.99697 6.41068 4.13285 6.27988L5.11613 5.33277L6.09928 4.38566C6.23488 4.25513 6.4507 4.25913 6.58151 4.3946L7.05533 4.88631C7.4476 5.29366 7.43532 5.94193 7.02797 6.33407C6.84564 6.50932 6.60433 6.61036 6.35154 6.61703C6.31697 7.15265 5.87184 7.56894 5.33515 7.56761L5.31407 7.56721ZM6.97231 9.57101C6.86153 9.57101 6.75755 9.51695 6.69349 9.42633C6.62969 9.33583 6.61367 9.21985 6.65091 9.11534L7.09016 7.87566L6.99967 7.78183L6.26211 8.49216C6.17495 8.58025 6.04682 8.61429 5.9275 8.58079C5.80818 8.54742 5.71621 8.45199 5.68752 8.33133C5.65869 8.21067 5.69766 8.08401 5.78909 8.00032L6.77144 7.05335L7.75432 6.1061C7.82012 6.04457 7.90714 6.0104 7.99723 6.01094C8.08759 6.01281 8.17355 6.05018 8.23615 6.11545L8.70943 6.60715C9.04098 6.94163 9.09957 7.45976 8.85131 7.85991C8.60306 8.25979 8.11269 8.43731 7.66596 8.28862L7.29251 9.34331C7.24446 9.47918 7.11646 9.57021 6.97231 9.57101ZM9.10344 11.7829C9.05259 11.7828 9.00227 11.7711 8.95662 11.7487C8.78645 11.6676 8.71451 11.4639 8.79566 11.2939L9.00747 10.8502L8.27031 10.0843L7.81811 10.2797C7.6454 10.3527 7.44626 10.2728 7.37192 10.1008C7.29771 9.92858 7.37593 9.72877 7.54744 9.65309L10.2245 8.49657C10.3551 8.43998 10.5072 8.47041 10.6058 8.57278C10.7046 8.67529 10.7294 8.82824 10.6683 8.95651L9.41189 11.5883C9.3553 11.7072 9.23531 11.783 9.10344 11.7829ZM10.9975 13.7493C10.8926 13.7493 10.7935 13.7009 10.7287 13.618C10.6643 13.5351 10.6413 13.4271 10.6669 13.3253L11.1601 11.3563L10.0506 12.4249C9.91401 12.5498 9.70273 12.5431 9.57433 12.4098C9.44593 12.2765 9.44726 12.0652 9.577 11.9334L11.5437 10.0392C11.6533 9.93392 11.8194 9.91376 11.951 9.98997C12.0828 10.0663 12.1479 10.2202 12.1112 10.368L11.6176 12.3368L12.7272 11.2681C12.8145 11.18 12.9425 11.1461 13.0619 11.1795C13.1812 11.213 13.2733 11.3085 13.3019 11.4291C13.3306 11.5496 13.2918 11.6764 13.2003 11.7601L11.234 13.6542C11.1705 13.7154 11.0858 13.7493 10.9975 13.7493ZM14.1115 14.6732C13.4327 15.3269 12.3528 15.3068 11.6989 14.6282L11.4621 14.3821C11.3315 14.2465 11.3357 14.0307 11.4713 13.9L13.4378 12.0058C13.5049 11.9461 13.5911 11.9122 13.681 11.9102C13.7712 11.9121 13.857 11.9497 13.9197 12.0149L14.1563 12.2607C14.8097 12.9394 14.7894 14.0195 14.1109 14.6732H14.1115Z" fill="white"/>
<path d="M17.4879 10.1931C16.4512 10.1931 15.6108 11.0334 15.6108 12.0702C15.6108 13.1069 16.4512 13.9474 17.4879 13.9474C18.5246 13.9474 19.3651 13.1069 19.3651 12.0702C19.3637 11.0341 18.5242 10.1944 17.4879 10.1931ZM18.3118 12.4115L18.6945 12.7945L18.2119 13.2771L17.8292 12.8942V13.4354H17.1466V12.8942L16.764 13.2771L16.2813 12.7945L16.664 12.4115H16.1228V11.729H16.664L16.2813 11.3463L16.764 10.8649L17.1466 11.2463V10.705H17.8292V11.2463L18.2119 10.8649L18.6945 11.3475L18.3118 11.7299H18.8531V12.4125L18.3118 12.4115Z" fill="white"/>
</svg>
