<?xml version="1.0" encoding="utf-8"?>
<!-- Generator: Adobe Illustrator 22.1.0, SVG Export Plug-In . SVG Version: 6.00 Build 0)  -->
<svg version="1.1" id="Слой_1" xmlns="http://www.w3.org/2000/svg" xmlns:xlink="http://www.w3.org/1999/xlink" x="0px" y="0px"
	 viewBox="0 0 20 18" style="enable-background:new 0 0 20 18;" xml:space="preserve">
<style type="text/css">
	.st0{fill:#4F4F4F;}
</style>
<g>
	<path class="st0" d="M12.1,2.3C12.1,2.3,12.1,2.3,12.1,2.3C12.1,2.3,12.1,2.3,12.1,2.3l0.8,1.2h-1.6l-0.4-0.9l0.9-0.4v0l0,0
		C11.8,2,12,2.1,12.1,2.3z M12.1,2.3C12.1,2.3,12.1,2.3,12.1,2.3L12.1,2.3 M12.1,2.3C12.1,2.3,12.1,2.3,12.1,2.3L12.1,2.3 M12.2,2.2
		C12.1,2,11.8,1.9,11.6,2L12.2,2.2C12.2,2.3,12.2,2.2,12.2,2.2z M8.7,1.3L8.7,1.3L8.7,1.3c0,0,0.1,0,0.1,0c0.1,0,0.2,0.1,0.3,0.2
		l0.9,2l-6.3,0L8.7,1.3z M19.2,8.4h-0.7V4.8c0-0.7-0.6-1.3-1.3-1.3h-3L13,1.8c-0.3-0.6-1.1-0.9-1.8-0.6l-0.9,0.4L10.1,1
		C9.8,0.3,9,0,8.3,0.3L1.1,3.4C0.4,3.5-0.1,4.1-0.1,4.8v11.7c0,0.7,0.6,1.3,1.4,1.3h15.8c0.7,0,1.3-0.6,1.3-1.3v-3.7h0.7
		c0.5,0,0.9-0.4,0.9-0.9V9.4C20.1,8.9,19.7,8.4,19.2,8.4z M17.4,16.4c0,0.2-0.1,0.3-0.3,0.3H1.3c-0.2,0-0.3-0.1-0.3-0.3V4.8
		c0-0.2,0.1-0.3,0.3-0.3h15.8c0.2,0,0.3,0.1,0.3,0.3v3.6H15c-0.5,0-0.9,0.4-0.9,0.9v2.5c0,0.5,0.4,0.9,0.9,0.9h2.4V16.4z M19.1,11.8
		h-4v-0.6h0.7c0.3,0,0.5-0.2,0.5-0.5c0-0.3-0.2-0.5-0.5-0.5h-0.7V9.5h4V11.8z"/>
</g>
</svg>
