<?xml version="1.0" encoding="utf-8"?>
<!-- Generator: Adobe Illustrator 22.1.0, SVG Export Plug-In . SVG Version: 6.00 Build 0)  -->
<svg version="1.1" id="Слой_1" xmlns="http://www.w3.org/2000/svg" xmlns:xlink="http://www.w3.org/1999/xlink" x="0px" y="0px"
	 viewBox="0 0 22.4 14.8" style="enable-background:new 0 0 22.4 14.8;" xml:space="preserve">
<style type="text/css">
	.st0{fill:#4F4F4F;}
</style>
<g>
	<g>
		<g>
			<path class="st0" d="M21.8,12.5L21.8,12.5c0.1,0,0.3-0.1,0.4-0.2c0,0,0,0,0,0l-0.1-0.1c0.1-0.1,0.1-0.2,0.1-0.3L21.8,12.5z
				 M21.8,12.5h-1.1c-0.2,1.2-1.2,2.1-2.5,2.1c-1.2,0-2.3-0.9-2.5-2.1H8c-0.2,1.2-1.2,2.1-2.5,2.1c-1.2,0-2.3-0.9-2.5-2.1H0.6
				c-0.3,0-0.5-0.2-0.5-0.5V0.6c0-0.3,0.2-0.5,0.5-0.5h14c0.3,0,0.5,0.2,0.5,0.5v2.2h3.3h0c0.2,0,0.3,0.1,0.4,0.2c0,0,0,0,0,0
				L21,6.1l0,0l0.9,1.2l0,0l0.3,0.4l0,0c0.1,0.1,0.1,0.2,0.1,0.3v0V12L21.8,12.5z M16.7,12c0,0.8,0.6,1.5,1.4,1.5v0h0.1
				c0.8,0,1.5-0.7,1.5-1.5c0-0.8-0.7-1.5-1.5-1.5C17.4,10.5,16.7,11.2,16.7,12z M4.1,12c0,0.8,0.6,1.5,1.4,1.5v0h0.1
				c0.8,0,1.5-0.7,1.5-1.5c0-0.8-0.7-1.5-1.5-1.5C4.7,10.5,4.1,11.2,4.1,12z M1.1,1.1v7H12c0.3,0,0.5,0.2,0.5,0.5
				c0,0.3-0.2,0.5-0.5,0.5H1.1v2.4h2c0.2-1.2,1.2-2.1,2.5-2.1c1.2,0,2.3,0.9,2.5,2.1h6V2.9h-2.8c-0.3,0-0.5-0.2-0.5-0.5
				c0-0.3,0.2-0.5,0.5-0.5h2.8V1.1H1.1z M18.4,4.1l-0.3-0.4h-3.1v7.7h0.6c0.2-1.2,1.2-2.1,2.5-2.1c1.2,0,2.3,0.9,2.5,2.1h0.6V8.2
				l-0.1-0.1h-4.9c-0.3,0-0.5-0.2-0.5-0.5v-3c0-0.3,0.2-0.5,0.5-0.5H18.4z M19.1,5.2h-2.3v2h3.7L19.1,5.2z"/>
			<path class="st0" d="M18.2,14.8c-1.3,0-2.3-0.9-2.6-2.1H8.1c-0.2,1.2-1.3,2.1-2.6,2.1c-1.3,0-2.3-0.9-2.6-2.1H0.6
				C0.3,12.6,0,12.4,0,12V0.6C0,0.3,0.3,0,0.6,0h14c0.3,0,0.6,0.3,0.6,0.6v2.1h3.2c0.2,0,0.4,0.1,0.5,0.3l2.2,3.2l1.2,1.7
				c0.1,0.1,0.1,0.2,0.1,0.3v4l-0.1,0.1c0,0,0,0.1-0.1,0.1l0.1,0.1l-0.1,0.1c-0.1,0.1-0.2,0.2-0.4,0.2l0,0l-0.2,0l0,0h-0.8
				C20.5,13.9,19.4,14.8,18.2,14.8z M8,12.4h7.8l0,0.1c0.2,1.2,1.2,2.1,2.4,2.1c1.2,0,2.2-0.9,2.4-2.1l0-0.1h1.2l0.4-0.6V8.1
				c0-0.1,0-0.2-0.1-0.2L18.7,3c-0.1-0.1-0.2-0.2-0.3-0.2H15V0.6c0-0.2-0.2-0.4-0.4-0.4h-14c-0.2,0-0.4,0.2-0.4,0.4V12
				c0,0.2,0.2,0.4,0.4,0.4h2.6l0,0.1c0.2,1.2,1.2,2.1,2.4,2.1C6.8,14.6,7.8,13.7,8,12.4L8,12.4z M18.1,13.7
				c-0.8-0.1-1.5-0.8-1.5-1.6c0-0.9,0.7-1.6,1.6-1.6s1.6,0.7,1.6,1.6s-0.7,1.6-1.6,1.6L18.1,13.7z M18.2,10.6
				c-0.8,0-1.4,0.6-1.4,1.4c0,0.7,0.5,1.3,1.3,1.4l0.1,0h0.1c0.8,0,1.4-0.6,1.4-1.4S19,10.6,18.2,10.6z M5.5,13.7
				C4.6,13.6,4,12.9,4,12c0-0.9,0.7-1.6,1.6-1.6c0.9,0,1.6,0.7,1.6,1.6c0,0.9-0.7,1.6-1.6,1.6v0L5.5,13.7z M5.6,10.6
				c-0.8,0-1.4,0.6-1.4,1.4c0,0.7,0.5,1.3,1.3,1.4l0.1,0h0.1C6.3,13.4,7,12.8,7,12S6.3,10.6,5.6,10.6z M21.4,11.6h-0.8l0-0.1
				c-0.2-1.2-1.2-2.1-2.4-2.1c-1.2,0-2.2,0.9-2.4,2.1l0,0.1H15V3.7h3.2l0.4,0.6h-2.3c-0.2,0-0.4,0.2-0.4,0.4v3C16,7.9,16.1,8,16.4,8
				h4.9l0.1,0.2V11.6z M20.8,11.4h0.4V8.3l0,0h-4.8c-0.3,0-0.6-0.3-0.6-0.6v-3C15.8,4.3,16,4,16.4,4h1.9l-0.1-0.2h-2.9v7.5h0.4
				c0.2-1.2,1.3-2.1,2.6-2.1C19.4,9.3,20.5,10.2,20.8,11.4z M14.2,11.6H8l0-0.1c-0.2-1.2-1.2-2.1-2.4-2.1s-2.2,0.9-2.4,2.1l0,0.1H1
				V9H12c0.2,0,0.4-0.2,0.4-0.4S12.2,8.2,12,8.2H1V1h13.2v1h-2.9c-0.2,0-0.4,0.2-0.4,0.4c0,0.2,0.2,0.4,0.4,0.4h2.9V11.6z M8.1,11.4
				H14V3h-2.7c-0.3,0-0.6-0.3-0.6-0.6s0.3-0.6,0.6-0.6H14V1.2H1.2V8H12c0.3,0,0.6,0.3,0.6,0.6c0,0.3-0.3,0.6-0.6,0.6H1.2v2.2H3
				c0.2-1.2,1.3-2.1,2.6-2.1S7.9,10.2,8.1,11.4z M20.7,7.2h-4V5.1h2.4L20.7,7.2z M17,7h3.4l-1.3-1.8H17V7z"/>
		</g>
	</g>
</g>
</svg>
