<svg width="20" height="20" viewBox="0 0 20 20" fill="none" xmlns="http://www.w3.org/2000/svg">
<path d="M2.38281 20H3.55469C3.87833 20 4.14062 19.7377 4.14062 19.4141V15.2734H5.3125V15.8594C5.3125 16.1832 5.57465 16.4453 5.89844 16.4453C6.22223 16.4453 6.48438 16.1832 6.48438 15.8594V13.5156C6.48438 13.1918 6.22223 12.9297 5.89844 12.9297C5.57465 12.9297 5.3125 13.1918 5.3125 13.5156V14.1016H4.14062V1.17188H12.9297C13.253 1.17188 13.5156 1.43448 13.5156 1.75781V2.40311C12.3694 2.63657 11.4647 3.54126 11.2312 4.6875H10.5859C10.2621 4.6875 10 4.94965 10 5.27344C10 5.59723 10.2621 5.85938 10.5859 5.85938H17.6172C17.941 5.85938 18.2031 5.59723 18.2031 5.27344C18.2031 4.94965 17.941 4.6875 17.6172 4.6875H16.9719C16.7384 3.54126 15.8337 2.63657 14.6875 2.40311V1.75781C14.6875 0.788574 13.8989 0 12.9297 0H2.96875C2.32147 0 1.79688 0.524597 1.79688 1.17188V19.4141C1.79688 19.7377 2.05917 20 2.38281 20Z" fill="white"/>
<path d="M11.1719 7.61719C11.1719 7.2934 10.9097 7.03125 10.5859 7.03125C10.2621 7.03125 10 7.2934 10 7.61719V8.82812C10 9.15192 10.2621 9.41406 10.5859 9.41406C10.9097 9.41406 11.1719 9.15192 11.1719 8.82812V7.61719Z" fill="white"/>
<path d="M12.9297 9.41406C13.2535 9.41406 13.5156 9.15192 13.5156 8.82812V7.61719C13.5156 7.2934 13.2535 7.03125 12.9297 7.03125C12.6059 7.03125 12.3438 7.2934 12.3438 7.61719V8.82812C12.3438 9.15192 12.6059 9.41406 12.9297 9.41406Z" fill="white"/>
<path d="M15.2734 9.41406C15.5972 9.41406 15.8594 9.15192 15.8594 8.82812V7.61719C15.8594 7.2934 15.5972 7.03125 15.2734 7.03125C14.9496 7.03125 14.6875 7.2934 14.6875 7.61719V8.82812C14.6875 9.15192 14.9496 9.41406 15.2734 9.41406Z" fill="white"/>
<path d="M17.6172 9.41406C17.941 9.41406 18.2031 9.15192 18.2031 8.82812V7.61719C18.2031 7.2934 17.941 7.03125 17.6172 7.03125C17.2934 7.03125 17.0312 7.2934 17.0312 7.61719V8.82812C17.0312 9.15192 17.2934 9.41406 17.6172 9.41406Z" fill="white"/>
<path d="M11.1719 11.1719C11.1719 10.8481 10.9097 10.5859 10.5859 10.5859C10.2621 10.5859 10 10.8481 10 11.1719V12.3438C10 12.6675 10.2621 12.9297 10.5859 12.9297C10.9097 12.9297 11.1719 12.6675 11.1719 12.3438V11.1719Z" fill="white"/>
<path d="M12.3438 12.3438C12.3438 12.6675 12.6059 12.9297 12.9297 12.9297C13.2535 12.9297 13.5156 12.6675 13.5156 12.3438V11.1719C13.5156 10.8481 13.2535 10.5859 12.9297 10.5859C12.6059 10.5859 12.3438 10.8481 12.3438 11.1719V12.3438Z" fill="white"/>
<path d="M14.6875 12.3438C14.6875 12.6675 14.9496 12.9297 15.2734 12.9297C15.5972 12.9297 15.8594 12.6675 15.8594 12.3438V11.1719C15.8594 10.8481 15.5972 10.5859 15.2734 10.5859C14.9496 10.5859 14.6875 10.8481 14.6875 11.1719V12.3438Z" fill="white"/>
<path d="M17.0312 12.3438C17.0312 12.6675 17.2934 12.9297 17.6172 12.9297C17.941 12.9297 18.2031 12.6675 18.2031 12.3438V11.1719C18.2031 10.8481 17.941 10.5859 17.6172 10.5859C17.2934 10.5859 17.0312 10.8481 17.0312 11.1719V12.3438Z" fill="white"/>
<path d="M11.1719 14.6875C11.1719 14.3637 10.9097 14.1016 10.5859 14.1016C10.2621 14.1016 10 14.3637 10 14.6875V15.8594C10 16.1832 10.2621 16.4453 10.5859 16.4453C10.9097 16.4453 11.1719 16.1832 11.1719 15.8594V14.6875Z" fill="white"/>
<path d="M12.3438 15.8594C12.3438 16.1832 12.6059 16.4453 12.9297 16.4453C13.2535 16.4453 13.5156 16.1832 13.5156 15.8594V14.6875C13.5156 14.3637 13.2535 14.1016 12.9297 14.1016C12.6059 14.1016 12.3438 14.3637 12.3438 14.6875V15.8594Z" fill="white"/>
<path d="M14.6875 15.8594C14.6875 16.1832 14.9496 16.4453 15.2734 16.4453C15.5972 16.4453 15.8594 16.1832 15.8594 15.8594V14.6875C15.8594 14.3637 15.5972 14.1016 15.2734 14.1016C14.9496 14.1016 14.6875 14.3637 14.6875 14.6875V15.8594Z" fill="white"/>
<path d="M17.0312 15.8594C17.0312 16.1832 17.2934 16.4453 17.6172 16.4453C17.941 16.4453 18.2031 16.1832 18.2031 15.8594V14.6875C18.2031 14.3637 17.941 14.1016 17.6172 14.1016C17.2934 14.1016 17.0312 14.3637 17.0312 14.6875V15.8594Z" fill="white"/>
<path d="M10.5859 17.6172C10.2621 17.6172 10 17.8793 10 18.2031V19.375C10 19.6988 10.2621 19.9609 10.5859 19.9609C10.9097 19.9609 11.1719 19.6988 11.1719 19.375V18.2031C11.1719 17.8793 10.9097 17.6172 10.5859 17.6172Z" fill="white"/>
<path d="M12.3438 19.375C12.3438 19.6988 12.6059 19.9609 12.9297 19.9609C13.2535 19.9609 13.5156 19.6988 13.5156 19.375V18.2031C13.5156 17.8793 13.2535 17.6172 12.9297 17.6172C12.6059 17.6172 12.3438 17.8793 12.3438 18.2031V19.375Z" fill="white"/>
<path d="M14.6875 19.375C14.6875 19.6988 14.9496 19.9609 15.2734 19.9609C15.5972 19.9609 15.8594 19.6988 15.8594 19.375V18.2031C15.8594 17.8793 15.5972 17.6172 15.2734 17.6172C14.9496 17.6172 14.6875 17.8793 14.6875 18.2031V19.375Z" fill="white"/>
<path d="M17.0312 19.375C17.0312 19.6988 17.2934 19.9609 17.6172 19.9609C17.941 19.9609 18.2031 19.6988 18.2031 19.375V18.2031C18.2031 17.8793 17.941 17.6172 17.6172 17.6172C17.2934 17.6172 17.0312 17.8793 17.0312 18.2031V19.375Z" fill="white"/>
</svg>
