<?xml version="1.0" encoding="UTF-8"?>
<!DOCTYPE svg PUBLIC "-//W3C//DTD SVG 1.0//EN" "http://www.w3.org/TR/2001/REC-SVG-20010904/DTD/svg10.dtd">
<!-- Creator: CorelDRAW X8 -->
<svg xmlns="http://www.w3.org/2000/svg" xml:space="preserve" width="59px" height="59px" version="1.0" shape-rendering="geometricPrecision" text-rendering="geometricPrecision" image-rendering="optimizeQuality" fill-rule="evenodd" clip-rule="evenodd"
viewBox="0 0 3282 3282"
 xmlns:xlink="http://www.w3.org/1999/xlink">
 <g id="Слой_x0020_1">
  <metadata id="CorelCorpID_0Corel-Layer"/>
  <g id="_1121861410992">
   <path fill="#656565" d="M1447 2654c0,136 -111,247 -248,247 -136,0 -247,-111 -247,-248 0,-136 111,-247 247,-247 137,0 248,111 248,248zm-577 -1596l1634 0c24,0 46,12 60,31 14,20 18,45 10,67l-213 613c-36,106 -136,177 -249,177l-1101 0 24 152c9,57 57,99 114,99l1118 0c40,0 73,33 73,73 0,41 -33,74 -73,74l-1117 0c-130,0 -241,-94 -261,-222l-181 -1142c-9,-57 -57,-98 -115,-98l-228 0c-41,0 -74,-33 -74,-74 0,-41 33,-74 74,-74l228 0c130,0 241,95 261,223l16 101zm1111 1843c-137,0 -247,-111 -248,-247 0,-137 111,-248 248,-248 137,0 247,111 247,248 0,136 -111,247 -247,247zm-881 -247c0,55 44,99 99,99 56,0 100,-44 100,-100 0,-55 -44,-99 -100,-99 -55,0 -99,44 -99,100zm1300 -1448l-1507 0 94 593 1125 0c50,0 94,-32 110,-78l178 -515zm-419 1348c-55,0 -100,44 -100,100 0,55 45,99 100,99 55,0 100,-44 100,-100 0,-55 -45,-99 -100,-99z"/>
  </g>
  <path fill="#656565" d="M1410 2654c0,-117 -94,-212 -211,-212 -116,0 -211,95 -211,211 0,117 95,212 211,212 117,-1 211,-95 211,-211zm-1045 -1808l228 0c76,-1 140,54 151,128l181 1142c17,111 112,192 225,192l1117 0c20,0 37,-17 37,-38 0,-20 -17,-37 -37,-37l-1118 0c-75,0 -139,-55 -150,-129l-31 -194 1144 0c97,0 183,-61 215,-153l212 -612c4,-12 2,-25 -5,-34 -7,-10 -18,-16 -30,-16l-1665 0 -21 -132c-17,-111 -113,-193 -225,-192l-228 0c-20,0 -37,16 -37,37 0,21 17,38 37,38l0 0zm2086 324l-195 563c-21,61 -79,102 -144,102l-1156 0 -105 -665 1600 0zm-470 1695c116,0 211,-95 211,-211 0,-117 -95,-212 -211,-212 -117,0 -211,95 -211,212 0,116 94,210 211,211zm0 -348c75,0 136,61 136,136 0,76 -61,137 -136,137 -75,0 -136,-61 -136,-136 0,-76 61,-137 136,-137zm-918 137c0,-76 61,-137 136,-137 76,0 137,61 137,136 0,76 -61,137 -137,137 -75,0 -136,-61 -136,-136z"/>
  <path fill="#656565" fill-rule="nonzero" d="M1641 0c453,0 863,184 1160,481 297,297 481,707 481,1160 0,453 -184,863 -481,1160 -297,297 -707,481 -1160,481 -453,0 -863,-184 -1160,-481 -297,-297 -481,-707 -481,-1160 0,-453 184,-863 481,-1160 297,-297 707,-481 1160,-481zm1067 574c-273,-273 -650,-442 -1067,-442 -417,0 -794,169 -1067,442 -273,273 -442,650 -442,1067 0,417 169,794 442,1067 273,273 650,442 1067,442 417,0 794,-169 1067,-442 273,-273 442,-650 442,-1067 0,-417 -169,-794 -442,-1067z"/>
 </g>
</svg>
