<?xml version="1.0" encoding="UTF-8"?>
<!DOCTYPE svg PUBLIC "-//W3C//DTD SVG 1.0//EN" "http://www.w3.org/TR/2001/REC-SVG-20010904/DTD/svg10.dtd">
<!-- Creator: CorelDRAW X8 -->
<svg xmlns="http://www.w3.org/2000/svg" xml:space="preserve" width="59px" height="59px" version="1.0" shape-rendering="geometricPrecision" text-rendering="geometricPrecision" image-rendering="optimizeQuality" fill-rule="evenodd" clip-rule="evenodd"
viewBox="0 0 3202 3202"
 xmlns:xlink="http://www.w3.org/1999/xlink">
 <g id="Слой_x0020_1">
  <metadata id="CorelCorpID_0Corel-Layer"/>
  <path fill="#656565" d="M2626 2170c63,42 82,127 43,192l-109 181c-35,61 -93,105 -161,124 -56,16 -114,23 -173,23 -409,-1 -826,-344 -1098,-616 -296,-297 -720,-811 -593,-1271 18,-68 63,-126 124,-161l181 -109c65,-39 150,-20 192,43l290 434c41,62 28,146 -31,192l-163 126c-15,12 -19,32 -10,49l13 24c82,149 175,254 295,375 122,122 226,212 375,295l24 13c17,9 37,5 49,-10l126 -163c46,-59 130,-72 192,-31l434 290zm-882 -838c-29,0 -52,-24 -52,-53 0,-28 23,-52 52,-52 147,0 266,120 266,267 0,29 -23,52 -52,52 -28,0 -52,-23 -52,-52 0,-90 -73,-162 -162,-162zm0 -215c-29,0 -52,-23 -52,-52 0,-29 23,-52 52,-52 265,0 481,215 481,481 0,29 -24,52 -52,52 -29,0 -52,-23 -52,-52 -1,-208 -169,-377 -377,-377zm0 -214c-29,0 -52,-24 -52,-52 0,-29 23,-53 52,-53 384,1 695,312 695,696 0,29 -23,52 -52,52 -29,0 -52,-23 -52,-52 0,-326 -265,-591 -591,-591zm836 1405c10,-17 5,-40 -12,-52l-434 -289c-17,-11 -39,-8 -52,8l-126 163c-43,55 -120,71 -181,37l-24 -13c-159,-87 -270,-184 -399,-312 -129,-129 -224,-240 -312,-399l-13 -24c-34,-61 -19,-139 37,-181l163 -126c15,-13 19,-35 8,-52l-289 -434c-12,-17 -35,-22 -52,-12l-182 109c-37,22 -65,58 -77,100 -114,415 302,904 567,1169 265,265 754,681 1169,567 42,-12 78,-40 100,-78l109 -181z"/>
  <path fill="#656565" fill-rule="nonzero" d="M1601 0c442,0 842,179 1132,469 290,290 469,690 469,1132 0,442 -179,842 -469,1132 -290,290 -690,469 -1132,469 -442,0 -842,-179 -1132,-469 -290,-290 -469,-690 -469,-1132 0,-442 179,-842 469,-1132 290,-290 690,-469 1132,-469zm1041 560c-266,-266 -635,-431 -1041,-431 -406,0 -775,165 -1041,431 -266,266 -431,634 -431,1041 0,406 165,775 431,1041 266,266 635,431 1041,431 406,0 775,-165 1041,-431 266,-267 431,-635 431,-1041 0,-406 -165,-775 -431,-1041z"/>
 </g>
</svg>
