<?xml version="1.0" encoding="UTF-8"?>
<!DOCTYPE svg PUBLIC "-//W3C//DTD SVG 1.0//EN" "http://www.w3.org/TR/2001/REC-SVG-20010904/DTD/svg10.dtd">
<!-- Creator: CorelDRAW X8 -->
<svg xmlns="http://www.w3.org/2000/svg" xml:space="preserve" width="39px" height="26px" version="1.0" shape-rendering="geometricPrecision" text-rendering="geometricPrecision" image-rendering="optimizeQuality" fill-rule="evenodd" clip-rule="evenodd"
viewBox="0 0 1408 921"
 xmlns:xlink="http://www.w3.org/1999/xlink">
 <g id="Слой_x0020_1">
  <metadata id="CorelCorpID_0Corel-Layer"/>
  <g id="_1122063259552">
   <path fill="#656565" d="M1408 474c0,0 0,0 0,-1 0,-17 -14,-31 -32,-31l-9 0 -131 -255c-6,-10 -17,-17 -29,-17l-224 0 8 -68c3,-27 -6,-53 -24,-72 -17,-19 -42,-30 -69,-30l-696 0c-18,0 -33,14 -35,31l-6 56 396 0c26,0 46,21 46,47 -1,25 -22,46 -48,46l-132 0c0,0 0,0 0,0l-389 0c-18,0 -34,15 -34,34 0,18 14,32 32,32l515 0c24,4 42,25 41,50 -1,27 -24,50 -51,50l-355 0c-18,0 -34,15 -34,33 0,19 14,33 32,33l351 0c24,4 43,25 42,50 -1,28 -24,50 -51,50l-403 0 0 0 -33 0c-19,0 -34,15 -35,33 0,19 14,34 33,34l29 0 -11 119c-3,27 5,53 23,72 18,19 42,30 70,30l25 0c12,69 71,121 144,121 72,0 134,-52 150,-121l314 0c25,0 49,-10 68,-25 17,16 40,25 65,25l5 0c12,69 72,121 144,121 73,0 135,-52 150,-121l21 0c54,0 102,-44 107,-98l20 -225c0,0 0,0 0,-1 0,0 0,-1 0,-1 0,0 0,-1 0,-1zm-1043 380c-46,0 -82,-38 -81,-83 1,-46 40,-84 86,-84 46,0 82,38 81,84 -1,45 -40,83 -86,83zm747 0c-46,0 -82,-38 -81,-83 1,-46 39,-84 85,-84 46,0 83,38 81,84 -1,45 -39,83 -85,83zm209 -156c-1,19 -19,35 -38,35l-23 0c-14,-64 -72,-112 -142,-112 -70,0 -130,48 -148,112l-7 0c-9,0 -16,-3 -21,-8 -6,-6 -8,-14 -8,-23l43 -465 96 0 -15 169c-3,27 6,53 23,72 18,20 43,30 70,30l188 0 -18 190z"/>
   <g>
   </g>
   <g>
   </g>
   <g>
   </g>
   <g>
   </g>
   <g>
   </g>
   <g>
   </g>
   <g>
   </g>
   <g>
   </g>
   <g>
   </g>
   <g>
   </g>
   <g>
   </g>
   <g>
   </g>
   <g>
   </g>
   <g>
   </g>
   <g>
   </g>
  </g>
 </g>
</svg>
