<?xml version="1.0" encoding="UTF-8"?>
<!DOCTYPE svg PUBLIC "-//W3C//DTD SVG 1.0//EN" "http://www.w3.org/TR/2001/REC-SVG-20010904/DTD/svg10.dtd">
<!-- Creator: CorelDRAW X8 -->
<svg xmlns="http://www.w3.org/2000/svg" xml:space="preserve" width="31px" height="24px" version="1.0" shape-rendering="geometricPrecision" text-rendering="geometricPrecision" image-rendering="optimizeQuality" fill-rule="evenodd" clip-rule="evenodd"
viewBox="0 0 923 701"
 xmlns:xlink="http://www.w3.org/1999/xlink">
 <g id="Слой_x0020_1">
  <metadata id="CorelCorpID_0Corel-Layer"/>
  <g id="_1121980805472">
   <path fill="#656565" d="M814 0l-704 0c-61,0 -110,47 -110,105l0 491c0,58 49,105 110,105l704 0c60,0 109,-47 109,-105l0 -491c0,-58 -49,-105 -109,-105zm0 608l-704 0c-9,0 -17,-5 -17,-12l0 -426 318 269c7,5 15,9 24,9l54 0c8,0 16,-4 23,-9l318 -269 0 426c0,7 -7,12 -16,12zm-352 -253l-310 -262 619 0 -309 262z"/>
   <g>
   </g>
   <g>
   </g>
   <g>
   </g>
   <g>
   </g>
   <g>
   </g>
   <g>
   </g>
   <g>
   </g>
   <g>
   </g>
   <g>
   </g>
   <g>
   </g>
   <g>
   </g>
   <g>
   </g>
   <g>
   </g>
   <g>
   </g>
   <g>
   </g>
  </g>
 </g>
</svg>
