<?xml version="1.0" encoding="UTF-8"?>
<!DOCTYPE svg PUBLIC "-//W3C//DTD SVG 1.0//EN" "http://www.w3.org/TR/2001/REC-SVG-20010904/DTD/svg10.dtd">
<!-- Creator: CorelDRAW X8 -->
<svg xmlns="http://www.w3.org/2000/svg" xml:space="preserve" width="25px" height="25px" version="1.0" shape-rendering="geometricPrecision" text-rendering="geometricPrecision" image-rendering="optimizeQuality" fill-rule="evenodd" clip-rule="evenodd"
viewBox="0 0 570 561"
 xmlns:xlink="http://www.w3.org/1999/xlink">
 <g id="Слой_x0020_1">
  <metadata id="CorelCorpID_0Corel-Layer"/>
  <g id="_1122059310672">
   <g>
    <g>
     <g>
      <path fill="#656565" d="M380 39c2,-1 4,-2 5,-2 1,0 4,1 6,3l54 74 47 0 -71 -96c-14,-19 -44,-24 -63,-10l-25 19 22 31 25 -19z"/>
      <path fill="#656565" d="M250 39c2,-1 3,-2 4,-2 1,0 4,1 6,3l54 74 47 0 -70 -96c-15,-19 -44,-24 -63,-10l-145 106 64 0 103 -75z"/>
      <path fill="#656565" d="M306 357c0,-47 38,-85 84,-85l143 0 0 -85c0,-19 -16,-35 -35,-35l-463 0c-19,0 -35,16 -35,35l0 339c0,20 16,35 35,35l463 0c19,0 35,-15 35,-35l0 -85 -143 0c-46,0 -84,-38 -84,-84z"/>
      <path fill="#656565" d="M552 301l-162 0c-30,0 -55,25 -55,56 0,30 25,55 55,55l162 0c10,0 18,-8 18,-18l0 -75c0,-10 -8,-18 -18,-18z"/>
     </g>
    </g>
   </g>
   <g>
   </g>
   <g>
   </g>
   <g>
   </g>
   <g>
   </g>
   <g>
   </g>
   <g>
   </g>
   <g>
   </g>
   <g>
   </g>
   <g>
   </g>
   <g>
   </g>
   <g>
   </g>
   <g>
   </g>
   <g>
   </g>
   <g>
   </g>
   <g>
   </g>
  </g>
 </g>
</svg>
