<?xml version="1.0" encoding="UTF-8"?>
<!DOCTYPE svg PUBLIC "-//W3C//DTD SVG 1.0//EN" "http://www.w3.org/TR/2001/REC-SVG-20010904/DTD/svg10.dtd">
<!-- Creator: CorelDRAW X8 -->
<svg xmlns="http://www.w3.org/2000/svg" xml:space="preserve" width="28px" height="28px" version="1.0" shape-rendering="geometricPrecision" text-rendering="geometricPrecision" image-rendering="optimizeQuality" fill-rule="evenodd" clip-rule="evenodd"
viewBox="0 0 724 724"
 xmlns:xlink="http://www.w3.org/1999/xlink">
 <g id="Слой_x0020_1">
  <metadata id="CorelCorpID_0Corel-Layer"/>
  <g id="_1121980783904">
   <g>
    <g>
     <path fill="#656565" d="M550 479c-23,-23 -53,-23 -76,0 -18,18 -36,35 -54,54 -5,5 -9,6 -14,2 -12,-6 -24,-11 -36,-18 -52,-33 -95,-75 -134,-122 -19,-24 -36,-49 -48,-77 -2,-6 -2,-10 3,-14 18,-18 35,-35 53,-53 25,-25 25,-54 0,-79 -14,-14 -28,-28 -42,-42 -15,-14 -29,-29 -44,-43 -23,-23 -53,-23 -76,0 -18,18 -36,36 -54,53 -17,17 -26,36 -27,59 -3,38 6,73 19,108 26,71 67,135 116,193 66,78 145,141 237,185 42,21 85,36 132,39 32,2 60,-7 82,-32 16,-17 33,-33 49,-49 24,-24 25,-54 1,-78 -29,-29 -58,-57 -87,-86z"/>
     <path fill="#656565" d="M522 359l55 -10c-9,-51 -33,-97 -69,-134 -39,-38 -88,-63 -142,-70l-8 56c42,5 80,24 110,54 28,29 47,64 54,104z"/>
     <path fill="#656565" d="M609 117c-65,-64 -146,-105 -235,-117l-8 56c77,11 147,46 203,101 52,53 87,119 99,192l56 -9c-15,-85 -55,-162 -115,-223z"/>
    </g>
   </g>
   <g>
   </g>
   <g>
   </g>
   <g>
   </g>
   <g>
   </g>
   <g>
   </g>
   <g>
   </g>
   <g>
   </g>
   <g>
   </g>
   <g>
   </g>
   <g>
   </g>
   <g>
   </g>
   <g>
   </g>
   <g>
   </g>
   <g>
   </g>
   <g>
   </g>
  </g>
 </g>
</svg>
