<?xml version="1.0" encoding="UTF-8"?>
<!DOCTYPE svg PUBLIC "-//W3C//DTD SVG 1.0//EN" "http://www.w3.org/TR/2001/REC-SVG-20010904/DTD/svg10.dtd">
<!-- Creator: CorelDRAW X8 -->
<svg xmlns="http://www.w3.org/2000/svg" xml:space="preserve" width="24px" height="29px" version="1.0" shape-rendering="geometricPrecision" text-rendering="geometricPrecision" image-rendering="optimizeQuality" fill-rule="evenodd" clip-rule="evenodd"
viewBox="0 0 541 675"
 xmlns:xlink="http://www.w3.org/1999/xlink">
 <g id="Слой_x0020_1">
  <metadata id="CorelCorpID_0Corel-Layer"/>
  <g id="_1121862172480">
   <g>
    <g>
     <path fill="#8F493D" d="M271 0c-150,0 -271,121 -271,271 0,16 2,34 5,50 0,1 1,4 2,9 4,19 10,37 18,54 29,68 93,174 234,287 3,2 7,4 12,4 4,0 8,-2 12,-4 140,-113 204,-219 234,-287 7,-17 14,-35 18,-54 1,-5 1,-8 2,-9 3,-16 4,-34 4,-50 0,-150 -121,-271 -270,-271zm228 315c0,0 -1,0 -1,0 0,1 0,3 -1,7 0,0 0,0 0,0 -3,16 -9,31 -16,46 0,0 0,0 0,1 -26,62 -84,158 -210,262 -127,-104 -185,-200 -211,-262 0,-1 0,-1 0,-1 -7,-15 -12,-30 -16,-46 0,0 0,0 0,0 -1,-4 -1,-6 -1,-7 0,0 -1,0 -1,0 -2,-15 -4,-30 -4,-45 0,-128 104,-232 233,-232 128,0 232,104 232,232 0,15 -2,30 -4,45z"/>
     <path fill="#8F493D" d="M271 102c-95,0 -172,77 -172,171 0,95 77,172 172,172 94,0 171,-77 171,-172 0,-94 -77,-171 -171,-171zm0 305c-74,0 -134,-60 -134,-134 0,-73 60,-133 134,-133 73,0 133,60 133,133 0,74 -60,134 -133,134z"/>
    </g>
   </g>
   <g>
   </g>
   <g>
   </g>
   <g>
   </g>
   <g>
   </g>
   <g>
   </g>
   <g>
   </g>
   <g>
   </g>
   <g>
   </g>
   <g>
   </g>
   <g>
   </g>
   <g>
   </g>
   <g>
   </g>
   <g>
   </g>
   <g>
   </g>
   <g>
   </g>
  </g>
 </g>
</svg>
