<?xml version="1.0" encoding="UTF-8"?>
<!DOCTYPE svg PUBLIC "-//W3C//DTD SVG 1.0//EN" "http://www.w3.org/TR/2001/REC-SVG-20010904/DTD/svg10.dtd">
<!-- Creator: CorelDRAW X8 -->
<svg xmlns="http://www.w3.org/2000/svg" xml:space="preserve" width="59px" height="59px" version="1.0" shape-rendering="geometricPrecision" text-rendering="geometricPrecision" image-rendering="optimizeQuality" fill-rule="evenodd" clip-rule="evenodd"
viewBox="0 0 3160 3160"
 xmlns:xlink="http://www.w3.org/1999/xlink">
 <g id="Слой_x0020_1">
  <metadata id="CorelCorpID_0Corel-Layer"/>
  <path fill="#656565" d="M1649 1561l430 489c22,25 18,62 -8,82 -12,9 -26,14 -40,14 -19,0 -37,-8 -48,-21l-445 -505c-9,-11 -14,-24 -14,-38l0 -838c0,-33 28,-59 63,-59 34,0 62,26 62,59l0 817z"/>
  <path fill="#656565" fill-rule="nonzero" d="M1580 0c436,0 831,177 1117,463 286,286 463,681 463,1117 0,436 -177,831 -463,1117 -286,286 -681,463 -1117,463 -436,0 -831,-177 -1117,-463 -286,-286 -463,-681 -463,-1117 0,-436 177,-831 463,-1117 286,-286 681,-463 1117,-463zm1027 553c-263,-263 -626,-426 -1027,-426 -401,0 -764,163 -1027,426 -263,262 -426,626 -426,1027 0,401 163,764 426,1027 263,263 626,425 1027,425 401,0 764,-162 1027,-425 263,-263 425,-626 425,-1027 0,-401 -162,-764 -425,-1027z"/>
  <path fill="#656565" d="M1517 3061l0 -309c0,-34 28,-62 63,-62 34,0 62,28 62,62l0 309 -125 0z"/>
  <path fill="#656565" d="M1517 93l0 308c0,34 28,62 63,62 34,0 62,-28 62,-62l0 -308 -125 0z"/>
  <path fill="#656565" d="M3064 1642l-308 0c-35,0 -63,-28 -63,-62 0,-35 28,-63 63,-63l308 0 0 125z"/>
  <path fill="#656565" d="M96 1642l308 0c34,0 63,-28 63,-62 0,-35 -28,-63 -63,-63l-308 0 0 125z"/>
 </g>
</svg>
