<?xml version="1.0" encoding="UTF-8"?>
<!DOCTYPE svg PUBLIC "-//W3C//DTD SVG 1.0//EN" "http://www.w3.org/TR/2001/REC-SVG-20010904/DTD/svg10.dtd">
<!-- Creator: CorelDRAW X8 -->
<svg xmlns="http://www.w3.org/2000/svg" xml:space="preserve" width="58px" height="58px" version="1.0" shape-rendering="geometricPrecision" text-rendering="geometricPrecision" image-rendering="optimizeQuality" fill-rule="evenodd" clip-rule="evenodd"
viewBox="0 0 3148 3148"
 xmlns:xlink="http://www.w3.org/1999/xlink">
 <g id="Слой_x0020_1">
  <metadata id="CorelCorpID_0Corel-Layer"/>
  <path fill="#656565" d="M3148 1574c0,-868 -706,-1574 -1574,-1574 -868,0 -1574,706 -1574,1574 0,458 197,871 511,1159l-2 2 51 43c4,2 7,5 11,7 27,23 55,44 84,65 9,7 18,13 27,20 31,21 62,41 94,60 7,4 14,8 22,12 35,20 70,39 107,56 3,1 6,2 8,4 120,55 247,96 381,120 3,1 7,1 10,2 42,7 84,13 126,17 5,0 10,1 16,1 42,3 85,6 128,6 43,0 85,-3 127,-6 5,0 11,-1 16,-1 42,-4 84,-9 125,-17 3,0 7,-1 10,-1 132,-24 258,-64 376,-118 4,-2 8,-4 13,-6 35,-17 69,-35 103,-54 9,-4 17,-9 25,-14 31,-18 62,-37 91,-57 11,-8 21,-15 31,-23 25,-18 50,-36 74,-56 5,-4 11,-8 16,-12l53 -44 -2 -1c317,-288 516,-703 516,-1164zm-3034 0c0,-805 655,-1460 1460,-1460 805,0 1459,655 1459,1460 0,433 -190,823 -491,1091 -17,-12 -34,-22 -51,-31l-485 -242c-43,-22 -71,-66 -71,-114l0 -169c12,-14 24,-30 36,-47 63,-89 113,-187 149,-293 73,-35 120,-107 120,-189l0 -203c0,-49 -18,-97 -51,-135l0 -267c3,-30 14,-198 -108,-336 -105,-120 -276,-181 -507,-181 -231,0 -402,61 -508,181 -121,138 -110,306 -107,336l0 267c-33,38 -51,86 -51,135l0 203c0,63 28,122 77,162 46,181 141,319 177,365l0 166c0,47 -26,90 -67,112l-452 247c-15,8 -29,17 -44,27 -297,-267 -485,-655 -485,-1085zm2316 1181c-20,14 -40,28 -61,42 -10,6 -19,12 -29,18 -27,17 -54,33 -82,48 -6,3 -13,6 -19,9 -64,33 -131,62 -200,85 -2,0 -4,1 -7,2 -36,12 -72,23 -109,32 0,0 0,0 0,0 -37,9 -75,16 -113,23 -1,0 -2,0 -3,0 -35,6 -71,10 -107,13 -6,1 -13,1 -19,2 -36,3 -71,4 -107,4 -36,0 -73,-2 -109,-4 -6,-1 -12,-1 -18,-2 -37,-3 -73,-7 -108,-13 -2,0 -4,-1 -5,-1 -76,-12 -150,-31 -223,-55 -2,-1 -4,-2 -7,-3 -36,-12 -71,-25 -106,-41 0,0 -1,0 -1,0 -33,-14 -65,-30 -98,-47 -4,-2 -8,-4 -12,-6 -29,-16 -58,-33 -86,-50 -8,-5 -17,-11 -25,-16 -26,-17 -52,-35 -77,-54 -2,-2 -5,-4 -7,-5 2,-2 3,-3 5,-4l453 -246c78,-43 126,-124 126,-213l0 -206 -13 -16c-1,-1 -125,-152 -172,-356l-5 -22 -20 -13c-27,-18 -44,-48 -44,-80l0 -203c0,-26 12,-51 32,-70l19 -17 0 -318 0 -8c-1,-1 -17,-139 79,-249 83,-95 225,-143 422,-143 196,0 337,48 420,141 97,110 81,250 81,251l0 326 19 17c20,19 31,44 31,70l0 203c0,41 -27,78 -67,90l-29 9 -9 29c-34,105 -82,201 -143,288 -15,21 -29,40 -42,54l-14 16 0 212c0,92 51,175 134,216l484 242c4,2 7,4 10,5 -7,5 -13,9 -19,14z"/>
 </g>
</svg>
